<svg xmlns="http://www.w3.org/2000/svg" width="23.379" height="19" viewBox="0 0 23.379 19"><path d="M23.38 2.25c-.862.38-1.786.64-2.756.755.99-.594 1.75-1.534 2.11-2.654-.93.55-1.955.95-3.048 1.165C18.812.583 17.564 0 16.186 0c-2.65 0-4.797 2.147-4.797 4.797 0 .375.042.742.124 1.093-3.986-.2-7.52-2.11-9.887-5.012C1.214 1.586.98 2.41.98 3.29c0 1.664.845 3.132 2.132 3.993-.786-.026-1.526-.24-2.172-.6v.06c0 2.324 1.65 4.262 3.847 4.704-.403.11-.827.168-1.265.168-.31 0-.608-.03-.903-.086.61 1.904 2.38 3.29 4.48 3.33-1.642 1.286-3.708 2.054-5.956 2.054-.39 0-.77-.023-1.145-.068C2.122 18.206 4.643 19 7.352 19 16.173 19 21 11.69 21 5.353c0-.208-.006-.415-.015-.62.937-.677 1.75-1.522 2.394-2.484z"/></svg>