<svg xmlns="http://www.w3.org/2000/svg" width="20.491" height="20.491" viewBox="0 0 20.491 20.491"><path fill="#4b4b4b" fill-rule="evenodd" clip-rule="evenodd" d="M18.127 8.668h-1.783c.13.505.206 1.033.206 1.578 0 3.482-2.822 6.305-6.304 6.305S3.94 13.73 3.94 10.247c0-.545.077-1.073.208-1.578H2.364v8.67c0 .436.353.788.788.788H17.34c.435 0 .787-.353.787-.787V8.667zm0-5.516c0-.436-.353-.788-.788-.788h-2.365c-.436 0-.787.353-.787.788v2.365c0 .434.352.787.787.787h2.364c.435 0 .787-.354.787-.787V3.152zm-7.88 3.153c-2.178 0-3.942 1.765-3.942 3.94 0 2.177 1.765 3.94 3.94 3.94 2.177 0 3.942-1.764 3.942-3.94s-1.765-3.94-3.94-3.94m7.88 14.186H2.364C1.06 20.49 0 19.434 0 18.127V2.364C0 1.06 1.06 0 2.364 0h15.763c1.307 0 2.364 1.06 2.364 2.364v15.762c0 1.307-1.056 2.365-2.363 2.365"/></svg>