<svg xmlns="http://www.w3.org/2000/svg" width="32.235" height="14" viewBox="0 0 32.235 14"><path fill="#4b4b4b" d="M.364 8.373c-.067 0-.12.053-.13.127L0 10.29l.235 1.76c.01.074.062.126.13.126.065 0 .118-.052.128-.125l.28-1.76-.28-1.79c-.01-.074-.063-.127-.13-.127zm1.326-.978c-.012-.077-.066-.13-.135-.13s-.125.055-.134.13l-.316 2.896.317 2.832c.01.076.066.13.135.13s.123-.054.135-.13l.36-2.83-.36-2.897zm4.994-2.67c-.13 0-.237.106-.243.24l-.25 5.328.25 3.44c.007.136.114.242.244.242s.237-.106.244-.24l.286-3.442-.286-5.327c-.007-.135-.115-.242-.244-.242zM4.1 6.574c-.1 0-.18.08-.19.187l-.283 3.53.284 3.413c.008.106.09.186.19.186s.18-.08.188-.185l.323-3.414-.322-3.53c-.008-.105-.09-.185-.188-.185zm5.21 7.4c.162 0 .293-.13.3-.297l.247-3.384-.248-7.092c-.007-.166-.138-.296-.3-.296-.16 0-.293.13-.298.296l-.22 7.092.22 3.386c.005.165.136.295.3.295zm5.378.015c.222 0 .405-.182.41-.406v.002-.002l.17-3.287-.17-8.19c-.005-.225-.19-.408-.41-.408s-.405.183-.41.407l-.153 8.187.154 3.293c.002.222.186.403.408.403zm-2.71-.01c.193 0 .35-.157.355-.355v.003l.21-3.333-.21-7.144c-.006-.196-.162-.35-.354-.35-.195 0-.352.154-.355.352l-.187 7.144.187 3.332c.003.194.16.35.354.35zm-6.59-.033c.113 0 .207-.093.215-.213l.305-3.443-.305-3.273c-.008-.122-.1-.213-.216-.213-.116 0-.21.092-.217.213l-.268 3.274.268 3.443c.007.12.1.214.217.214zm-2.565-.19c.084 0 .15-.065.16-.157l.342-3.31-.34-3.436c-.01-.09-.078-.158-.162-.158-.086 0-.153.067-.162.158l-.3 3.437.3 3.31c.01.09.077.158.163.158zM13.327 3.034c-.21 0-.377.167-.38.38l-.173 6.882.172 3.312c.004.21.172.377.38.377.21 0 .378-.166.383-.38v.003l.19-3.312-.19-6.883c-.006-.212-.173-.38-.383-.38zm-5.334 10.95c.145 0 .264-.12.27-.27l.268-3.42-.266-6.544c-.007-.152-.126-.27-.27-.27-.147 0-.268.118-.274.27l-.234 6.543.235 3.42c.007.15.127.27.273.27zm2.973-.324v-.004l.23-3.36-.23-7.332c-.006-.182-.15-.324-.326-.324-.18 0-.322.143-.327.324l-.202 7.33.204 3.364c.004.18.148.323.326.323s.32-.14.326-.32zM28.27 6.07c-.542 0-1.06.108-1.532.307C26.423 2.804 23.425 0 19.77 0c-.894 0-1.767.176-2.536.474-.3.116-.38.235-.38.467v12.586c0 .242.19.443.427.47L28.27 14c2.19 0 3.966-1.774 3.966-3.964S30.46 6.07 28.27 6.07zM16.04.93c-.236 0-.432.194-.436.435l-.18 8.933.18 3.242c.004.236.2.432.437.432s.434-.195.438-.436v.004l.195-3.242-.195-8.933c-.004-.24-.2-.436-.437-.436z"/></svg>