<svg xmlns="http://www.w3.org/2000/svg" width="32" height="22" viewBox="0 0 32 22"><path fill="#4b4b4b" d="M31.094 4.842s-.302-2.123-1.225-3.057C28.696.557 27.384.552 26.78.48 22.473.168 16.007.168 16.007.168h-.012S9.527.168 5.22.48c-.604.072-1.917.077-3.087 1.305C1.21 2.72.908 4.842.908 4.842S.6 7.334.6 9.827v2.336c0 2.493.31 4.985.31 4.985s.3 2.123 1.224 3.058c1.17 1.228 2.71 1.188 3.395 1.317 2.462.235 10.47.31 10.47.31s6.473-.01 10.78-.322c.605-.07 1.917-.076 3.09-1.304.922-.935 1.224-3.058 1.224-3.058s.307-2.492.307-4.985V9.827c0-2.493-.306-4.985-.306-4.985zM12.82 14.995l-.002-8.654 8.323 4.344-8.32 4.31z"/></svg>