<svg xmlns="http://www.w3.org/2000/svg" width="214.643" height="105.312" viewBox="0 0 214.643 105.312"><path fill="#fff" d="M3.487 105.312c-2.205 0-3.487-1.307-3.487-3.59v-9.945c0-2.28 1.282-3.588 3.487-3.588 2.204 0 3.46 1.306 3.46 3.587v1.896H4.743v-1.77c0-1.178-.436-1.717-1.256-1.717-.82 0-1.282.54-1.282 1.717v9.69c0 1.18.46 1.718 1.282 1.718.82 0 1.256-.538 1.256-1.716v-1.77h2.204v1.896c0 2.286-1.256 3.592-3.46 3.592zM16.43 105.312c-2.204 0-3.59-1.307-3.59-3.59v-9.945c0-2.28 1.386-3.588 3.59-3.588 2.205 0 3.59 1.306 3.59 3.587v9.945c0 2.284-1.385 3.59-3.59 3.59zm1.385-13.408c0-1.178-.564-1.717-1.385-1.717-.82 0-1.384.54-1.384 1.717v9.69c0 1.18.564 1.718 1.384 1.718s1.385-.54 1.385-1.717v-9.69zM26.427 105.107V88.393h2.205v14.74h3.28v1.975h-5.485zM37.577 105.107V88.393h2.204v14.74h3.282v1.975h-5.485zM53.546 105.107l-.54-4.28h-2.46l-.537 4.28h-2.23l2.56-16.715h2.898l2.538 16.715h-2.23zM52.11 93.982c-.154-1.205-.308-3.256-.308-3.256h-.052s-.153 2.076-.307 3.256l-.615 5.023h1.896l-.614-5.023zM64.798 98.596H63.49v6.512h-2.204V88.393h3.512c2.538 0 3.563 1.436 3.563 3.64v2.925c0 2.202-1.024 3.638-3.562 3.638zm1.36-6.46c0-1.05-.437-1.718-1.36-1.718H63.49v6.152H64.8c.924 0 1.36-.666 1.36-1.717v-2.716zM77.332 105.312c-2.153 0-3.59-1.258-3.59-3.59v-1.896h2.18v1.77c0 1.178.642 1.717 1.41 1.717 1.025 0 1.538-.666 1.538-1.922 0-1.05-.205-1.743-1.025-2.614l-2.486-2.69c-1.18-1.257-1.514-2.333-1.514-3.976 0-2.254 1.077-3.92 3.563-3.92 2.255 0 3.536 1.307 3.536 3.588v1.896h-2.178v-1.77c0-1.178-.54-1.717-1.36-1.717-.923 0-1.384.77-1.384 1.922 0 1.052.205 1.743 1.025 2.614l2.485 2.693c1.18 1.254 1.514 2.33 1.514 3.973 0 2.256-1.23 3.922-3.718 3.922zM87.124 105.107V88.393h2.203v16.715h-2.203zM101.17 105.107l-3.384-12.56h-.05s.28 1.972.28 3.587v8.973H95.99V88.393h2.463l3.384 12.56h.05s-.255-2.048-.255-3.587v-8.973h2.024v16.715h-2.486zM115.934 105.107l-.333-.95c-.383.67-1.255 1.155-2.28 1.155-2.103 0-3.256-1.307-3.256-3.59v-9.945c0-2.28 1.308-3.588 3.513-3.588 2.204 0 3.486 1.306 3.486 3.587v1.896h-2.205v-1.77c0-1.178-.46-1.717-1.28-1.717s-1.31.54-1.31 1.717v9.69c0 1.18.462 1.692 1.282 1.692s1.308-.514 1.308-1.69V98.49h-1.308V96.57h3.513v8.537h-1.13zM134.773 105.312c-2.154 0-3.59-1.258-3.59-3.59v-1.896h2.18v1.77c0 1.178.64 1.717 1.41 1.717 1.025 0 1.537-.666 1.537-1.922 0-1.05-.205-1.743-1.024-2.614l-2.487-2.69c-1.18-1.257-1.513-2.333-1.513-3.976 0-2.254 1.076-3.92 3.562-3.92 2.255 0 3.537 1.307 3.537 3.588v1.896h-2.18v-1.77c0-1.178-.538-1.717-1.358-1.717-.923 0-1.386.77-1.386 1.922 0 1.052.206 1.743 1.026 2.614l2.486 2.693c1.18 1.254 1.513 2.33 1.513 3.973 0 2.256-1.23 3.922-3.717 3.922zM147.794 105.312c-2.204 0-3.486-1.307-3.486-3.59v-9.945c0-2.28 1.282-3.588 3.486-3.588 2.205 0 3.46 1.306 3.46 3.587v1.896h-2.204v-1.77c0-1.178-.436-1.717-1.256-1.717s-1.282.54-1.282 1.717v9.69c0 1.18.462 1.718 1.282 1.718s1.256-.538 1.256-1.716v-1.77h2.205v1.896c0 2.286-1.256 3.592-3.46 3.592zM157.406 105.107V88.393h5.484v2.025h-3.28v5.05h2.896v2.052h-2.895v5.613h3.28v1.975h-5.484zM173.99 105.107l-3.385-12.56h-.05s.282 1.972.282 3.587v8.973h-2.025V88.393h2.46l3.384 12.56h.05s-.255-2.048-.255-3.587v-8.973h2.026v16.715h-2.486zM183.14 105.107V88.393h5.487v2.025h-3.283v5.05h2.898v2.052h-2.898v5.613h3.283v1.975h-5.486zM199.34 105.107v-5.64c0-1.052-.436-1.718-1.36-1.718h-1.23v7.356h-2.202V88.393h3.434c2.54 0 3.564 1.54 3.564 3.744v2.05c0 1.153-.59 2.103-1.385 2.513.925.383 1.386 1.486 1.386 2.768v5.64h-2.206zm0-12.97c0-1.05-.436-1.72-1.36-1.72h-1.23v5.487h1.23c.925 0 1.36-.666 1.36-1.72v-2.047zM211.72 98.725v6.383h-2.204v-6.383l-2.87-10.332h2.306l1.28 5.488c.26 1.153.386 2.41.386 2.41h.05s.155-1.257.413-2.41l1.257-5.487h2.307l-2.923 10.332z"/><path fill="#fff" d="M140.098 32.636l.835.805-31.706 32.9-.835-.805zM139.778.57l.835.806-31.39 32.57-.835-.804zM124.666 32.866c-9.075 0-16.457-7.383-16.457-16.456 0-9.04 7.38-16.392 16.456-16.392.15 0 .3-.006.45-.01.32-.01.64-.018.957.01h14.985v14.98c.027.33.018.65.008.96-.004.15-.008.3-.008.45 0 9.075-7.353 16.458-16.392 16.458zm.926-31.706c-.147 0-.295.005-.443.01-.16.004-.322.008-.483.008-8.436 0-15.297 6.834-15.297 15.232 0 8.435 6.86 15.298 15.297 15.298 8.398 0 15.232-6.863 15.232-15.298 0-.162.003-.323.008-.483.01-.3.018-.582-.007-.852V1.178L126 1.176c-.136-.012-.27-.016-.408-.016zM123.74 66.62c-.162 0-.323-.003-.483-.017h-14.985v-14.98c-.025-.33-.017-.65-.008-.96.004-.15.008-.3.008-.45 0-9.075 7.355-16.458 16.395-16.458 9.074 0 16.457 7.383 16.457 16.457 0 9.038-7.383 16.392-16.457 16.392-.15 0-.3.004-.45.01-.16.003-.32.007-.477.007zm-14.306-1.177l13.898.002c.135.014.27.016.408.016.146 0 .294-.003.44-.01.163-.003.323-.007.485-.007 8.434 0 15.297-6.834 15.297-15.23 0-8.435-6.863-15.298-15.297-15.298-8.4 0-15.232 6.863-15.232 15.297 0 .16-.006.324-.01.484-.01.297-.018.58.007.85l.003.053v13.843zM108.27 18.022h1.163v31.955h-1.162zM141.057 17.054l.052 32.6-1.16.002-.053-32.6zM105.492.396l.83.81L74.523 33.73l-.83-.81zM74.547 32.913L106.3 65.678l-.834.808L73.713 33.72zM106.493 66.62H89.996c-9.085 0-16.478-7.438-16.478-16.582V16.583C73.518 7.44 80.91 0 89.996 0h16.497v66.62zM90.003 1.16c-8.453 0-15.324 6.92-15.324 15.423v33.455c0 8.505 6.87 15.423 15.316 15.423h15.337V1.16h-15.33z"/></svg>