<?xml version="1.0" encoding="utf-8"?>
<!-- Generator: Adobe Illustrator 18.1.1, SVG Export Plug-In . SVG Version: 6.00 Build 0)  -->
<svg version="1.1" id="Layer_1" xmlns="http://www.w3.org/2000/svg" xmlns:xlink="http://www.w3.org/1999/xlink" x="0px" y="0px"
	 viewBox="0 0 358.8 296.4" enable-background="new 0 0 358.8 296.4" xml:space="preserve">
<g>
	<g>
		<path d="M7.6,241.3l-0.1,0.2c0,0.2,0.1,0.6,0.2,1.2c0.2,0.6,0.3,1,0.3,1.3l-1-0.5c-0.6-1.5-1.2-2.9-1.8-4.3
			c-0.7-1.7-1.5-3.1-2.2-4.2l0,1.3c0,0.5,0.1,1.2,0.3,2.1c0.2,0.9,0.4,1.6,0.4,2.1c-0.8-0.2-1.7-2.1-2.5-5.5c-0.8-3-1.2-5.2-1.1-6.5
			v-2c0.2,0.8,0.4,1.5,0.6,2.3c0.3,0.9,0.6,1.6,0.9,2.2c0.3-1,0.5-1.8,0.5-2.5c0-0.9-0.2-2.1-0.5-3.8c-0.3-1.6-0.5-2.9-0.5-3.8
			c0-0.4,0.2-0.9,0.5-1.5l1,3l0.2,0l0.8-0.5v-4.5l0.5-0.5l1,2.5l1-1V215h1.2v2h1.5v-3.5h0.8c0.1,0.6,0.4,1.3,1,2h0.5l0.8-0.5v-2h0.8
			l1,2l0.2,0c0.4,0,0.7-0.3,0.9-1c0.2-0.7,0.4-1,0.6-1l0.2,0c0.2,0.3,0.4,0.7,0.6,1c0.2,0.3,0.5,0.5,0.9,0.5c0.4,0,0.6-0.3,0.7-0.8
			c0.1-0.5,0.3-0.8,0.5-0.8c0.2,0,0.5,0.3,0.8,0.8c0.3,0.5,0.6,0.8,1,0.8c0.4,0,0.7-0.3,0.8-0.8c0.1-0.5,0.3-0.8,0.5-0.8
			c0.3,1.3,1.1,2.2,2.2,2.5l0.5-0.5l0.2-2c0.3,0,0.7,0.5,1.2,1.5c0.5,1.1,0.9,1.8,1.1,2l0.5-0.2V214h1c0.4,1.5,0.6,2.3,0.6,2.5
			c0.3,0.9,0.8,1.6,1.4,2l0.5-0.2v-2.8l1,0.5c1.1,4,1.7,6.9,1.6,8.8c-0.3,0-0.7-0.4-1-1.2c-0.2-0.5-0.4-1.1-0.6-1.6l-0.2,0l-0.2,0
			c-0.4,0.5-0.5,1.1-0.5,1.7c0,0.4,0.1,1,0.3,1.7c0.2,0.8,0.3,1.3,0.4,1.7l-1-0.5c-0.4-0.7-0.7-1.2-1.1-1.5l-1,0.2v1.8h-1
			c-0.6-1.9-0.8-2.9-0.8-3c-0.4-1.1-0.9-1.9-1.7-2.5l-0.5,0.2v2.8c-0.6-0.5-1-1.1-1.2-1.7c-0.3-0.9-0.5-1.5-0.8-1.8l-1.2,0.4v1.7
			c-0.3-0.2-0.7-0.7-1.2-1.2c-0.5-0.6-0.8-1-1.1-1.2l-1.2,0.2l0.2,1.8l-0.5,0.5c-0.3-1.4-0.8-2-1.4-2l-1,0.5v1.4
			c0,0.5-0.2,1-0.6,1.6c-0.2-0.9-0.6-1.7-1-2.5l-0.3,0l-0.8,0.5v4.8c-0.3,0-0.6-0.4-0.9-1.2c-0.2-0.5-0.4-1-0.6-1.5l-0.2,0l-0.2,0
			L9.6,226c0,1,0.4,2.9,1.3,5.8c0.9,3.1,1.7,4.7,2.2,4.7l0.5-0.1v-3l0.7,0.2c0.3,0.3,0.6,0.9,0.9,1.8c0.3,0.9,0.8,1.6,1.4,2.1
			l0.5-0.1l0-2.4c0.6,0.2,1,0.5,1.2,1c0.3,0.5,0.5,1,0.8,1.5l1-0.4v-2.5c1.2,0.3,2,1.1,2.3,2.5l0.8-0.5l0.2-2.6
			c0.4,0,0.7,0.4,1.1,1.1c0.3,0.7,0.7,1.1,1,1.1l0.7-1c0-0.4-0.1-1-0.2-1.8c-0.2-0.8-0.2-1.4-0.2-1.8l0.5-0.5l1,2.5l0.2,0
			c0.5,0,1-0.8,1.3-2.5l0.2,0l0.2,0c0.8,1.4,1.5,3,2.2,4.8c0.9,2.2,1.3,3.9,1.3,5l-0.5,0.7c-0.9-1.4-1.4-2.1-1.8-2l-0.8,0.8
			c0.2,0.5,0.3,1.2,0.5,2.2l-0.5,0.5l-1.5-2l-1,0.3v2.9c-0.4-0.1-0.8-0.4-1.1-1c-0.4-0.7-0.7-1.1-0.9-1.2l-1,0.5v0.2
			c0,0.4,0.2,1.2,0.5,2.3l-0.5,0.1l-0.5-0.1c-0.2-0.4-0.5-0.8-0.7-1.2c-0.4-0.5-0.7-0.8-1.1-0.8c-0.6,0-0.9,0.7-0.9,2.1l-1.8-1.6
			l-1,0.3v1.5l-1-0.3c-0.2-0.4-0.5-0.8-1-1.5l-1,0.1v1.6c-0.6-0.1-1.1-0.5-1.7-1.2c-0.8-1-1.3-1.6-1.3-1.6l-0.5,0.2v2.4h-0.5
			c-0.4-0.7-0.8-1.5-1.1-2.2c-0.4-0.8-0.9-1.4-1.4-1.9L7.6,241.3z M2.1,232.5c-0.3,0-0.4,0.2-0.4,0.5c0,0.3,0.1,0.5,0.4,0.5
			c0.3,0,0.4-0.2,0.4-0.5C2.5,232.7,2.3,232.5,2.1,232.5z M2.6,234c-0.3,0-0.4,0.2-0.4,0.5c0,0.3,0.1,0.5,0.4,0.5
			c0.3,0,0.4-0.2,0.4-0.5C3,234.2,2.8,234,2.6,234z M4.1,240.5c0.3,0,0.4,0.2,0.4,0.5c0,0.3-0.1,0.5-0.4,0.5c-0.3,0-0.4-0.2-0.4-0.5
			C3.7,240.7,3.8,240.5,4.1,240.5z M31.6,231c0.3,0,0.4,0.2,0.4,0.5c0,0.3-0.1,0.5-0.4,0.5c-0.3,0-0.4-0.2-0.4-0.5
			C31.2,231.2,31.3,231,31.6,231z M32,232.5l0-0.5c0.4,0.4,0.9,1.3,1.5,2.6c0.6,1.3,1,2.3,1,2.9c0,0.3,0.1,0.8,0.1,1.2
			c0-0.3,0,0.1-0.1,1.2c-0.3-0.4-0.8-1.7-1.5-3.8C32.4,234.2,32,232.9,32,232.5z M34.1,216.5c0.3,0,0.5,0.2,0.5,0.5s0.1,0.7,0.1,1.3
			v0.4c0,0.1,0,0.3-0.1,0.6c0,0.3,0,0.5,0,0.7c-0.3-0.9-0.5-1.5-0.5-2V216.5z"/>
		<path d="M40.2,223.6c0,1.3-0.2,2.7-0.5,4v-0.8c0-0.2,0-0.3,0-0.5c0-0.2,0-0.3,0-0.4v-1.4c0-1.4,0.2-2.4,0.5-3V223.6z M49.3,243.5
			c-0.2,0.7-0.4,1-0.6,1c-0.4,0-0.6-1-0.5-3l-0.8-0.5c-0.5,0-0.9,0.8-1.2,2.5l-0.8-0.5v-4l-0.8-0.5c-0.4,0.3-0.7,1.1-1,2.5l-1-1
			l0.1-3.8c0-0.9-0.2-1.7-0.6-2.2c-0.5,0.8-0.9,2-1,3.5l-0.2,0l-0.2,0c-0.2-0.3-0.3-0.7-0.5-1c0-2.5,0.3-5.6,0.9-9.3
			c0.3-1.5,0.5-3.1,0.8-4.6c0.3-1.5,0.5-3.1,0.8-4.6l1-1v3.4l0.5,0.1c0.4,0,0.8-0.9,1.2-2.7c0.1-0.6,0.3-1.1,0.4-1.7
			c0.1-0.5,0.2-1.1,0.4-1.7l1-0.5v2.9l0.5,0.1c0.5,0,1-1.2,1.5-3.5l1-0.5v2.3l1,0.2c0.4-0.3,0.7-1.1,1-2.5l0.5-0.1
			c0.4,0,0.7,0.3,0.9,1c0.2,0.7,0.4,1,0.6,1c0.2,0,0.4-0.3,0.6-1c0.2-0.7,0.5-1,0.9-1l0.5,0.1l0.5,1.5l0.5,0.1l0.5-0.1l0.5-1.5
			l0.5-0.1c0.4,0,0.6,0.3,0.8,0.8c0.3,0.7,0.5,1.1,0.7,1.2l0.8-0.2V213h1.5v2.5h1.5v-2h0.9c0,0.9,0.1,1.6,0.2,2
			c0.1,0.7,0.5,1.2,1.1,1.5c0.4-0.3,0.7-1.1,1-2.5l0.2,0l0.8,0.5v3.5l1,1c0.2-0.9,0.2-1.4,0.2-1.3c0.1-0.5,0.4-0.9,0.8-1.1l0.8,0.5
			v5.5l0.8,0.5c0.5-0.8,0.8-2.1,1-4c0.4,0.5,0.6,1.3,0.6,2.2c0,4.2-0.7,10.2-2.1,18.3l-1,1v-3.4l-0.5-0.1c-0.3,0-0.8,1-1.4,2.9
			c-0.6,2-1.2,3.2-1.6,3.6l0.1-1.2l-0.1-1.2l-0.8-0.5c-0.5,0-0.9,0.7-1.2,2c-0.4,1.4-0.9,2-1.5,2v-2.3l-0.5-0.2
			c-0.5,0.4-0.8,0.8-1,1.2c-0.1,0.2-0.1,0.5-0.2,0.6c-0.1,0.2-0.2,0.4-0.2,0.7l-0.8,0.3l-0.2-1.4l-1-0.5l-0.5,0l-0.5,1.5l-0.8,0.3
			l-0.2-1.4l-1-0.5l-0.5,0c-0.1,0.2-0.1,0.3-0.2,0.5c-0.1,0.2-0.2,0.3-0.2,0.5c-0.2,0.4-0.5,0.6-0.8,0.6c-0.2,0-0.3-0.3-0.6-1
			c-0.2-0.7-0.5-1-0.9-1c-0.3,1.4-0.8,2.1-1.5,2.1c0-0.4-0.1-0.8-0.1-1c0-0.3,0-0.5,0-0.5c-0.1-0.6-0.5-1-1.2-1
			C49.7,242.5,49.4,242.8,49.3,243.5z M48.9,232c0.1,0.2,0.2,0.3,0.2,0.5c0.1,0,0.1,0,0.2,0h0.1h0.1c0.1,0,0.1,0,0.2,0
			c0.7-2.5,1.1-5.6,1.1-9.1c-0.5,0-0.8,0.2-1.1,0.5c-0.2,0.4-0.5,1.2-0.7,2.6c-0.2,1.3-0.3,2.2-0.3,2.9v2
			C48.8,231.7,48.8,231.8,48.9,232z M51.9,236.1l0.2,0c0.6-2.7,1.3-7.5,2-14.5c-0.3-0.4-0.5-0.5-0.8-0.5c-0.6,0-1.2,1.9-1.7,5.7
			c-0.4,3.1-0.6,5.4-0.6,7.1c0-0.1,0,0,0,0.2c0,0.3,0,0.8,0,1.5C51.5,235.9,51.7,236.1,51.9,236.1z M55.2,237
			c0.6-3.4,1.1-6.5,1.5-9.3c0.3-2.8,0.5-5.2,0.6-7.4c-0.8,0-1.3,0.2-1.6,0.7c-0.2,0.5-0.6,3.1-1.1,7.7c-0.6,4.5-0.9,7.2-0.9,8.3
			H55.2z M57.9,225.9c-0.2,1.4-0.4,2.5-0.5,3.4c-0.5,3.2-0.7,6-0.8,8.4c0.8,0,1.3-0.2,1.6-0.6c0.1-0.2,0.3-1,0.5-2.2
			c0.2-1.2,0.5-3,0.7-5.2c0.3-2.2,0.5-4,0.6-5.3c0.1-1.4,0.2-2.3,0.2-2.8c-0.3-0.4-0.6-0.5-1-0.5l-0.5,0
			C58.4,222.9,58.1,224.5,57.9,225.9z M60.4,237.1c0.7,0,1.2-1.8,1.7-5.5c0.4-2.9,0.6-5.3,0.6-7c0,0.2,0,0.1,0-0.2
			c0-0.3,0-0.9-0.1-1.8c-0.3-0.4-0.5-0.5-0.8-0.5l-0.2,0c-0.4,1.6-0.8,3.7-1.1,6c-0.3,2.4-0.6,5.2-0.9,8.5
			C60,236.9,60.2,237.1,60.4,237.1z M63.7,229.3c-0.2,1.5-0.4,3.3-0.6,5.3c1.4,0,2.2-2.4,2.2-7.1c0-0.8-0.2-1.4-0.6-2
			c-0.1,0-0.1,0-0.2,0h-0.1h-0.1c0,0-0.1,0-0.2,0C64,226.5,63.9,227.8,63.7,229.3z M74.2,232.3c0,0.1,0,0.3,0.1,0.5v0.8
			c0,1.4-0.2,2.4-0.6,3v-1c0-1,0.2-2.2,0.5-3.5C74.2,232.1,74.2,232.2,74.2,232.3z"/>
		<path d="M104.5,242.3l-1.2-0.3c-0.4,0.5-1,1-1.9,1.7c-0.1-1.1-0.4-1.7-0.9-1.7l-0.2,0l-1.5,1.5l-0.2,0c-0.2,0-0.4-0.3-0.5-0.8
			c-0.1-0.5-0.4-0.8-0.8-0.8c-0.4,0-0.7,0.3-1,0.8c-0.3,0.6-0.5,0.8-0.8,0.8c-0.2,0-0.4-0.3-0.5-0.8c-0.1-0.5-0.3-0.8-0.7-0.8
			c-0.4,0-0.7,0.2-0.9,0.5c-0.2,0.4-0.4,0.7-0.6,1l-1,0.3v-1.5l-1-0.3c-0.4,0.5-1,1-1.9,1.7c-0.1-1.1-0.4-1.7-0.9-1.7l-0.2,0
			l-1.5,1.5l-0.2,0c-0.2,0-0.4-0.3-0.5-0.8c-0.1-0.5-0.4-0.8-0.8-0.8c-0.4,0-0.7,0.3-1.1,1c-0.4,0.7-0.8,1-1.2,1
			c-0.1-1.6-0.4-2.4-1-2.4l-0.2,0l-1,2l-0.2,0l-0.8-0.5c0.7-2.4,1.5-4.8,2.2-7.2c0.8-2.8,1.2-5.2,1.2-7.3c0-0.7-0.2-1.5-0.5-2.5
			c-0.3,0.4-0.7,1.9-1.4,4.5v-2.4c0-1.3,0.2-3.2,0.7-5.7c0.5-2.5,0.8-4.4,0.8-5.6c0-0.2-0.1-0.5-0.2-0.9c-0.2-0.4-0.2-0.7-0.2-0.9
			c0.5-0.6,1.1-1.4,2-2.6l0.5,0.1l0.5,1.5l0.5,0.1l0.5-0.1l0.5-1.5l0.5-0.1l0.5,0.1l0.5,1.5l0.5,0.1l0.5-0.1l0.5-1.5l1.1-0.4v0.7
			c0,1.1-0.2,2.7-0.6,4.9c-0.4,2.2-0.5,3.8-0.5,4.9c0,0.8,0.2,1.8,0.5,3c0.4-0.4,0.8-2.4,1.4-5.8c0.3-2.2,0.7-4.5,1-6.7h0.8
			c0,2.1-0.6,5.5-1.8,10c-1.1,4.3-1.6,7.6-1.5,10v3l0.4,0.1c0.3-0.7,0.8-1.7,1.5-3c0.4,0.7,0.5,1.6,0.4,2.8l1.2,0.2
			c0.1,0,0.4-0.5,1-1.5l1-0.3v1.5l1,0.3l1.8-1.7c0.1,1.1,0.4,1.7,0.9,1.7l0.2,0l1.8-1.7c0,1.1,0.4,1.7,1.2,1.7
			c0.2,0,0.7-0.5,1.2-1.3c0.7-1,1.1-1.6,1.2-1.7v2.7l1,0.3c0.2-0.6,0.5-1.2,0.7-1.8c0.3-0.8,0.7-1.3,1.2-1.3c0,1.3,0.1,2.2,0.2,2.8
			c0.1,1.1,0.3,2,0.5,2.8c0.4-0.3,0.9-1.8,1.5-4.5l0,2.2c0,1.2-0.2,2.7-0.5,4.5c-0.4,2-0.9,3.4-1.5,4.2l-0.2,0l-0.2,0
			c-0.3-1.7-0.8-2.5-1.3-2.5l-0.2,0.1l-1,2.5l-0.5-0.5L104.5,242.3z M79.8,216.8c0-1.2,0.2-2.6,0.6-4.4h1c0,0.2-0.3,2.4-1,6.6
			C79.9,218.6,79.8,217.9,79.8,216.8z M82.3,238.5c-0.4,0.2-0.6,0.5-0.6,1h0.6V238.5z"/>
		<path d="M139.7,242.3l-1.2-0.3c-0.4,0.5-1,1-1.8,1.7c-0.1-1.1-0.4-1.7-0.9-1.7l-0.2,0l-1.5,1.5l-0.2,0c-0.2,0-0.4-0.3-0.5-0.8
			c-0.1-0.5-0.3-0.8-0.8-0.8c-0.4,0-0.7,0.3-1,0.8c-0.3,0.6-0.5,0.8-0.8,0.8c-0.2,0-0.4-0.3-0.5-0.8c-0.1-0.5-0.3-0.8-0.7-0.8
			c-0.4,0-0.7,0.2-0.9,0.5c-0.2,0.4-0.4,0.7-0.6,1l-1,0.3v-1.5l-1-0.3c-0.4,0.5-1,1-1.8,1.7c-0.1-1.1-0.4-1.7-0.9-1.7l-0.2,0
			l-1.5,1.5l-0.2,0c-0.2,0-0.4-0.3-0.5-0.8c-0.1-0.5-0.3-0.8-0.8-0.8c-0.4,0-0.7,0.3-1.1,1c-0.4,0.7-0.8,1-1.2,1
			c-0.1-1.6-0.4-2.4-1-2.4l-0.2,0l-1,2l-0.2,0l-0.8-0.5c0.7-2.4,1.5-4.8,2.2-7.2c0.8-2.8,1.2-5.2,1.2-7.3c0-0.7-0.2-1.5-0.5-2.5
			c-0.3,0.4-0.7,1.9-1.4,4.5v-2.4c0-1.3,0.2-3.2,0.7-5.7c0.5-2.5,0.8-4.4,0.8-5.6c0-0.2-0.1-0.5-0.2-0.9c-0.2-0.4-0.2-0.7-0.2-0.9
			c0.5-0.6,1.1-1.4,2-2.6l0.5,0.1l0.5,1.5l0.5,0.1l0.5-0.1l0.5-1.5l0.5-0.1l0.5,0.1l0.5,1.5l0.5,0.1l0.5-0.1l0.5-1.5l1.1-0.4v0.7
			c0,1.1-0.2,2.7-0.5,4.9c-0.4,2.2-0.6,3.8-0.6,4.9c0,0.8,0.2,1.8,0.5,3c0.4-0.4,0.8-2.4,1.4-5.8c0.3-2.2,0.7-4.5,1-6.7h0.8
			c0,2.1-0.6,5.5-1.8,10c-1.1,4.3-1.6,7.6-1.5,10v3l0.4,0.1c0.3-0.7,0.8-1.7,1.5-3c0.4,0.7,0.5,1.6,0.4,2.8l1.2,0.2
			c0.1,0,0.4-0.5,1-1.5l1-0.3v1.5l1,0.3l1.8-1.7c0.1,1.1,0.4,1.7,0.9,1.7l0.2,0l1.8-1.7c0,1.1,0.4,1.7,1.2,1.7
			c0.2,0,0.7-0.5,1.2-1.3c0.7-1,1.1-1.6,1.2-1.7v2.7l1,0.3c0.2-0.6,0.5-1.2,0.7-1.8c0.3-0.8,0.7-1.3,1.1-1.3c0,1.3,0.1,2.2,0.2,2.8
			c0.1,1.1,0.3,2,0.5,2.8c0.4-0.3,0.9-1.8,1.5-4.5l0.1,2.2c0,1.2-0.2,2.7-0.6,4.5c-0.4,2-0.9,3.4-1.5,4.2l-0.2,0l-0.2,0
			c-0.3-1.7-0.8-2.5-1.3-2.5l-0.2,0.1l-1,2.5l-0.5-0.5L139.7,242.3z M115,216.8c0-1.2,0.2-2.6,0.5-4.4h1.1c0,0.2-0.3,2.4-1.1,6.6
			C115.1,218.6,115,217.9,115,216.8z M117.5,238.5c-0.4,0.2-0.6,0.5-0.6,1h0.6V238.5z"/>
		<path d="M149.9,240.8c0-0.2,0-0.3,0-0.5c0-0.1,0-0.2,0-0.3c0.2,0.1,0.4,0.3,0.5,0.5c0.4,0.7,0.6,2.2,0.6,4.5h-0.6
			c-0.4-0.6-0.5-1.8-0.5-3.5V240.8z M152.5,236l1,3.5l0.2,0.1l0.8-0.6v-7h0.5c0.1,0.4,0.1,0.8,0.2,1.1c0,0.3,0.1,0.5,0.1,0.6
			c0.1,0.7,0.4,1.1,0.8,1.4l0.5-0.5l-0.1-3.8c-0.1-2.4,0.1-3.8,0.6-4.2l1,4l1-1v-7l0.5-0.5c0,0.5,0.1,0.9,0.1,1.2
			c0,0.3,0.1,0.6,0.1,0.7c0.2,0.8,0.4,1.4,0.8,1.6l0.5-0.5v-10.5l0.5-0.5l1,6.5l0.2,0l0.8-0.6v-6.4l1,0.4l0.5,1.5l0.5,0.1l0.5-0.1
			l0.5-1.5l0.5-0.1l0.5,0.1l0.5,1.5l0.5,0.1l0.5-0.1l0.5-1.5l0.5-0.1l0.5,0.1l0.5,1.5l0.5,0c0.8,0,1.2-0.5,1.2-1.6h0.8
			c0.2,1.2,0.4,2.4,0.6,3.6c0.2,1.2,0.4,2.4,0.6,3.7c0.6,3.5,1.4,5.6,2.4,6.3v-1c0-0.4,0-0.8-0.1-1.4c-0.1-0.5-0.1-1.2-0.2-1.9
			c-0.1-0.7-0.1-1.4-0.2-1.9c-0.1-0.5-0.1-1-0.1-1.4c0.6,1.1,1.5,4.2,2.5,9.4c0.9,4.5,1.9,7.2,3,8.1v-1c0-0.3,0-0.8-0.1-1.3
			c-0.1-0.5-0.1-1.1-0.2-1.8c-0.1-0.7-0.1-1.3-0.2-1.8c-0.1-0.5-0.1-0.9-0.1-1.3c0.7,1.1,1.5,3.5,2.3,7.2c0.8,3.5,1.3,6,1.3,7.5
			l-0.7-0.2c-0.1-0.2-0.2-0.3-0.3-0.5c-0.1-0.2-0.2-0.4-0.2-0.5c-0.2-0.3-0.6-0.5-1-0.5c-0.4,0-0.6,0.3-0.7,0.8
			c-0.1,0.5-0.2,0.8-0.5,0.8c-0.3,0-0.5-0.2-0.8-0.8c-0.2-0.5-0.5-0.8-0.9-0.8c-0.8,0-1.2,0.5-1.2,1.6l-1.9-1.6l-0.2,0
			c-0.5,0-0.8,0.5-0.9,1.6c-0.7,0-1.3-1.3-1.9-3.9c-0.6-2.7-1.1-4.3-1.5-4.7l-1,0.2v2.8c-0.2-0.2-0.6-0.8-1.1-1.8
			c-0.5-0.8-1-1.2-1.4-1.2c-0.4,0-0.7,0.3-0.8,0.8c-0.1,0.5-0.2,0.8-0.5,0.8l-0.2,0c-0.1-0.3-0.5-0.8-1-1.5l-1.2,0.2v1.8h-0.8l-1-2
			l-0.8,0.4c-0.1,0.9-0.2,1.6-0.2,2.1c0,0.7,0.2,1.5,0.5,2.7c0.3,1.1,0.5,2,0.5,2.6L163,245c-0.1-0.2-0.2-0.5-0.3-1s-0.4-1.1-0.6-2
			c-0.4-1.4-0.7-2.3-1.1-2.5l-0.5,0.5v5l-1-0.5l-0.5-1l-0.4,0c-0.8,0-1.2,0.5-1.2,1.6c-0.3-0.1-0.6-0.3-1-0.6
			c-0.3-0.3-0.6-0.7-0.9-1l-1,0.3v1.2h-1c-0.5-0.6-0.9-1.8-1.1-3.6c-0.2-1.4-0.4-2.7-0.4-4C152,237,152.1,236.5,152.5,236z
			 M165,231.5h0.5v-1H165V231.5z M167.1,231c0.2,0.4,0.7,0.7,1.5,0.8v-0.7c0-3-0.4-4.9-1.1-5.6L167,226c0,0.2-0.1,0.4-0.1,0.6
			c0,0.2,0,0.5,0,0.8v1.8C166.9,230.1,167,230.7,167.1,231z M170.5,231.5h0.6c0-0.5-0.2-0.8-0.6-1V231.5z M172.4,244.6
			c-0.1,0-0.2-0.3-0.2-0.8c0-0.5,0.1-0.8,0.2-0.8c0.2,0,0.2,0.2,0.2,0.8C172.7,244.3,172.6,244.6,172.4,244.6z M173.4,245
			c0,0.3-0.1,0.5-0.4,0.5c-0.3,0-0.4-0.2-0.4-0.5c0-0.3,0.1-0.5,0.4-0.5C173.2,244.5,173.4,244.7,173.4,245z M175.9,214.5
			c0,0.3-0.1,0.5-0.4,0.5c-0.3,0-0.4-0.2-0.4-0.5c0-0.3,0.1-0.5,0.4-0.5C175.7,214,175.9,214.2,175.9,214.5z M180.9,230
			c-0.1,0-0.2-0.1-0.2-0.2v-0.1c0-0.1,0.1-0.2,0.2-0.2c0.2,0,0.3,0.1,0.3,0.2C181.2,229.9,181.1,230,180.9,230z M186.4,239
			c0,0.3-0.1,0.5-0.4,0.5c-0.3,0-0.4-0.2-0.4-0.5c0-0.3,0.1-0.5,0.4-0.5C186.2,238.5,186.4,238.7,186.4,239z M187,240
			c0,0.3,0,0.7,0,1.3v0.4c0,0.1,0,0.1,0,0.2c0,0.1,0,0.2,0,0.4v0.7c-0.3-0.8-0.5-1.5-0.5-2v-1.5C186.8,239.5,186.9,239.7,187,240z"
			/>
		<path d="M194.1,218l-0.3-0.1l-0.2,0.1l-1,8.5c-0.2-1.6-0.3-3-0.4-4.1c-0.1-1.2-0.1-2.1-0.1-2.9c0-0.8,0-1.7,0.1-2.6
			c0.1-0.9,0.2-1.9,0.4-2.9l0.5-0.1l0.5,0.1l0.5,1.5l0.5,0.1l0.5-0.1l0.5-1.5l0.5-0.1l0.5,0.1l0.5,1.5l0.5,0.1l0.5-0.1l0.5-1.5
			l0.5-0.1l0.5,0.1l0.5,1.5l0.5,0.1l0.5-0.1l0.5-1.5l0.5-0.1l0.5,0.1l0.5,1.5l0.5,0.1l0.5-0.1l0.5-1.5l0.5-0.1l0.5,0.1l0.5,1.5
			l0.5,0.1l0.5-0.1l0.5-1.5l0.5-0.1l0.5,0.1l0.5,1.5l0.5,0.1l0.5-0.1l0.5-1.5l0.5-0.1l0.5,0.1l0.5,1.5l0.5,0.1l0.5-0.1l0.5-1.5
			l1.2-0.5v2.5h1.5v-2h1.5v3.5l1.5,0.5v-3l1.2,1l0,3.5c-0.1,1.5,0.3,2.9,1,4.1c0.1-1,0.2-2,0.4-2.9c0.2-0.9,0.4-1.8,0.6-2.6
			c0.4,0.5,0.6,1.3,0.6,2.2c0,3.2-0.3,6.8-1.1,10.8l-1,1v-5c-0.6,0.8-1.1,1.9-1.5,3.4c-0.3,1.2-0.7,2.4-1,3.6l-1,0.5v-3l-1,0.5
			c-0.1,0.5-0.5,1.3-1,2.5l-0.8,0.4c0-0.4-0.1-0.9-0.1-1.4c-0.1-0.5-0.2-0.8-0.6-1c-0.3,0.3-0.8,1-1.5,2l-0.8,0.3l-0.2-1.3l-0.8-0.6
			c-0.5,0.1-0.9,0.6-1.2,1.6l-0.8,0.3l-0.2-1.3l-1-0.6l-0.5,0.1l-0.5,1.5l-0.8,0.4l-0.2-1.4l-1-0.6l-0.5,0.1c-0.3,1.2-0.6,3.2-0.9,6
			c-0.1,1.3-0.3,2.5-0.5,3.5c-0.2,1-0.4,1.9-0.6,2.6h-0.8c0-1-0.4-1.5-1.2-1.5l-0.5,0l-0.5,1.5l-0.8,0.3l-0.2-1.3l-1-0.5l-0.5,0
			l-0.5,1.5l-0.5,0l-0.5,0l-0.5-1.5l-0.5-0.1l-0.5,0.1l-0.5,1.5l-1,0.3c0.1-1.3,0.2-2.9,0.4-5c0.2-2.1,0.5-4.6,1-7.5
			c0.8-5.4,1.2-9.7,1.2-12.7C194.6,219.3,194.4,218.6,194.1,218z M193.7,240.5c0,0.3,0.1,0.5,0.4,0.5c0.3,0,0.4-0.2,0.4-0.5
			c0-0.3-0.1-0.5-0.4-0.5C193.8,240,193.7,240.2,193.7,240.5z M201.6,239.5c0.4-1.3,0.7-3.2,0.7-5.8v-0.8c-0.8,0.1-1.2,0.6-1.2,1.5
			C201,236.3,201.2,238,201.6,239.5z M202.6,221.5c-0.3,0.3-0.5,0.6-0.5,1c0,0.3,0,0.6,0,1c0,0.4,0,0.8-0.1,1.3
			c0,0.5-0.1,0.9-0.1,1.3c0,0.4,0,0.7,0,1h1.2c0.4-1.8,0.6-3.7,0.6-5.8C203.1,221.2,202.7,221.3,202.6,221.5z M204.6,241.8
			c0,0.1,0,0.3,0.1,0.5v0.8c0,0.7,0,1.2-0.1,1.5c0,0.3-0.2,0.4-0.5,0.5l0.5-3.5C204.6,241.6,204.6,241.7,204.6,241.8z M205.6,221.5
			c-0.5,0.4-0.7,2.2-0.7,5.5h1.2c0.4-0.5,0.7-2.5,0.7-5.9C206.2,221.2,205.8,221.3,205.6,221.5z M208.6,221.5
			c-0.5,0.4-0.7,2.2-0.7,5.5h1.2c0.4-0.5,0.7-2.5,0.7-5.9C209.2,221.2,208.8,221.3,208.6,221.5z M211.6,221.5
			c-0.5,0.7-0.7,2.6-0.7,5.5h1.2c0.4-0.6,0.6-1.8,0.6-3.8v-0.5c0-0.8-0.3-1.2-0.8-1.2C211.7,221.5,211.6,221.5,211.6,221.5z
			 M213.8,224.8c0,0.2,0.1,0.2,0.2,0.2c0.2,0,0.3-0.1,0.3-0.2c0-0.2-0.1-0.2-0.3-0.2C213.9,224.5,213.8,224.6,213.8,224.8z"/>
		<path d="M233.7,244h-0.5c-0.1-0.3-0.3-0.7-0.4-1c-0.1-0.3-0.3-0.6-0.5-1c-0.4-0.8-0.8-1.3-1.1-1.6l-1,0.2v2.3l-1-0.5
			c-1.1-2.1-1.7-4.1-1.8-6h0.8l1,2.5l0.2,0.1l0.2-0.1c0.4-0.6,0.5-1.1,0.5-1.5c0-0.5-0.3-2-1-4.5l0.5-1l1.5,3l0.5-0.5l0-1.7
			c0-1.4-0.5-3.4-1.5-6c-0.5-1.3-0.9-2.5-1.2-3.5c-0.3-1-0.4-1.8-0.3-2.5l0.1-2.2c0.2,0.9,0.7,2.2,1.5,4c0.4-0.6,0.5-1.4,0.5-2.2
			c0-1.2-0.2-2.4-0.5-3.8l0.5-0.5c0.1,0.1,0.4,0.5,0.8,1.2c0.4,0.6,0.7,0.8,1,0.8l0.2,0c0.2-0.4,0.3-0.8,0.5-1.2
			c0-0.3-0.1-0.6-0.2-1.1c-0.2-0.5-0.2-0.9-0.2-1.1l0.5-0.5c0.6,1.3,1.2,2,1.8,2l0.8-0.5l0.2-2.7c0.2,0.1,0.5,0.5,1,1.2
			c0.4,0.7,0.8,1,1.1,1c0.6,0,0.9-0.7,0.9-2.2c0.3,0.1,0.6,0.4,0.9,0.8c0.2,0.3,0.4,0.5,0.6,0.6c0.1,0.1,0.2,0.2,0.3,0.3l1-0.3v-1.5
			l1,0.3c0.2,0.3,0.4,0.7,0.6,1c0.2,0.3,0.5,0.5,0.9,0.5c0.4,0,0.6-0.3,0.7-0.8c0.1-0.6,0.3-0.8,0.5-0.8l1.2,2.1l1.5-0.5V213h0.5
			c0.2,0.8,0.7,1.8,1.5,3l1,0.5l0.5-0.1v-2.6l0.5,0.2c0,0,0.2,0.6,0.6,1.6c0.2,0.7,0.5,1.1,0.9,1.4l1-0.2v-1.9l1,0.5
			c1.1,1.9,1.6,3.6,1.5,5l0,1.5l-1.5-2.5l-0.5,0.5l-0.1,1.5c0,1.2,0.4,2.8,1.3,5c0.9,2.1,1.3,3.6,1.3,4.5l0,1.6
			c-0.2-0.3-0.4-0.9-0.8-1.7c-0.3-0.9-0.8-2-1.2-3.4c-0.9-2.5-1.5-3.9-2-4.3l-0.5,0.5l-0.1,1.7c-0.1,1.6,0.7,3.9,2.2,6.8
			c1.6,3,2.4,5.2,2.4,6.8c-0.2,0.4-0.3,0.8-0.5,1.2l-1.5-2.5l-0.4,0.1c0,0.2,0,0.6-0.1,1.2c-0.1,0.5-0.1,1-0.1,1.2
			c0.2,0.5,0.3,1,0.5,1.5l-0.5,0.5l-1.8-1.5l-0.8,0.8c0.1,0.3,0.1,0.7,0.2,1.2c0.1,0.5,0.2,1,0.3,1.6l-0.9-0.5
			c-0.5-1.1-1-1.6-1.3-1.6c-0.4,0-0.7,0.2-0.8,0.7v1.2c0,0.6-0.2,1-0.5,1.2c-0.2-0.5-0.7-1.1-1.5-2l-1,0.2v1.9
			c-0.4,0-0.7-0.2-1.1-0.6c-0.3-0.4-0.7-0.7-0.9-1l-1,0.3v1.5c-0.5-0.1-0.9-0.3-1.2-0.6c-0.3-0.4-0.6-0.8-0.8-1.2l-1.5,0.4v1.1
			c-0.4,0-0.8-0.3-1.1-0.7c-0.3-0.5-0.6-0.9-0.9-1.3l-1.2,0.4v1.9c-0.5-0.1-1.1-0.8-1.7-2c-0.6-1.2-1.2-1.8-1.5-1.8l-0.5,0.2V244z
			 M233.5,233c0.8,1.7,1.5,2.5,2.3,2.7c-0.1-1.2-0.4-2.5-0.8-3.8c-0.7-1.6-1.5-2.5-2.5-2.6C232.5,230.4,232.8,231.6,233.5,233z
			 M234.6,244.5c0,0.3-0.1,0.5-0.4,0.5c-0.3,0-0.4-0.2-0.4-0.5c0-0.3,0.1-0.5,0.4-0.5C234.5,244,234.6,244.2,234.6,244.5z
			 M237.1,234.6c0.7,1.7,1.3,2.5,1.9,2.5c0.2,0,0.5-0.2,0.8-0.5c-0.6-1.7-1.2-3.3-2-5c-0.4-0.2-0.9-0.3-1.6-0.3
			C236.2,232,236.5,233.2,237.1,234.6z M237.2,223.6c0,0.2,0.4,0.5,1,1c0-0.1,0-0.3,0-0.4v-0.3c0-0.1,0-0.2,0-0.3c0-0.1,0-0.3,0-0.5
			c-0.2-0.5-0.3-0.8-0.5-1c-0.4,0.2-0.6,0.5-0.6,1C237.2,223.2,237.2,223.4,237.2,223.6z M239.6,223.2c0.3,1,0.7,1.6,1.2,1.8
			c0.2,0.1,0.6,0.2,1.1,0.2c0-0.8-0.4-2.2-1.1-4.2h-1.6C239.1,221.6,239.3,222.3,239.6,223.2z M239.9,233.2c0.1,0.5,0.3,1.1,0.5,1.8
			c0.5,1.6,1,2.5,1.4,2.6c0.1,0.1,0.5,0.1,1.2,0.2c0-0.8-0.2-1.8-0.7-3.1c-0.5-1.2-1-2.1-1.5-2.5c-0.1,0-0.4-0.1-1.1-0.2
			C239.7,232.2,239.8,232.7,239.9,233.2z M242.1,220.8c0,0.2,0,0.4,0.1,0.7c0.2,0.5,0.3,1,0.4,1.3c0.1,0.3,0.1,0.5,0.2,0.6
			c0.3,0.9,0.7,1.5,1,1.6c0.2,0.1,0.5,0.1,1.1,0.2c0-0.8-0.1-1.7-0.3-2.6c-0.4-1.2-0.8-1.9-1.2-2.1c-0.2-0.1-0.5-0.1-1.1-0.2
			C242.1,220.5,242.1,220.6,242.1,220.8z M243.7,235.2c0.4,1.1,0.8,1.7,1.1,1.8c0.1,0.1,0.5,0.1,1.2,0.2c0-0.9-0.2-1.9-0.7-2.9
			c-0.4-1.1-0.9-1.8-1.5-2.2c-0.4,0.2-0.6,0.5-0.6,1C243.2,233.5,243.3,234.2,243.7,235.2z M246,223.4c0.4,1.2,0.8,1.9,1.2,2.1
			c0.2,0.1,0.5,0.1,1.1,0.2c0-0.1,0-0.3,0-0.5c0-0.2,0-0.4-0.1-0.7c-0.2-0.9-0.4-1.6-0.6-1.9c-0.3-0.9-0.7-1.5-0.9-1.6
			c-0.2-0.1-0.5-0.1-1.1-0.2C245.6,221.7,245.7,222.5,246,223.4z M246.3,233.3c0,0.1,0.1,0.2,0.1,0.3c0.6,1.7,1.2,2.5,1.9,2.5
			c0-1.6-0.2-2.7-0.6-3.1c-0.1-0.1-0.2-0.2-0.5-0.3c-0.3-0.1-0.4-0.2-0.5-0.2c-0.1,0-0.2,0.1-0.3,0.2c-0.1,0.1-0.2,0.2-0.2,0.3
			C246.2,233.1,246.3,233.2,246.3,233.3z M249.6,224.9c0.3,0.8,0.7,1.4,1.1,1.7c0,0,0.4,0.2,1,0.5c0-0.3,0-0.5,0-0.7
			c0-0.1,0-0.2,0-0.1c0-0.6-0.3-1.5-0.8-2.5c-0.6-1.2-1.2-1.8-1.8-1.8c0,0.3-0.1,0.6-0.1,0.7c0,0.1,0,0.1,0,0
			C249.2,223.4,249.3,224.1,249.6,224.9z M251.6,213.5c0,0.3-0.1,0.5-0.4,0.5c-0.3,0-0.4-0.2-0.4-0.5c0-0.3,0.1-0.5,0.4-0.5
			C251.5,213,251.6,213.2,251.6,213.5z"/>
		<path d="M263.6,244.3c0-0.3,0.5-1.2,1.6-2.7c1-1.5,1.5-2.8,1.5-3.9v-1.3c-0.5,0.4-1,1-1.6,2c-0.6,1-1.1,1.6-1.5,2v-0.2
			c0-0.5,0.5-1.8,1.6-3.8s1.5-3.6,1.5-4.7v-1.2c-0.4,0.2-0.9,0.9-1.6,2V231c0-0.7,0.2-1.7,0.8-3c0.6-1.3,0.8-2.2,0.8-3v-1.5
			c-0.4,0.2-0.9,0.9-1.6,2V224c0-0.7,0.2-1.6,0.8-2.9c0.6-1.3,0.8-2.3,0.8-3l-0.8-0.5c-0.2,0-0.5,0.3-0.9,1c-0.4,0.6-0.7,1-0.8,1.1
			l-0.5-0.5c1-3.4,1.7-5,2.3-5c0.2,0,0.3,0.3,0.4,0.8c0.1,0.5,0.4,0.8,0.8,0.8c0.3,0,0.7-0.3,1.1-0.9c0.4-0.6,0.8-1,1.4-1v1.7l1,0.2
			c0.1,0,0.4-0.5,1-1.5l1-0.3v1.5l1,0.3c0.3-0.3,0.6-0.6,1-1c0.4-0.4,0.7-0.5,1.1-0.5c0,0.7-0.3,1.8-0.8,3.2
			c-0.5,1.5-0.8,2.6-0.8,3.3c0-0.2,0.1,0.8,0.2,3h0.2l2.6-7v1.5c0,1.2-0.5,3-1.5,5.2c-1,2.3-1.6,4-1.6,5.2c0-0.3,0.1,0.5,0.2,2.5
			h0.2l1-2l0.1,1.5c0,0.7-0.2,1.7-0.8,3c-0.6,1.3-0.8,2.2-0.8,3l0,1.5c0.3-0.2,0.8-0.9,1.5-2l0,1c0,0.6-0.1,1.3-0.5,2
			c-0.4,0.8-0.6,1.2-0.6,1.5l0.2,0.7l0.9,0.3c0.6-0.4,1.1-0.9,1.5-1.5v1c0,0.7-0.7,2-2.1,4l-1,0.3v-1.5l-1-0.3
			c-0.4,0.4-0.7,0.8-1.1,1.1c-0.5,0.4-0.9,0.7-1.4,0.7v-1.5l-1-0.3c0,0-0.5,0.5-1.5,1.5l-0.7,0.1l-0.7-0.1l0.4-1l-0.1-0.2l-0.9-0.2
			c-0.5,0.3-1.2,0.8-2,1.6L263.6,244.3z"/>
		<path d="M283.4,239.5l-0.5,2.5c0-0.1,0-0.3-0.1-0.5c0-0.2,0-0.4,0-0.5c0-0.4,0-0.8,0.1-1C283,239.9,283.1,239.7,283.4,239.5z
			 M282.9,219v-4.5c0-0.4,0.4-0.6,1.1-0.6c0,2.4-0.2,4.3-0.6,5.5L282.9,219z M286.4,231.2c0-0.9-0.2-2.3-0.5-4.2
			c-0.4,0.8-0.7,2-0.9,3.5c-0.3,1.8-0.5,3-0.6,3.5l-0.1-5c0-2.6,0.1-5.5,0.4-8.6c0.4-4.3,1.1-6.5,1.9-6.5c0.2,0,0.3,0.3,0.4,0.8
			c0.1,0.5,0.4,0.8,0.8,0.8c0.4,0,0.7-0.3,1-0.8c0.3-0.6,0.5-0.8,0.8-0.8c0.2,0,0.4,0.3,0.5,0.8c0.1,0.5,0.4,0.8,0.8,0.8
			c0.4,0,0.7-0.3,1-0.8c0.3-0.6,0.5-0.8,0.8-0.8c0.2,0,0.4,0.3,0.5,0.8c0.1,0.5,0.4,0.8,0.8,0.8c0.4,0,0.8-0.3,1-0.9
			c0.3-0.6,0.6-0.9,1-0.9v5.2l1,1c0.5-0.3,0.8-1.3,1-3c0.5,0.8,0.8,2.6,1,5.5l0.5,0.5l0.8-0.2v-2.5l1.2,0.7v2.9
			c0,0.8,0.2,1.5,0.6,2.1l0.2,0l1.2-2.5l0.5-0.2v4.7l1,1c0.7-1.1,1.1-3.6,1.3-7.3c0.2-3.9,0.6-6.4,1.2-7.7l0.2-0.1
			c0.2,0,0.3,0.3,0.4,0.8s0.3,0.8,0.8,0.8s0.7-0.2,1-0.5c0.2-0.4,0.3-0.7,0.6-1l0.2,0c0.2,0,0.3,0.3,0.4,0.8s0.3,0.8,0.8,0.8
			s0.7-0.2,1-0.5c0.2-0.4,0.3-0.7,0.6-1l0.2,0c0.2,0,0.3,0.3,0.4,0.8s0.3,0.8,0.8,0.8s0.7-0.2,1-0.5c0.2-0.4,0.3-0.7,0.6-1l0.7-0.2
			c-0.1,2.5-0.4,6.3-1.2,11.6c-0.7,5-1,8.9-1,11.6c0,0.8,0.2,1.8,0.5,3c0.4-0.7,0.8-1.9,1.1-3.4c0.1-1.2,0.3-2.4,0.5-3.6v4.3
			c0,2.9-0.3,5.4-1,7.7h-1v-1.3l-1-0.2c-0.1,0-0.4,0.5-1,1.5l-0.9,0.3l-0.1-1.3l-1.1-0.5l-0.4,0c-0.2,0.3-0.4,0.6-0.6,0.9
			c-0.2,0.3-0.5,0.5-0.8,0.6c0-1-0.4-1.5-1.2-1.5l-0.4,0l-0.5,0.9l-1,0.6v-5l-0.5-0.5c-0.3,0.2-0.6,0.6-0.8,1.2
			c-0.2,0.6-0.5,1-0.8,1.2c-0.4-0.5-0.6-1.1-0.6-2c0-0.3,0-0.8,0.1-1.3c0.1-0.7,0.2-1.1,0.2-1.2l-1.2-0.4c-0.1,0.5-0.4,1.2-1,2
			l-0.5-0.5v-4l-0.8-0.5l-1.2,2.5c-0.4-0.5-0.6-1.3-0.6-2.4c0,0.2,0-0.6,0-2.6l-0.8-0.5l-0.2,0c-0.2,2.4-0.9,4.1-2,5v-0.8
			c0-0.5,0.1-1.4,0.3-2.5c0.2-1.1,0.3-2,0.2-2.6l0-1.2l-1-1c-0.4,1-0.8,2.5-1.1,4.6c-0.3,1.9-0.4,3.5-0.4,4.8c0,0.4,0,1,0.1,1.7
			c0.1,0.8,0.1,1.3,0.1,1.7l0.4,0.2c0.5-0.7,0.8-1.9,1-3.5c0.4,0.6,0.5,1.2,0.5,1.9c0,1.9-0.3,3.8-1,5.5l-0.2,0.1
			c-0.2,0-0.4-0.3-0.5-0.8c-0.1-0.5-0.3-0.8-0.7-0.8c-0.4,0-0.7,0.2-0.9,0.5c-0.2,0.3-0.4,0.7-0.6,1l-1,0.3v-1.6l-1-0.1
			c-0.1,0-0.4,0.5-1,1.5l-0.9,0.3l-0.1-1.3l-1.1-0.5l-0.4,0c-0.2,0.3-0.4,0.6-0.6,1c-0.2,0.3-0.5,0.5-0.9,0.5
			c0.1-1.3,0.5-3.6,1.2-6.9C286.1,235.2,286.4,232.9,286.4,231.2z M305.1,216.5c0,1-0.1,1.5-0.2,1.5c-0.1-0.1-0.1-0.2-0.1-0.5
			c-0.1-0.4-0.1-0.7-0.1-0.9v-0.8c0-0.9,0.1-1.4,0.2-1.4c0.2,0.2,0.2,0.7,0.2,1.5V216.5z M306.9,229.4c0,0.2,0,0.7,0.1,1.6l0.5,0.5
			l0.5-0.5c0.3-2.3,0.5-3.8,0.5-4.5v-2c0-1-0.2-2.3-0.5-4C307.2,223,306.9,226,306.9,229.4z M315.3,218.5c-0.1,0-0.1,0.1-0.1,0.2
			c0,0.2,0,0.2,0.1,0.2c0.2,0,0.4-0.1,0.4-0.2C315.7,218.6,315.6,218.5,315.3,218.5z M318.4,242.5c0,0.1,0,0.3,0,0.5
			c0,0.2,0,0.4,0,0.5c0,0.4,0,0.8,0,1c0,0.2-0.2,0.4-0.5,0.5L318.4,242.5z"/>
		<path d="M332.5,244.5c3.1-0.4,5.4-0.7,7-1l-1-0.8H329l-1-1.5h3.5l-1-1.2c-1.8-0.1-2.8-0.2-3-0.2c-1.2-0.2-2.1-0.7-2.5-1.5h2.8
			l0.2-0.8c0-0.3-0.6-0.6-1.8-0.9c-0.8-0.2-1.5-0.4-2.2-0.6l-0.5-1h2.3l0.2-1c-0.3-0.4-1.1-0.7-2.5-1l-0.1-0.5l0.1-0.5l1.5-0.5
			l0.1-0.5l-0.1-0.5l-1.5-0.5l-0.1-0.5l0.1-0.5l1.5-0.5l0.1-0.5l-0.1-0.5c-0.4-0.2-0.7-0.4-1.1-0.7c-0.4-0.2-0.6-0.6-0.6-1.1h1.7
			c0.3-0.4,0.5-0.8,0.5-1c0-0.1-0.3-0.3-1-0.5s-1.1-0.6-1.1-1l2.6-0.2l0.5-0.5l-0.2-1.2h-2l0.7-1.2h3.5l0.6-0.8l-2.6-1.2l0.5-0.5
			c1.9-0.1,3.3-0.2,4.3-0.3c1.9-0.3,3.2-0.9,3.7-1.7h-6c0.4-0.5,2.3-1.1,5.5-1.7c3-0.6,5-0.9,6.1-0.8l1.4,0
			c-0.5,0.2-0.9,0.4-1.3,0.6c-0.5,0.3-0.9,0.6-1.2,0.9l1.8,0c0.8,0,1.8-0.2,3.1-0.8c1.3-0.6,2.2-0.8,2.8-0.8l1.3,0l-2,1.5v0.2l2,0.2
			c1.2-0.7,2.2-1.1,3.2-1.2c-0.1,0.6-0.5,1.2-1.2,1.7c0,0.6,0.3,0.9,1,1c0.5-0.3,1-0.7,1.6-1c0.6-0.4,1.1-0.5,1.7-0.5l0.8,0l-1.5,2
			l0.8,0.5c0.7-0.2,1.3-0.3,1.8-0.5v1c-0.7,0.7-1.5,1.4-2.2,2c-0.8,0.9-1.4,1.7-1.8,2.5l0.5,0c0.6,0,1.8-0.7,3.5-2v0.2
			c0,1.1-0.9,2.1-2.6,3.2c-0.9,0.5-2.6,1.3-5.2,2.5c-2.1,0.9-3.3,1.6-3.7,2.1l2.1,0c1.2,0,2.6-0.3,4.1-1c1.3-0.7,2.5-1.3,3.8-2
			l0.1,0.5c0,0.5-0.3,1-1.1,1.4c-0.9,0.5-1.4,0.9-1.5,1.1l1.6,0.1c0.7,0.1,2-0.5,3.9-1.6l0.6,0.8l-3.1,3.2l0.5,0.5
			c0.7-0.4,1.2-0.7,1.3-0.8c0.5-0.2,1-0.3,1.5-0.3c-0.1,0.7-0.6,1.4-1.4,2c-1.2,0.9-1.8,1.4-2,1.6l0.2,0.9l0.2,0
			c0.2,0,0.5-0.1,1-0.2c0.5-0.2,0.9-0.2,1.2-0.2c-0.2,0.6-0.9,1.5-2.2,2.5l0.5,0.5l2,0.2v0.8c-2.9,1.7-6.4,3.2-10.7,4.5
			c-4.6,1.4-8.3,2.1-11.3,2.1C335,245.1,333.7,244.9,332.5,244.5z M332.5,231.5l0.5,0.5h2.3c1,0,2.1,0,3.1-0.2
			c1.5-0.3,2.2-0.7,2.2-1.3l-0.1-0.5c-0.3-0.1-0.8-0.3-1.5-0.5l0-0.2c0-0.4,0.2-0.7,0.5-0.8c1.8-0.6,3.6-1.2,5.3-1.8
			c2-0.7,3.7-1.5,5.2-2.2l0.1-0.2c0-0.5-0.3-0.8-1.1-0.8c-0.6,0-2.2,0.5-4.7,1.5c-2.5,1-4.2,1.5-5.3,1.5c-0.5,0-1-0.2-1.5-0.5
			c6.3-1.7,9.8-3,10.5-4l-0.5-0.5l-1,0c-0.6,0-2.5,0.4-5.8,1.3c-2.1,0.6-4.2,1.2-6.2,1.8c-1,0.3-1.6,0.8-1.6,1.5h3.6
			c-0.5,0.6-1.1,1-1.8,1.3c-0.7,0.3-1.4,0.5-2.2,0.7v1c0.5,0.1,0.9,0.2,1.3,0.3c0.5,0.2,0.9,0.4,1.2,0.8c-0.5,0.2-0.9,0.4-1.3,0.6
			C333.1,230.9,332.7,231.2,332.5,231.5z M333.9,234.2c0,0.1,0.1,0.2,0.2,0.4c0.1,0.2,0.2,0.3,0.3,0.3h1.6c0.6,0,1.3-0.1,2.3-0.3
			c1.2-0.2,1.9-0.4,2.1-0.7c0.1-0.2,0.2-0.5,0.3-1.1h-0.7C336,232.9,333.9,233.3,333.9,234.2z M343.1,220.4
			c-1.8,0.1-3.2,0.2-4.1,0.4c-1.8,0.3-2.9,0.9-3.5,1.8c1.1,0,1.6,0,1.5,0c0.7,0,1.7-0.1,2.8-0.3c1.3-0.2,2.2-0.5,2.6-0.7
			C342.8,221.3,343.1,220.9,343.1,220.4z M337,236.5l0.5,0.5c1,0,1.6,0,1.8,0h1.3c0.2,0,0.9,0,1.9,0c0.7,0,1.9-0.4,3.7-1
			c1.9-0.7,2.9-1.3,2.9-1.8c0-0.3-0.2-0.5-0.6-0.8c-0.3,0.1-2.3,0.5-5.8,1.2C340.3,235.3,338.4,235.9,337,236.5z M348.2,245.3
			c-0.2,0-0.2-0.1-0.2-0.3c0-0.1,0.1-0.2,0.2-0.2c0.2,0,0.2,0,0.2,0.2C348.5,245.1,348.4,245.3,348.2,245.3z M358,241
			c-0.4,0.5-1.6,1.2-3.8,2.2c-2.1,0.9-3.5,1.4-4.2,1.4l-0.5,0L358,241z"/>
	</g>
	<g>
		<path d="M53.8,294.9h-0.5c-0.1-0.3-0.3-0.7-0.4-1c-0.1-0.3-0.3-0.6-0.4-1c-0.4-0.8-0.8-1.3-1.2-1.6l-1,0.2v2.3l-1-0.5
			c-1.1-2.1-1.7-4.1-1.8-6h0.8l1,2.5l0.2,0.1l0.2-0.1c0.4-0.6,0.5-1.1,0.5-1.5c0-0.5-0.3-2-1-4.5l0.5-1l1.5,3l0.5-0.5l0-1.7
			c0-1.4-0.5-3.4-1.5-6c-0.5-1.3-0.9-2.5-1.2-3.5c-0.3-1-0.4-1.8-0.3-2.5l0-2.2c0.2,0.9,0.7,2.2,1.5,4c0.4-0.6,0.5-1.4,0.5-2.2
			c0-1.2-0.2-2.4-0.5-3.8l0.5-0.5c0.1,0.1,0.4,0.5,0.8,1.2c0.4,0.6,0.7,0.8,1,0.8l0.2,0c0.2-0.4,0.3-0.8,0.5-1.2
			c0-0.3-0.1-0.6-0.2-1.1c-0.2-0.5-0.2-0.9-0.2-1.1l0.5-0.5c0.6,1.3,1.2,2,1.8,2l0.8-0.5l0.2-2.7c0.2,0.1,0.5,0.5,1,1.2
			c0.4,0.7,0.8,1,1,1c0.6,0,0.9-0.7,1-2.2c0.3,0.1,0.6,0.4,1,0.8c0.2,0.3,0.4,0.5,0.5,0.6c0.1,0.1,0.2,0.2,0.3,0.3l1-0.3v-1.5l1,0.3
			c0.2,0.3,0.4,0.7,0.6,1c0.2,0.3,0.5,0.5,0.9,0.5c0.4,0,0.6-0.3,0.7-0.8c0.1-0.6,0.3-0.8,0.5-0.8l1.2,2.1l1.5-0.5v-1.5h0.5
			c0.2,0.8,0.7,1.8,1.5,3l1,0.5l0.5-0.1v-2.6l0.5,0.2c0,0,0.2,0.6,0.6,1.6c0.2,0.7,0.5,1.1,0.9,1.4l1-0.2v-1.9l1,0.5
			c1.1,1.9,1.6,3.6,1.5,5l0,1.5l-1.5-2.5l-0.5,0.5l0,1.5c0,1.2,0.4,2.8,1.3,5c0.9,2.1,1.3,3.6,1.3,4.5l0,1.6
			c-0.2-0.3-0.4-0.9-0.8-1.7c-0.3-0.9-0.8-2-1.2-3.4c-0.9-2.5-1.5-3.9-2-4.3l-0.5,0.5l0,1.7c-0.1,1.6,0.7,3.9,2.2,6.8
			c1.6,3,2.3,5.2,2.3,6.8c-0.2,0.4-0.3,0.8-0.5,1.2l-1.5-2.5l-0.3,0.1c0,0.2,0,0.6-0.1,1.2s-0.1,1-0.1,1.2c0.2,0.5,0.3,1,0.5,1.5
			l-0.5,0.5l-1.8-1.5l-0.8,0.8c0.1,0.3,0.2,0.7,0.2,1.2c0.1,0.5,0.2,1,0.3,1.6l-1-0.5c-0.5-1.1-0.9-1.6-1.3-1.6
			c-0.4,0-0.7,0.2-0.8,0.7v1.2c0,0.6-0.2,1-0.5,1.2c-0.2-0.5-0.7-1.1-1.5-2l-1,0.2v1.9c-0.4,0-0.7-0.2-1-0.6c-0.3-0.4-0.7-0.7-1-1
			l-1,0.3v1.5c-0.5-0.1-0.9-0.3-1.2-0.6c-0.3-0.4-0.6-0.8-0.8-1.2l-1.5,0.4v1.1c-0.4,0-0.8-0.3-1.1-0.7c-0.3-0.5-0.6-0.9-0.9-1.3
			l-1.2,0.4v1.9c-0.5-0.1-1.1-0.8-1.7-2c-0.6-1.2-1.1-1.8-1.5-1.8l-0.5,0.2V294.9z M53.5,283.9c0.8,1.7,1.5,2.5,2.3,2.7
			c-0.1-1.2-0.4-2.5-0.8-3.8c-0.7-1.6-1.5-2.5-2.5-2.6C52.6,281.3,52.9,282.5,53.5,283.9z M54.7,295.4c0,0.3-0.1,0.5-0.4,0.5
			c-0.3,0-0.4-0.2-0.4-0.5c0-0.3,0.1-0.5,0.4-0.5C54.5,294.9,54.7,295.1,54.7,295.4z M57.1,285.5c0.7,1.7,1.3,2.5,1.9,2.5
			c0.2,0,0.5-0.2,0.8-0.5c-0.6-1.7-1.2-3.3-2-5c-0.4-0.2-0.9-0.3-1.6-0.3C56.3,282.9,56.6,284.1,57.1,285.5z M57.3,274.5
			c0,0.2,0.4,0.5,1,1c0-0.1,0-0.3,0-0.4v-0.3c0-0.1,0-0.2,0-0.3c0-0.1,0-0.3,0-0.5c-0.2-0.5-0.3-0.8-0.5-1c-0.4,0.2-0.5,0.5-0.5,1
			C57.2,274.1,57.2,274.3,57.3,274.5z M59.6,274.1c0.3,1,0.7,1.6,1.2,1.8c0.2,0.1,0.6,0.2,1.1,0.2c0-0.8-0.4-2.2-1.1-4.2h-1.6
			C59.2,272.5,59.3,273.2,59.6,274.1z M59.9,284.1c0.1,0.5,0.3,1.1,0.5,1.8c0.5,1.6,0.9,2.5,1.3,2.6c0.1,0.1,0.5,0.1,1.2,0.2
			c0-0.8-0.2-1.8-0.7-3.1c-0.5-1.2-1-2.1-1.5-2.5c-0.1,0-0.4-0.1-1-0.2C59.8,283.1,59.8,283.6,59.9,284.1z M62.2,271.7
			c0,0.2,0,0.4,0.1,0.7c0.2,0.5,0.3,1,0.4,1.3c0.1,0.3,0.1,0.5,0.2,0.6c0.3,0.9,0.7,1.5,1,1.6c0.2,0.1,0.5,0.1,1.1,0.2
			c0-0.8-0.1-1.7-0.3-2.6c-0.4-1.2-0.8-1.9-1.2-2.1c-0.2-0.1-0.5-0.1-1.1-0.2C62.2,271.4,62.2,271.5,62.2,271.7z M63.7,286.1
			c0.4,1.1,0.8,1.7,1,1.8c0.1,0.1,0.5,0.1,1.2,0.2c0-0.9-0.2-1.9-0.7-2.9c-0.4-1.1-0.9-1.8-1.5-2.2c-0.4,0.2-0.5,0.5-0.5,1
			C63.2,284.4,63.4,285.1,63.7,286.1z M66,274.3c0.4,1.2,0.8,1.9,1.2,2.1c0.2,0.1,0.5,0.1,1.1,0.2c0-0.1,0-0.3,0-0.5
			c0-0.2,0-0.4-0.1-0.7c-0.2-0.9-0.4-1.6-0.5-1.9c-0.3-0.9-0.7-1.5-1-1.6c-0.2-0.1-0.5-0.1-1.1-0.2C65.7,272.6,65.8,273.4,66,274.3z
			 M66.4,284.2c0,0.1,0.1,0.2,0.1,0.3c0.6,1.7,1.2,2.5,2,2.5c0-1.6-0.2-2.7-0.7-3.1c-0.1-0.1-0.2-0.2-0.5-0.3
			c-0.3-0.1-0.4-0.2-0.5-0.2c-0.1,0-0.2,0.1-0.3,0.2c-0.1,0.1-0.2,0.2-0.2,0.3C66.3,284,66.3,284.1,66.4,284.2z M69.7,275.8
			c0.3,0.8,0.7,1.4,1.1,1.7c0,0,0.4,0.2,1,0.5c0-0.3,0-0.5,0-0.7c0-0.1,0-0.2,0-0.1c0-0.6-0.3-1.5-0.8-2.5c-0.6-1.2-1.2-1.8-1.8-1.8
			c0,0.3,0,0.6,0,0.7c0,0.1,0,0.1,0,0C69.2,274.3,69.4,275,69.7,275.8z M71.7,264.4c0,0.3-0.1,0.5-0.4,0.5c-0.3,0-0.4-0.2-0.4-0.5
			c0-0.3,0.1-0.5,0.4-0.5C71.5,263.9,71.7,264.1,71.7,264.4z"/>
		<path d="M90.8,292.2l0,0.2c0,0.2,0.1,0.6,0.2,1.2c0.2,0.6,0.2,1,0.2,1.3l-1-0.5c-0.6-1.5-1.2-2.9-1.8-4.3
			c-0.7-1.7-1.5-3.1-2.2-4.2l0,1.3c0,0.5,0.1,1.2,0.3,2.1c0.2,0.9,0.3,1.6,0.3,2.1c-0.8-0.2-1.7-2.1-2.5-5.5c-0.8-3-1.2-5.2-1.1-6.5
			v-2c0.2,0.8,0.4,1.5,0.6,2.3c0.3,0.9,0.6,1.6,0.9,2.2c0.3-1,0.5-1.8,0.5-2.5c0-0.9-0.2-2.1-0.5-3.8c-0.3-1.6-0.5-2.9-0.5-3.8
			c0-0.4,0.2-0.9,0.5-1.5l1,3l0.2,0l0.8-0.5v-4.5l0.5-0.5l1,2.5l1-1v-3.5h1.2v2H92v-3.5h0.8c0.1,0.6,0.4,1.3,1,2h0.5l0.8-0.5v-2h0.8
			l1,2l0.2,0c0.4,0,0.7-0.3,0.9-1c0.2-0.7,0.4-1,0.6-1l0.2,0c0.2,0.3,0.4,0.7,0.6,1c0.2,0.3,0.5,0.5,0.9,0.5c0.4,0,0.6-0.3,0.7-0.8
			c0.1-0.5,0.3-0.8,0.5-0.8c0.2,0,0.5,0.3,0.8,0.8c0.3,0.5,0.6,0.8,1,0.8c0.4,0,0.7-0.3,0.8-0.8c0.1-0.5,0.3-0.8,0.5-0.8
			c0.3,1.3,1.1,2.2,2.2,2.5l0.5-0.5l0.2-2c0.3,0,0.7,0.5,1.1,1.5c0.5,1.1,0.9,1.8,1.2,2l0.5-0.2v-2.3h1c0.4,1.5,0.6,2.3,0.6,2.5
			c0.3,0.9,0.8,1.6,1.4,2l0.5-0.2v-2.8l1,0.5c1.1,4,1.7,6.9,1.6,8.8c-0.3,0-0.7-0.4-1-1.2c-0.2-0.5-0.4-1.1-0.6-1.6l-0.2,0l-0.2,0
			c-0.4,0.5-0.5,1.1-0.5,1.7c0,0.4,0.1,1,0.3,1.7c0.2,0.8,0.3,1.3,0.4,1.7l-1-0.5c-0.4-0.7-0.7-1.2-1.1-1.5l-1,0.2v1.8h-1
			c-0.6-1.9-0.8-2.9-0.8-3c-0.4-1.1-1-1.9-1.7-2.5l-0.5,0.2v2.8c-0.6-0.5-1-1.1-1.2-1.7c-0.3-0.9-0.5-1.5-0.8-1.8l-1.2,0.4v1.7
			c-0.3-0.2-0.7-0.7-1.2-1.2c-0.5-0.6-0.8-1-1.1-1.2l-1.2,0.2l0.2,1.8l-0.5,0.5c-0.3-1.4-0.8-2-1.4-2l-1,0.5v1.4
			c0,0.5-0.2,1-0.6,1.6c-0.2-0.9-0.6-1.7-1-2.5l-0.3,0l-0.8,0.5v4.8c-0.3,0-0.6-0.4-0.9-1.2c-0.2-0.5-0.4-1-0.6-1.5l-0.2,0l-0.2,0
			l-0.5,1.5c0,1,0.4,2.9,1.3,5.8c0.9,3.1,1.7,4.7,2.2,4.7l0.5-0.1v-3l0.7,0.2c0.3,0.3,0.6,0.9,0.9,1.8c0.3,0.9,0.8,1.6,1.4,2.1
			l0.5-0.1l0-2.4c0.6,0.2,1,0.5,1.2,1c0.3,0.5,0.5,1,0.8,1.5l1-0.4v-2.5c1.2,0.3,2,1.1,2.3,2.5l0.8-0.5l0.2-2.6
			c0.4,0,0.7,0.4,1.1,1.1c0.3,0.7,0.7,1.1,1,1.1l0.7-1c0-0.4-0.1-1-0.2-1.8c-0.2-0.8-0.2-1.4-0.2-1.8l0.5-0.5l1,2.5l0.2,0
			c0.5,0,1-0.8,1.3-2.5l0.2,0l0.2,0c0.8,1.4,1.5,3,2.2,4.8c0.9,2.2,1.3,3.9,1.3,5l-0.5,0.7c-0.9-1.4-1.5-2.1-1.8-2l-0.8,0.8
			c0.2,0.5,0.3,1.2,0.5,2.2l-0.5,0.5l-1.5-2l-1,0.3v2.9c-0.4-0.1-0.8-0.4-1.1-1c-0.4-0.7-0.7-1.1-0.9-1.2l-1,0.5v0.2
			c0,0.4,0.2,1.2,0.5,2.3l-0.5,0.1l-0.5-0.1c-0.2-0.4-0.5-0.8-0.7-1.2c-0.4-0.5-0.7-0.8-1-0.8c-0.6,0-0.9,0.7-1,2.1l-1.8-1.6l-1,0.3
			v1.5l-1-0.3c-0.2-0.4-0.5-0.8-1-1.5l-1,0.1v1.6c-0.6-0.1-1.1-0.5-1.7-1.2c-0.8-1-1.3-1.6-1.3-1.6l-0.5,0.2v2.4h-0.5
			c-0.4-0.7-0.8-1.5-1.2-2.2c-0.4-0.8-0.8-1.4-1.3-1.9L90.8,292.2z M85.2,283.4c-0.3,0-0.4,0.2-0.4,0.5c0,0.3,0.1,0.5,0.4,0.5
			c0.3,0,0.4-0.2,0.4-0.5C85.6,283.6,85.5,283.4,85.2,283.4z M85.7,284.9c-0.3,0-0.4,0.2-0.4,0.5c0,0.3,0.1,0.5,0.4,0.5
			c0.3,0,0.4-0.2,0.4-0.5C86.1,285.1,86,284.9,85.7,284.9z M87.2,291.4c0.3,0,0.4,0.2,0.4,0.5c0,0.3-0.1,0.5-0.4,0.5
			c-0.3,0-0.4-0.2-0.4-0.5C86.8,291.6,86.9,291.4,87.2,291.4z M114.7,281.9c0.3,0,0.4,0.2,0.4,0.5c0,0.3-0.1,0.5-0.4,0.5
			c-0.3,0-0.4-0.2-0.4-0.5C114.3,282.1,114.4,281.9,114.7,281.9z M115.2,283.4l0-0.5c0.4,0.4,0.9,1.3,1.5,2.6c0.6,1.3,1,2.3,1,2.9
			c0,0.3,0,0.8,0,1.2c0-0.3,0,0.1,0,1.2c-0.3-0.4-0.8-1.7-1.5-3.8C115.5,285.1,115.2,283.8,115.2,283.4z M117.2,267.4
			c0.3,0,0.5,0.2,0.5,0.5c0,0.3,0,0.7,0,1.3v0.4c0,0.1,0,0.3,0,0.6c0,0.3,0,0.5,0,0.7c-0.3-0.9-0.5-1.5-0.5-2V267.4z"/>
		<path d="M147.4,292.9l-0.1,0.5c0.2,0.3,0.3,0.5,0.5,0.8c0.2,0.2,0.3,0.5,0.5,0.7H148c-1.1,0-2.3-0.7-3.8-2l-0.9,0.2l-0.1,0.2
			l0.5,1l-0.8,0l-0.8,0l-2-1.5l-0.9,0.2l-0.1,0.2l0.5,1l-0.8,0.1c-0.4,0-0.8-0.2-1.2-0.5c-0.4-0.4-0.7-0.7-1-1l-1,0.3v1.5
			c-0.8,0-1.8-0.6-3-1.8l-0.9,0.2l-0.1,0.2l0.5,1l-0.8,0.1c-0.4,0-0.8-0.2-1.2-0.5c-0.4-0.4-0.7-0.7-1-1l-1,0.3v1.5
			c-0.8-0.1-1.7-0.8-2.8-2.2c-1.1-1.4-1.7-2.5-1.7-3.3l0.5-0.8c0.4,0.6,0.9,1.1,1.5,1.5l0.3-0.2l0.2-1.3c-1.1-1.8-1.6-3.2-1.5-4.2
			l0-0.8l1.5,1.5l0-1.5c0-0.6-0.2-1.5-0.8-2.8c-0.6-1.2-0.8-2.1-0.8-2.7l0-1.5c0.2,0.5,0.7,1.1,1.5,2l0-1.6c0-1.2-0.5-3-1.5-5.2
			c-1.1-2.4-1.6-4.2-1.5-5.4l0-1.8c0.2,0.6,0.5,1.3,0.7,1.9c0.2,0.6,0.4,1.2,0.6,1.9c0.7,1.8,1.2,2.8,1.8,3.2l0-1.8
			c0-0.7-0.1-1.8-0.5-3.2c-0.4-1.4-0.6-2.5-0.6-3.2c0.4,0.1,0.8,0.3,1.1,0.7c0.3,0.3,0.5,0.6,0.7,0.7c0.2,0.2,0.3,0.2,0.3,0.3l1-0.3
			v-1.5l1,0.3c0.1,0.3,0.5,0.8,1,1.5l1-0.2v-1.7c0.6,0.1,1.1,0.4,1.5,1c0.4,0.6,0.8,0.9,1,0.9c0.4,0,0.7-0.3,0.8-0.8
			c0.1-0.6,0.3-0.8,0.5-0.8c0.2,0.2,0.4,0.4,0.7,0.6c0.3,0.3,0.6,0.6,1,0.9l1-0.3v-1.5l1,0.3c0.2,0.3,0.4,0.7,0.6,1
			c0.2,0.3,0.5,0.5,0.9,0.5c0.4,0,0.6-0.3,0.7-0.8c0.1-0.5,0.3-0.8,0.5-0.8c0.2,0.2,0.4,0.4,0.7,0.6c0.3,0.3,0.6,0.6,1,0.9l1-0.3
			v-1.5l1,0.3c0.1,0.3,0.5,0.8,1,1.5l1-0.2v-2.1l1,0.3c0.2,0.5,0.7,1.1,1.5,2c0.4-0.2,0.6-1.2,0.7-3.1c0.4,0,1.1,1,2,2.9
			c0.9,1.8,1.4,3.1,1.4,3.7l-0.1,1c-0.2-0.3-0.3-0.5-0.5-0.8c-0.2-0.2-0.3-0.5-0.5-0.7l-0.5,2c0.2,0.4,0.4,0.9,0.6,1.5
			c0.2,0.6,0.5,1.3,0.9,2l-0.5,0.5c-1.4-1.5-2.5-2.5-3.5-3l0,0.5c0,0.4,0.3,1.3,1,2.5l-1,0.5l-2.5-3.5c-0.6-0.1-0.9,0.3-1,1
			c0.5,0.8,0.9,1.5,1.2,2.2c0.6,1,0.8,1.8,0.8,2.3l0,1l-1-1l-0.5,0.2v1.3c0,1.2,0.7,2.6,2,4.1c0.6,0.6,1.2,1.3,1.8,1.9
			c0.6,0.6,1.2,1.3,1.9,1.9c1.3,1.3,1.9,2.4,1.8,3.3l0,0.8l-1-0.5l-0.2,0.1l-0.2,0.9c0.3,0.4,0.7,0.9,1,1.3c0.4,0.5,0.5,0.9,0.5,1.4
			l0,0.8l-1.5-0.5l-0.5,0.8l1,1.8h-1.5l-3.5-3H147.4z M123.2,292.8c0-0.1,0-0.2,0-0.3c0.5,0.3,1,0.9,1.5,2c-0.2,0-0.3,0-0.5,0
			c-0.1,0-0.1,0,0,0c-0.2,0-0.4,0-0.5,0c-0.2,0-0.3-0.2-0.4-0.5c0-0.2-0.1-0.3-0.1-0.4c0-0.1,0-0.2,0-0.3V292.8z M133.8,285.9
			c0.3,0.8,1,1.2,2.1,1.2c0-0.6-0.5-1.7-1.6-3.2c-0.1,0-0.2-0.1-0.3-0.1c-0.1,0-0.3-0.1-0.5-0.1
			C133.5,284.7,133.6,285.5,133.8,285.9z M134.8,275.4c0.2,0.1,0.6,0.2,1.2,0.2c0-0.5-0.1-0.9-0.2-1.2c-0.6-1.5-1.1-2.5-1.5-3h-0.7
			C133.6,273.7,134,275,134.8,275.4z M134.7,281.6c0,0.1,0,0.2,0,0.3c0.1,0.4,0.6,1.3,1.5,2.7c1,1.4,1.7,2.2,2,2.3
			c0.2,0.1,0.6,0.2,1.1,0.2c0-0.2,0-0.3,0-0.5c0-0.1,0-0.2,0-0.3c-0.1-0.4-0.6-1.3-1.6-2.7c-0.5-0.7-0.9-1.2-1.2-1.6
			c-0.3-0.4-0.6-0.6-0.7-0.7c-0.2-0.1-0.6-0.2-1.1-0.2C134.7,281.3,134.7,281.5,134.7,281.6z M138.3,275.4c0.2,0.1,0.5,0.2,1,0.2
			c0-0.2,0-0.4-0.1-0.8c0-0.3-0.3-1-0.7-1.9c-0.2-0.5-0.3-0.8-0.5-1.1c-0.2-0.3-0.3-0.4-0.3-0.5c0,0-0.2-0.1-0.4-0.2
			c-0.2-0.1-0.4-0.2-0.6-0.3h-0.5c-0.1,0-0.3,0.2-0.5,0.5C136.4,273.2,137.2,274.5,138.3,275.4z M139.8,284.3
			c1.1,1.4,1.9,2.3,2.5,2.7c0.2,0.1,0.6,0.2,1,0.3v-0.8c-1.5-2.6-2.9-4.3-4-5c-0.2-0.1-0.6-0.2-1.2-0.3
			C138.2,281.8,138.7,282.8,139.8,284.3z M139.3,271.9c0.2,0.5,0.5,1.2,1,2c0.3,0.4,0.5,0.7,0.8,1s0.5,0.5,0.7,0.6
			c0.2,0.1,0.5,0.2,1.1,0.2c-0.1-0.8-0.6-2-1.6-3.8c-0.2-0.3-0.5-0.6-1-1c-0.2-0.1-0.6-0.2-1.2-0.2
			C139.1,271,139.2,271.4,139.3,271.9z M144.8,285.9c0.5,0.7,1.2,1.2,2.1,1.2c0-0.7-0.7-1.9-2-3.7c-0.2-0.2-0.3-0.5-0.5-0.7
			c-0.2-0.2-0.3-0.4-0.5-0.7c-0.5-0.5-0.9-0.7-1.4-0.7h-0.2c-0.2,0.1-0.4,0.3-0.5,0.5L144.8,285.9z M143,272.4
			c0,0.1,0.3,0.5,0.9,1.3c0.2,0.4,0.4,0.6,0.4,0.7c0,0.1,0.3,0.1,0.6,0.2c0.1,0.1,0.3,0.1,0.6,0.1c0-1-0.3-2-1-3
			c-0.2-0.2-0.3-0.4-0.4-0.6c-0.1-0.2-0.2-0.2-0.3-0.3c-0.1,0-0.3-0.1-0.4-0.1c-0.2,0-0.4,0-0.7,0C142.7,271.4,142.8,272,143,272.4z
			 M148,285.2c0.9,1.2,1.8,1.8,2.5,2c0-0.1-0.1-0.3-0.1-0.5c0-0.2-0.1-0.4-0.1-0.7c-0.1-0.2-0.2-0.4-0.5-0.8
			c-0.3-0.4-0.6-0.9-1.1-1.4c-0.9-1.2-1.5-1.8-1.7-1.8c-0.3,0-0.5,0.2-0.8,0.5C146.5,283.1,147.1,284.1,148,285.2z M149.2,295.4
			L149.2,295.4c0.4,0,0.5,0.2,0.5,0.5c0,0.3-0.1,0.5-0.4,0.5c-0.3,0-0.4-0.2-0.4-0.5h-0.1c-0.3,0-0.4-0.2-0.4-0.5
			c0-0.3,0.1-0.5,0.4-0.5C149,294.9,149.2,295.1,149.2,295.4z M153,283.9h0.2c0.7,0,1,0.3,1,1v0.2c0,0.1,0,0.2,0,0.2l-1.5-1.5
			C152.9,283.9,153,283.9,153,283.9z M153.7,261.9c0,0.3-0.1,0.5-0.4,0.5c-0.3,0-0.4-0.2-0.4-0.5c0-0.3,0.1-0.5,0.4-0.5
			C153.5,261.4,153.7,261.6,153.7,261.9z M153.7,262.9c-0.1,0-0.2-0.1-0.2-0.2c0-0.2,0-0.2,0.2-0.2c0.2,0,0.3,0.1,0.3,0.2
			C154,262.8,153.9,262.9,153.7,262.9z"/>
		<path d="M160.7,290.4l-0.5,2.5c0-0.1,0-0.3,0-0.5c0-0.2,0-0.4,0-0.5c0-0.4,0-0.8,0-1C160.2,290.8,160.4,290.6,160.7,290.4z
			 M160.2,269.9v-4.5c0-0.4,0.4-0.6,1.2-0.6c0,2.4-0.2,4.3-0.7,5.5L160.2,269.9z M163.7,282.1c0-0.9-0.2-2.3-0.5-4.2
			c-0.4,0.8-0.7,2-0.8,3.5c-0.3,1.8-0.5,3-0.7,3.5l0-5c0-2.6,0.1-5.5,0.4-8.6c0.4-4.3,1.1-6.5,2-6.5c0.2,0,0.3,0.3,0.4,0.8
			c0.1,0.5,0.4,0.8,0.8,0.8c0.4,0,0.7-0.3,1-0.8c0.3-0.6,0.5-0.8,0.8-0.8c0.2,0,0.4,0.3,0.5,0.8c0.1,0.5,0.4,0.8,0.8,0.8
			c0.4,0,0.7-0.3,1-0.8c0.3-0.6,0.5-0.8,0.8-0.8c0.2,0,0.4,0.3,0.5,0.8c0.1,0.5,0.4,0.8,0.8,0.8c0.4,0,0.8-0.3,1-0.9
			c0.3-0.6,0.6-0.9,1-0.9v5.2l1,1c0.5-0.3,0.8-1.3,1-3c0.5,0.8,0.8,2.6,1,5.5l0.5,0.5l0.8-0.2v-2.5l1.2,0.7v2.9
			c0,0.8,0.1,1.5,0.5,2.1l0.2,0l1.2-2.5l0.5-0.2v4.7l1,1c0.7-1.1,1.1-3.6,1.3-7.3c0.2-3.9,0.6-6.4,1.2-7.7l0.2-0.1
			c0.2,0,0.3,0.3,0.5,0.8c0.1,0.5,0.3,0.8,0.8,0.8c0.4,0,0.7-0.2,1-0.5c0.2-0.4,0.3-0.7,0.5-1l0.2,0c0.2,0,0.3,0.3,0.5,0.8
			c0.1,0.5,0.3,0.8,0.8,0.8c0.4,0,0.7-0.2,1-0.5c0.2-0.4,0.3-0.7,0.5-1l0.2,0c0.2,0,0.3,0.3,0.4,0.8c0.1,0.5,0.3,0.8,0.8,0.8
			c0.4,0,0.7-0.2,1-0.5c0.2-0.4,0.3-0.7,0.6-1l0.7-0.2c-0.1,2.5-0.4,6.3-1.2,11.6c-0.7,5-1,8.9-1,11.6c0,0.8,0.2,1.8,0.5,3
			c0.4-0.7,0.8-1.9,1.1-3.4c0.1-1.2,0.3-2.4,0.5-3.6v4.3c0,2.9-0.3,5.4-1,7.7h-1v-1.3l-1-0.2c-0.1,0-0.4,0.5-1,1.5l-0.8,0.3
			l-0.2-1.3l-1-0.5l-0.5,0c-0.2,0.3-0.3,0.6-0.5,0.9c-0.2,0.3-0.5,0.5-0.8,0.6c0-1-0.4-1.5-1.2-1.5l-0.5,0l-0.5,0.9l-1,0.6v-5
			l-0.5-0.5c-0.3,0.2-0.5,0.6-0.8,1.2c-0.2,0.6-0.5,1-0.8,1.2c-0.4-0.5-0.5-1.1-0.5-2c0-0.3,0-0.8,0.1-1.3c0.1-0.7,0.2-1.1,0.2-1.2
			l-1.2-0.4c-0.1,0.5-0.4,1.2-1,2l-0.5-0.5v-4l-0.8-0.5l-1.2,2.5c-0.4-0.5-0.6-1.3-0.6-2.4c0,0.2,0-0.6,0-2.6l-0.8-0.5l-0.2,0
			c-0.2,2.4-0.9,4.1-2,5v-0.8c0-0.5,0.1-1.4,0.3-2.5c0.2-1.1,0.3-2,0.2-2.6l0-1.2l-1-1c-0.4,1-0.8,2.5-1.1,4.6
			c-0.3,1.9-0.4,3.5-0.4,4.8c0,0.4,0,1,0.1,1.7s0.1,1.3,0.1,1.7l0.3,0.2c0.5-0.7,0.8-1.9,1-3.5c0.4,0.6,0.5,1.2,0.5,1.9
			c0,1.9-0.3,3.8-1,5.5l-0.2,0.1c-0.2,0-0.4-0.3-0.5-0.8c-0.1-0.5-0.3-0.8-0.7-0.8c-0.4,0-0.7,0.2-0.9,0.5c-0.2,0.3-0.4,0.7-0.6,1
			l-1,0.3v-1.6l-1-0.1c-0.1,0-0.4,0.5-1,1.5l-0.8,0.3l-0.2-1.3l-1-0.5l-0.5,0c-0.2,0.3-0.4,0.6-0.6,1c-0.2,0.3-0.5,0.5-0.9,0.5
			c0.1-1.3,0.5-3.6,1.1-6.9C163.4,286.1,163.7,283.8,163.7,282.1z M182.4,267.4c0,1-0.1,1.5-0.2,1.5c-0.1-0.1-0.1-0.2-0.1-0.5
			c-0.1-0.4-0.1-0.7-0.1-0.9v-0.8c0-0.9,0.1-1.4,0.2-1.4c0.2,0.2,0.2,0.7,0.2,1.5V267.4z M184.1,280.3c0,0.2,0,0.7,0,1.6l0.5,0.5
			l0.5-0.5c0.3-2.3,0.5-3.8,0.5-4.5v-2c0-1-0.2-2.3-0.5-4C184.5,273.9,184.1,276.9,184.1,280.3z M192.6,269.4
			c-0.1,0-0.2,0.1-0.2,0.2c0,0.2,0,0.2,0.2,0.2c0.2,0,0.3-0.1,0.3-0.2C192.9,269.5,192.8,269.4,192.6,269.4z M195.7,293.4
			c0,0.1,0,0.3,0,0.5c0,0.2,0,0.4,0,0.5c0,0.4,0,0.8,0,1c0,0.2-0.2,0.4-0.5,0.5L195.7,293.4z"/>
		<path d="M225.2,292.9l-0.1,0.5c0.2,0.3,0.3,0.5,0.5,0.8c0.2,0.2,0.3,0.5,0.5,0.7h-0.2c-1.1,0-2.3-0.7-3.8-2l-0.9,0.2l-0.1,0.2
			l0.5,1l-0.8,0l-0.8,0l-2-1.5l-0.9,0.2l-0.1,0.2l0.5,1l-0.8,0.1c-0.4,0-0.8-0.2-1.2-0.5c-0.4-0.4-0.7-0.7-1-1l-1,0.3v1.5
			c-0.8,0-1.8-0.6-3-1.8l-0.9,0.2l-0.1,0.2l0.5,1l-0.8,0.1c-0.4,0-0.8-0.2-1.2-0.5c-0.4-0.4-0.7-0.7-1-1l-1,0.3v1.5
			c-0.8-0.1-1.7-0.8-2.8-2.2c-1.1-1.4-1.7-2.5-1.7-3.3l0.5-0.8c0.4,0.6,0.9,1.1,1.5,1.5l0.3-0.2l0.2-1.3c-1.1-1.8-1.6-3.2-1.6-4.2
			l0.1-0.8l1.5,1.5l0-1.5c0-0.6-0.2-1.5-0.8-2.8c-0.6-1.2-0.8-2.1-0.8-2.7l0.1-1.5c0.2,0.5,0.7,1.1,1.5,2l0-1.6c0-1.2-0.5-3-1.5-5.2
			c-1.1-2.4-1.6-4.2-1.6-5.4l0.1-1.8c0.2,0.6,0.4,1.3,0.7,1.9c0.2,0.6,0.4,1.2,0.6,1.9c0.7,1.8,1.2,2.8,1.8,3.2l0-1.8
			c0-0.7-0.1-1.8-0.5-3.2c-0.4-1.4-0.6-2.5-0.6-3.2c0.4,0.1,0.8,0.3,1.1,0.7c0.3,0.3,0.5,0.6,0.7,0.7c0.2,0.2,0.3,0.2,0.3,0.3l1-0.3
			v-1.5l1,0.3c0.1,0.3,0.5,0.8,1,1.5l1-0.2v-1.7c0.6,0.1,1.1,0.4,1.4,1c0.4,0.6,0.8,0.9,1.1,0.9c0.4,0,0.7-0.3,0.8-0.8
			c0.1-0.6,0.3-0.8,0.5-0.8c0.2,0.2,0.4,0.4,0.7,0.6c0.3,0.3,0.7,0.6,1.1,0.9l1-0.3v-1.5l1,0.3c0.2,0.3,0.4,0.7,0.6,1
			c0.2,0.3,0.5,0.5,0.9,0.5c0.4,0,0.6-0.3,0.7-0.8c0.1-0.5,0.3-0.8,0.5-0.8c0.2,0.2,0.4,0.4,0.7,0.6c0.3,0.3,0.7,0.6,1.1,0.9l1-0.3
			v-1.5l1,0.3c0.1,0.3,0.5,0.8,1,1.5l1-0.2v-2.1l1,0.3c0.2,0.5,0.7,1.1,1.5,2c0.4-0.2,0.6-1.2,0.7-3.1c0.4,0,1.1,1,2,2.9
			c0.9,1.8,1.4,3.1,1.4,3.7l-0.1,1c-0.2-0.3-0.3-0.5-0.5-0.8c-0.2-0.2-0.3-0.5-0.5-0.7l-0.5,2c0.2,0.4,0.4,0.9,0.6,1.5
			c0.2,0.6,0.5,1.3,0.9,2l-0.5,0.5c-1.4-1.5-2.5-2.5-3.5-3l-0.1,0.5c0,0.4,0.3,1.3,1.1,2.5l-1,0.5l-2.5-3.5c-0.6-0.1-0.9,0.3-1,1
			c0.5,0.8,0.9,1.5,1.2,2.2c0.6,1,0.8,1.8,0.8,2.3l0,1l-1-1l-0.5,0.2v1.3c0,1.2,0.7,2.6,2,4.1c0.6,0.6,1.2,1.3,1.8,1.9
			c0.6,0.6,1.2,1.3,1.8,1.9c1.3,1.3,1.9,2.4,1.8,3.3l0,0.8l-1-0.5l-0.2,0.1l-0.2,0.9c0.3,0.4,0.7,0.9,1,1.3c0.4,0.5,0.5,0.9,0.5,1.4
			l0,0.8l-1.5-0.5l-0.6,0.8l1.1,1.8h-1.5l-3.5-3H225.2z M201,292.8c0-0.1,0.1-0.2,0.1-0.3c0.5,0.3,1,0.9,1.5,2c-0.2,0-0.3,0-0.5,0
			c-0.1,0-0.1,0,0,0c-0.2,0-0.4,0-0.6,0s-0.3-0.2-0.4-0.5c0-0.2-0.1-0.3-0.1-0.4c0-0.1,0-0.2,0-0.3V292.8z M211.6,285.9
			c0.3,0.8,1,1.2,2.1,1.2c0-0.6-0.5-1.7-1.6-3.2c-0.1,0-0.2-0.1-0.3-0.1c-0.1,0-0.3-0.1-0.5-0.1
			C211.3,284.7,211.4,285.5,211.6,285.9z M212.6,275.4c0.2,0.1,0.6,0.2,1.2,0.2c0-0.5-0.1-0.9-0.2-1.2c-0.6-1.5-1.1-2.5-1.5-3h-0.7
			C211.5,273.7,211.8,275,212.6,275.4z M212.5,281.6c0,0.1,0,0.2,0.1,0.3c0.1,0.4,0.6,1.3,1.5,2.7c1,1.4,1.7,2.2,2,2.3
			c0.2,0.1,0.6,0.2,1.1,0.2c0-0.2-0.1-0.3-0.1-0.5c0-0.1,0-0.2,0-0.3c-0.1-0.4-0.6-1.3-1.6-2.7c-0.5-0.7-0.9-1.2-1.2-1.6
			c-0.3-0.4-0.6-0.6-0.7-0.7c-0.2-0.1-0.6-0.2-1.1-0.2C212.5,281.3,212.5,281.5,212.5,281.6z M216.1,275.4c0.2,0.1,0.5,0.2,1,0.2
			c0-0.2,0-0.4-0.1-0.8c-0.1-0.3-0.3-1-0.7-1.9c-0.2-0.5-0.3-0.8-0.5-1.1c-0.2-0.3-0.3-0.4-0.3-0.5c0,0-0.2-0.1-0.4-0.2
			c-0.2-0.1-0.4-0.2-0.6-0.3h-0.5c-0.1,0-0.3,0.2-0.5,0.5C214.2,273.2,215,274.5,216.1,275.4z M217.6,284.3c1.1,1.4,1.9,2.3,2.5,2.7
			c0.2,0.1,0.6,0.2,1,0.3v-0.8c-1.5-2.6-2.9-4.3-4-5c-0.2-0.1-0.6-0.2-1.2-0.3C216,281.8,216.5,282.8,217.6,284.3z M217.1,271.9
			c0.2,0.5,0.5,1.2,1.1,2c0.3,0.4,0.5,0.7,0.8,1c0.2,0.3,0.4,0.5,0.7,0.6c0.2,0.1,0.5,0.2,1.1,0.2c-0.1-0.8-0.6-2-1.6-3.8
			c-0.2-0.3-0.5-0.6-1-1c-0.2-0.1-0.6-0.2-1.2-0.2C216.9,271,217,271.4,217.1,271.9z M222.6,285.9c0.5,0.7,1.2,1.2,2.1,1.2
			c0-0.7-0.7-1.9-2-3.7c-0.2-0.2-0.3-0.5-0.5-0.7c-0.2-0.2-0.3-0.4-0.5-0.7c-0.5-0.5-0.9-0.7-1.4-0.7h-0.2c-0.2,0.1-0.4,0.3-0.5,0.5
			L222.6,285.9z M220.8,272.4c0,0.1,0.3,0.5,0.9,1.3c0.2,0.4,0.4,0.6,0.4,0.7c0,0.1,0.3,0.1,0.6,0.2c0.1,0.1,0.3,0.1,0.6,0.1
			c0-1-0.3-2-1-3c-0.2-0.2-0.3-0.4-0.4-0.6c-0.1-0.2-0.2-0.2-0.3-0.3c-0.1,0-0.3-0.1-0.4-0.1c-0.2,0-0.4,0-0.7,0
			C220.5,271.4,220.6,272,220.8,272.4z M225.9,285.2c0.9,1.2,1.8,1.8,2.4,2c0-0.1-0.1-0.3-0.1-0.5c0-0.2-0.1-0.4-0.1-0.7
			c-0.1-0.2-0.2-0.4-0.5-0.8c-0.3-0.4-0.6-0.9-1.1-1.4c-0.9-1.2-1.5-1.8-1.7-1.8c-0.3,0-0.6,0.2-0.8,0.5
			C224.4,283.1,225,284.1,225.9,285.2z M227,295.4L227,295.4c0.4,0,0.5,0.2,0.5,0.5c0,0.3-0.1,0.5-0.4,0.5c-0.3,0-0.4-0.2-0.4-0.5
			h-0.1c-0.3,0-0.4-0.2-0.4-0.5c0-0.3,0.1-0.5,0.4-0.5C226.9,294.9,227,295.1,227,295.4z M230.9,283.9h0.2c0.7,0,1,0.3,1,1v0.2
			c0,0.1,0,0.2,0,0.2l-1.5-1.5C230.7,283.9,230.8,283.9,230.9,283.9z M231.5,261.9c0,0.3-0.1,0.5-0.4,0.5c-0.3,0-0.4-0.2-0.4-0.5
			c0-0.3,0.1-0.5,0.4-0.5C231.4,261.4,231.5,261.6,231.5,261.9z M231.5,262.9c-0.1,0-0.2-0.1-0.2-0.2c0-0.2,0-0.2,0.2-0.2
			c0.2,0,0.3,0.1,0.3,0.2C231.9,262.8,231.7,262.9,231.5,262.9z"/>
		<path d="M237.7,293.9c0-0.2,0-0.3,0-0.5c0.3,0.5,0.5,1,0.5,1.5v1c-0.3-0.2-0.5-0.3-0.5-0.5c0-0.2,0-0.5,0-1V293.9z M238.8,289.6
			c0.2-0.4,0.3-0.8,0.5-1.3c0.2,0.5,0.4,1.1,0.6,1.7c0.2,0.6,0.5,1,0.9,1.3l0.1-2.4c0-0.5,0-1.2-0.2-1.9c-0.2-0.8-0.4-1.6-0.6-2.6
			c-0.3-1-0.5-1.9-0.6-2.7c-0.2-0.8-0.2-1.4-0.2-2l0-2.1l1.5,3.5l0.1-2.8c0-0.9-0.1-1.9-0.2-3c-0.2-1.2-0.5-2.5-0.8-3.9
			c-0.9-3.3-1.4-5.7-1.5-6.9c0.5,0.1,0.9,0.4,1.2,0.9c0.5,0.8,0.8,1.2,0.8,1.3c0.8-0.6,1.2-1.4,1.2-2.2c0.2,0.2,0.5,0.4,0.9,0.8
			c0.2,0.2,0.4,0.4,0.5,0.6c0.2,0.1,0.3,0.3,0.3,0.3l1-0.3v-1.5l1,0.3c0.2,0.3,0.4,0.7,0.6,1c0.2,0.4,0.5,0.5,0.9,0.5
			c0.4,0,0.6-0.3,0.7-0.8c0.1-0.5,0.3-0.8,0.5-0.8l0.2,0.1c0.2,0.3,0.4,0.7,0.6,1c0.2,0.4,0.5,0.5,0.9,0.5c0.4,0,0.6-0.3,0.7-0.8
			c0.1-0.5,0.3-0.8,0.5-0.8l0.2,0.1c0.2,0.3,0.4,0.7,0.6,1c0.2,0.4,0.5,0.5,0.9,0.5c0.4,0,0.6-0.3,0.7-0.8c0.1-0.5,0.3-0.8,0.5-0.8
			c0.3,0,0.5,0.3,0.8,0.8c0.2,0.5,0.6,0.8,1,0.8c0.8,0,1.2-0.6,1.2-1.7c0.3,0.1,0.6,0.3,1,0.7c0.5,0.6,0.8,0.9,0.8,1l1-0.3v-1.3
			c0.4,0,0.8,0.3,1.1,0.8c0.3,0.5,0.6,0.9,0.9,1.4l1-0.4v-2l1,0.4c0.1,0.1,0.2,0.3,0.3,0.6c0.1,0.3,0.3,0.7,0.5,1.2
			c0.4,0.8,0.8,1.3,1.2,1.7l0.5-0.2v-2.9c0.7,0.2,1.7,2.5,2.8,6.9c1.1,4,1.7,6.7,1.7,7.9l-0.1,0.5l-0.5-0.2c-0.1-0.3-0.2-0.6-0.4-1
			c-0.2-0.4-0.4-0.9-0.6-1.5l-0.2-0.1l-0.2,0.1c-0.3,0.5-0.5,1-0.5,1.5c0,0.2,0,0.5,0.1,0.8c0,0.3,0.1,0.6,0.2,1
			c0.1,0.3,0.1,0.7,0.2,1c0,0.3,0.1,0.6,0.1,0.8l-0.5,0.5l-1-2l-0.2,0c-0.6,0-0.8,0.4-0.8,1.3c0,1.1,0.6,3.2,1.8,6.4
			c0.7,1.7,1.2,3.1,1.5,4.3c0.4,1.2,0.6,2,0.7,2.6l-0.5,0l-0.5,0c-0.2-0.3-0.4-0.7-0.6-1c-0.2-0.3-0.5-0.5-0.9-0.5
			c-0.7,0-1.1,0.5-1.2,1.6l-1.8-1.6l-1,0.3v1.4c-0.4-0.1-0.8-0.4-1.3-0.9c-0.2-0.2-0.4-0.4-0.6-0.6c-0.2-0.2-0.4-0.4-0.6-0.7
			l-0.5,0.2v2l-1-0.2c-0.3-0.5-0.6-1.2-0.9-2.2c-0.4-1-0.8-2.3-1.2-3.9c-0.8-2.6-1.7-4.6-2.8-5.8l-0.4,0.1l-0.1,1.4
			c0,0.2,0,0.4,0.1,0.7c0,0.3,0.1,0.5,0.2,0.8c0.1,0.3,0.1,0.6,0.2,0.8c0,0.3,0.1,0.5,0.1,0.7c-0.2-0.2-0.7-1-1.6-2.5
			c-0.7-1.3-1.3-2-1.7-2c-0.4,0-0.6,0.4-0.8,1.3c-0.2,1.1-0.4,1.7-0.5,1.8l-1.5-3l-0.4,0.1l-0.1,2.1c-0.1,1.2,0.3,2.8,1.2,5
			c1,2.4,1.5,4,1.5,5c-0.8,0-1.6-0.7-2.2-2.2c-0.3,0-0.5,0.3-0.7,1c-0.2,0.7-0.4,1-0.6,1l-1.8-1.5l-1,0.3v1.5l-1-0.2
			c-0.1-0.3-0.5-0.8-1-1.5l-1,0.2v1.6l-1-0.2c-0.2-0.4-0.4-0.8-0.6-1.3c-0.2-0.5-0.4-1.1-0.7-1.8C239,291.3,238.8,290.3,238.8,289.6
			z M240.8,269.9v-1h-0.6C240.2,269.4,240.4,269.7,240.8,269.9z M249.3,277.9c0.2,0.1,0.6,0.1,1.2,0.2c0-1.8-0.4-3.6-1.2-5.2
			c-0.2-0.3-0.6-0.5-1.2-0.6C248.1,275.7,248.5,277.5,249.3,277.9z M251.1,275.3c0.4,1.6,0.8,2.5,1.2,2.6c0.1,0.1,0.5,0.1,1.2,0.2
			c0-0.8-0.2-1.8-0.5-3.1c-0.3-1.5-0.8-2.4-1.2-2.6c-0.2-0.1-0.5-0.1-1.2-0.2C250.6,273,250.8,274,251.1,275.3z M253.9,273.5
			c0.1,0.5,0.2,1,0.4,1.7c0.3,1.2,0.7,2.1,1,2.7c0.1,0,0.3,0,0.5,0c0,0,0.1,0,0.1,0c0.1,0,0.2,0,0.4,0c0.2-0.1,0.4-0.3,0.5-0.5
			c-0.3-1.2-0.5-2.1-0.8-2.7c-0.5-1.4-0.9-2.2-1.2-2.3c-0.2-0.1-0.5-0.1-1.1-0.2C253.7,272.6,253.8,273,253.9,273.5z M255.2,289.4
			c-0.1,0-0.2-0.1-0.2-0.2v-0.1c0-0.1,0.1-0.2,0.2-0.2c0.2,0,0.3,0.1,0.3,0.2C255.5,289.3,255.4,289.4,255.2,289.4z M259,278
			c0.2,0,0.5-0.2,0.8-0.5v-0.2c0-0.4-0.2-1.2-0.6-2.3c-0.4-1.2-0.7-2-0.9-2.4c-0.1,0-0.3,0-0.4,0c-0.5,0-0.9,0.2-1.1,0.5
			C257.5,276.3,258.2,278,259,278z M260.3,292.9c0.3-0.2,0.5-0.4,0.5-0.5v-0.5c0-0.2-0.2-0.5-0.5-1.1c-0.2-0.3-0.6-0.5-1-0.5
			C259.3,291.7,259.7,292.6,260.3,292.9z M261.3,276.4c0.1,0,0.2,0,0.3,0c0.1,0,0.3,0,0.5,0c0-1.2-0.1-2.1-0.3-2.6
			c-0.2-0.4-0.5-0.7-1-1c-0.1,0-0.3-0.1-0.6-0.2C260.2,274.9,260.6,276.1,261.3,276.4z M264.3,286.4c0.7,1.2,1.4,2,2,2.5
			c0-0.2,0.1-0.3,0.1-0.3v-0.2c0-0.3-0.2-1.2-0.7-2.5c-0.5-1.4-0.8-2.3-0.9-2.5c-0.2-0.3-0.3-0.5-0.5-0.5c-0.7,0.2-1,0.4-1,0.7
			C263.2,284.3,263.6,285.3,264.3,286.4z M270.2,269.4c-0.1,0-0.2-0.1-0.2-0.2c0-0.2,0.1-0.2,0.2-0.2c0.2,0,0.3,0.1,0.3,0.2
			C270.5,269.3,270.4,269.4,270.2,269.4z M272.3,293.7v0.7c0,0.2-0.1,0.4-0.1,0.6c-1.3-2.2-2-4-2-5.5
			C271.7,290.5,272.3,291.9,272.3,293.7z M270.7,271.5c-0.1,0-0.2-0.2-0.2-0.7v-0.2c0-0.5,0.1-0.7,0.2-0.7c0.2,0,0.3,0.3,0.3,0.8
			S270.9,271.5,270.7,271.5z"/>
		<path d="M287.2,293.7c1-0.1,1.9-0.5,2.5-1.3c-0.3-0.4-1.1-0.7-2.5-1l0-0.2l0.5-0.8l2.3,0.2l0.2-1.2c-0.1-0.2-0.6-0.5-1.5-1l0-0.2
			c0-0.2,0.3-0.3,0.8-0.5c0.5-0.1,0.8-0.3,0.8-0.8c0-0.6-0.5-1.1-1.6-1.6l-0.6-1l1.9,0l0.2-1c-0.2-0.3-0.9-0.7-2.1-1.1
			c-1.2-0.4-2-0.9-2.4-1.4h2.8l0.2-0.5c-0.5-0.6-1.4-1.1-2.8-1.5c-1.4-0.4-2.3-0.9-2.8-1.5h2.8l0.2-0.5c-0.5-0.6-1.5-1.2-3-1.8
			s-2.5-1.1-3-1.8h0.2c0.2,0,1,0.2,2.2,0.5l1-0.5c-0.7-0.8-1.8-1.5-3.3-2.1c-2.1-0.8-3.4-1.2-3.7-1.4l-0.1-0.5l0.1-0.5l3.5,1
			l0.5-0.5c-0.5-0.5-1.1-1-1.8-1.3c-0.8-0.4-1.5-0.8-2.2-1.2v-1c0.4,0,1.1,0.1,2.2,0.3c0.9,0.2,1.6,0.2,2.2,0.2l2.6,0l-3.5-1.5l2,0
			c1,0,2.6,0.2,4.6,0.6c2.2,0.5,3.7,1,4.4,1.5l0.1,0.2l-0.1,0.2c-1.7,0.3-2.5,0.7-2.5,1.3l0,0.2c0.4,0.1,1.3,0.4,2.8,0.8
			c1.5,0.4,2.3,0.7,2.5,0.7c1.2,0,2.9-0.2,5.3-0.5l0.1-0.2c0-0.5-0.8-1-2.6-1.2v-1c0.8-0.4,2.7-0.5,5.8-0.5c2.8,0,5.7,0.3,8.7,1
			l0.1,0.2l-0.1,0.2c-0.3,0.2-1.1,0.4-2.4,0.7c-1.1,0.2-1.8,0.4-2.1,0.8l0.2,0.8h3.3c-0.5,0.7-1.2,1.2-2.3,1.3
			c-0.9,0.1-1.8,0.3-2.7,0.4l-1,1.2h3l-0.5,1.5h-4l-0.5,1.2l0.1,0.3h2.9l-1,1.2c-0.7,0.1-1.4,0.2-2.2,0.2c-1,0.1-1.6,0.4-1.8,0.8
			l0.2,0.8h2.5c0,0.9-0.6,1.4-2,1.5c-1.5,0.1-2.4,0.3-2.7,0.8l0.2,0.8h2.3l-0.5,1.2h-2.3l-0.2,1c0,0.1,0.5,0.4,1.5,1l0.3,1h-1.7
			l-0.2,1c0.3,0.4,0.8,0.7,1.6,1l0.5,1h-1.9l-0.2,1c0.3,0.5,1.3,0.8,3,1v1c-0.9,0.2-1.3,0.2-1.3,0.2c-0.5,0.2-0.9,0.4-1.2,0.8
			l0.2,0.8h2.5c0,0.8-0.3,1.2-1.1,1.2c-2.5,0-6.7-0.5-12.6-1.5V293.7z M289.6,270.8c0,1.4,1.8,2.1,5.3,2.1c0.2,0,0.5,0,0.9,0
			c0.4,0,0.7,0,0.8,0c0.4-0.2,0.6-0.5,0.6-0.8l-0.1-0.2C293.8,271.2,291.2,270.8,289.6,270.8z M292.1,274.2c0,0.2,0.1,0.5,0.3,1
			c0.6,0.5,1.2,0.8,1.8,0.8c0.2,0,0.3,0,0.5,0c0.4-0.1,0.6-0.3,0.6-0.8c0-0.1-0.1-0.3-0.2-0.5c-0.1-0.2-0.2-0.3-0.3-0.3
			c-0.3,0-0.7,0-1.3-0.1C292.9,274.2,292.4,274.2,292.1,274.2z M296.7,265.4l0.5-0.5h13.5l0.5,0.5c-0.8,0.4-2,0.6-3.5,0.6
			C302.1,266,298.5,265.8,296.7,265.4z"/>
	</g>
	<g>
		<g>
			<path fill="none" stroke="#000000" stroke-width="3" stroke-miterlimit="10" d="M216.7,151.5"/>
			<path fill="none" stroke="#000000" stroke-width="3" stroke-miterlimit="10" d="M213.7,2.2"/>
			<line fill="none" stroke="#000000" stroke-width="3" stroke-miterlimit="10" x1="270.8" y1="88.1" x2="185.7" y2="175.6"/>
			<line fill="none" stroke="#000000" stroke-width="3" stroke-miterlimit="10" x1="270.6" y1="1.6" x2="185.7" y2="89.3"/>
			<path fill="none" stroke="#000000" stroke-width="3" stroke-miterlimit="10" d="M270.6,40V1.6h-38.7c-1.2-0.1-2.5,0-3.7,0
				c-23.5,0-42.5,18.8-42.5,42.1c0,23.4,19.1,42.3,42.5,42.3c23.5,0,42.4-18.9,42.4-42.3C270.6,42.4,270.7,41.2,270.6,40z"/>
			<path fill="none" stroke="#000000" stroke-width="3" stroke-miterlimit="10" d="M185.9,137.5v38.4h38.7c1.2,0.1,2.5,0,3.7,0
				c23.5,0,42.5-18.8,42.5-42.1c0-23.4-19-42.3-42.5-42.3c-23.5,0-42.4,18.9-42.4,42.3C185.9,135,185.8,136.2,185.9,137.5z"/>
			<line fill="none" stroke="#000000" stroke-width="3" stroke-miterlimit="10" x1="185.9" y1="133.1" x2="185.9" y2="48"/>
			<line fill="none" stroke="#000000" stroke-width="3" stroke-miterlimit="10" x1="270.6" y1="45.4" x2="270.8" y2="132.3"/>
			<line fill="none" stroke="#000000" stroke-width="3" stroke-miterlimit="10" x1="175" y1="1.5" x2="88.9" y2="89.4"/>
			<line fill="none" stroke="#000000" stroke-width="3" stroke-miterlimit="10" x1="175" y1="175.6" x2="89" y2="89.3"/>
		</g>
		<path fill="none" stroke="#000000" stroke-width="3" stroke-miterlimit="10" d="M147.8,1.5c0,0-0.4,0-1.7,0h-0.3h-28.9
			C102.5,1.5,90.5,13,88.4,28c-0.2,1.6-0.3,3.1-0.3,4.8v55.8v55.8c0,1.6,0.1,3.2,0.3,4.8c2.1,15,14.1,26.5,28.5,26.5h28.9h0.3
			c1.3,0,1.7,0,1.7,0c3.2,0,10.7,0,27.1,0c0-37.7,0-23.1,0-31.3V88.6V32.8c0-8.3,0,6.4,0-31.3C158.5,1.5,151,1.5,147.8,1.5z"/>
	</g>
</g>
</svg>
