<svg xmlns="http://www.w3.org/2000/svg" viewBox="0 958.5 1024 851" enable-background="new 0 958.5 1024 851"><g fill="#ffffff"><path d="M21.284 1647.277l-.285.57c0 .57.284 1.713.57 3.426.57 1.712.856 2.854.856 3.71l-2.854-1.427c-1.712-4.28-3.425-8.276-5.137-12.272-1.998-4.852-4.28-8.847-6.28-11.986v3.71c0 1.427.286 3.425.857 5.993s1.142 4.567 1.142 5.994c-2.283-.57-4.852-5.993-7.135-15.696-2.284-8.562-3.426-14.84-3.14-18.55v-5.71c.57 2.284 1.14 4.282 1.71 6.565.857 2.568 1.713 4.566 2.57 6.278.856-2.853 1.427-5.136 1.427-7.134 0-2.568-.57-5.993-1.427-10.845-.856-4.565-1.427-8.275-1.427-10.845 0-1.142.57-2.568 1.427-4.28l2.854 8.562h.57l2.284-1.427v-12.843l1.427-1.428 2.854 7.135 2.853-2.854v-9.702h3.425v5.708h4.28v-9.99h2.284c.286 1.714 1.142 3.71 2.854 5.71h1.427l2.283-1.428v-5.708h2.283l2.853 5.708h.57c1.143 0 2-.856 2.57-2.854.57-1.997 1.142-2.854 1.712-2.854h.57c.572.856 1.142 1.998 1.713 2.854.57.856 1.427 1.428 2.57 1.428s1.71-.856 1.997-2.283c.286-1.43.856-2.284 1.427-2.284s1.427.855 2.283 2.283c.856 1.426 1.712 2.282 2.854 2.282s1.997-.856 2.282-2.283c.286-1.43.856-2.284 1.427-2.284.855 3.71 3.138 6.278 6.278 7.135l1.427-1.426.57-5.708c.857 0 2 1.427 3.426 4.28 1.428 3.14 2.57 5.138 3.14 5.708l1.427-.57v-6.28h2.854c1.143 4.282 1.713 6.565 1.713 7.137.856 2.57 2.283 4.566 3.996 5.708l1.426-.57v-7.99l2.854 1.426c3.14 11.416 4.852 19.692 4.566 25.115-.856 0-1.998-1.143-2.854-3.426-.57-1.427-1.142-3.14-1.712-4.566h-1.142c-1.142 1.427-1.427 3.14-1.427 4.852 0 1.142.286 2.854.857 4.852.57 2.283.856 3.71 1.142 4.852l-2.855-1.427c-1.142-1.997-1.998-3.425-3.14-4.28l-2.853.57v5.137h-2.854c-1.712-5.422-2.283-8.276-2.283-8.562-1.142-3.14-2.568-5.423-4.852-7.135l-1.427.57v7.99c-1.712-1.426-2.854-3.138-3.425-4.85-.855-2.57-1.426-4.28-2.282-5.138l-3.424 1.14v4.853c-.856-.57-1.998-1.998-3.425-3.425-1.428-1.713-2.284-2.854-3.14-3.425l-3.426.57.57 5.138-1.426 1.428c-.856-3.995-2.283-5.708-3.996-5.708l-2.854 1.427v3.996c0 1.427-.57 2.854-1.712 4.566-.57-2.57-1.712-4.853-2.854-7.136h-.856l-2.283 1.427v13.7c-.856 0-1.712-1.142-2.57-3.425l-1.71-4.28H28.99l-2 3.14c0 2.853 1.143 8.275 3.71 16.552 2.57 8.848 4.853 13.414 6.28 13.414l1.427-.285v-8.562l1.998.57c.856.856 1.712 2.57 2.57 5.138.855 2.57 2.282 4.567 3.994 5.994l1.426-.285v-6.85c1.712.57 2.854 1.426 3.425 2.853.857 1.428 1.428 2.854 2.284 4.28l2.854-1.14v-7.136c3.424.856 5.708 3.14 6.564 7.135l2.283-1.427.57-7.42c1.143 0 2 1.14 3.14 3.14.856 1.997 1.998 3.14 2.854 3.14l1.997-2.855c0-1.142-.285-2.854-.57-5.137-.57-2.283-.57-3.995-.57-5.137l1.426-1.428 2.854 7.135h.57c1.428 0 2.855-2.282 3.71-7.135h1.142c2.283 3.996 4.28 8.562 6.28 13.7 2.567 6.277 3.71 11.13 3.71 14.27l-1.428 1.997c-2.568-3.995-3.996-5.993-5.137-5.708l-2.283 2.283c.57 1.427.856 3.425 1.427 6.28l-1.428 1.426-4.28-5.708-2.855.856v8.276c-1.142-.286-2.283-1.142-3.14-2.854-1.14-1.997-1.997-3.14-2.568-3.425l-2.855 1.43v.57c0 1.14.57 3.424 1.427 6.563l-1.427.285-1.427-.285c-.57-1.142-1.427-2.283-1.998-3.425-1.142-1.427-1.998-2.283-3.14-2.283-1.71 0-2.568 1.997-2.568 5.993l-5.137-4.566-2.854.856v4.28l-2.853-.855c-.57-1.142-1.427-2.283-2.854-4.28l-2.854.284v4.566c-1.713-.285-3.14-1.427-4.853-3.425-2.283-2.854-3.71-4.566-3.71-4.566l-1.427.57v6.85h-1.427c-1.142-1.997-2.283-4.28-3.14-6.278-1.14-2.283-2.567-3.995-3.995-5.422l-2.854.855zm-15.697-25.114c-.856 0-1.142.57-1.142 1.427s.286 1.427 1.142 1.427c.856 0 1.142-.57 1.142-1.427s-.572-1.427-1.143-1.427zm1.427 4.28c-.856 0-1.142.57-1.142 1.428 0 .856.285 1.428 1.142 1.428.856 0 1.142-.57 1.142-1.427 0-.855-.57-1.427-1.142-1.427zm4.28 18.55c.857 0 1.143.572 1.143 1.43 0 .854-.285 1.426-1.142 1.426-.856 0-1.142-.572-1.142-1.428 0-.857.286-1.428 1.142-1.428zm78.485-27.11c.855 0 1.14.57 1.14 1.426 0 .855-.285 1.427-1.14 1.427s-1.143-.57-1.143-1.428c0-.857.286-1.428 1.142-1.428zm1.14 4.28v-1.427c1.142 1.14 2.568 3.71 4.28 7.42s2.855 6.564 2.855 8.276c0 .856.286 2.283.286 3.425 0-.856 0 .285-.285 3.425-.856-1.142-2.283-4.852-4.28-10.845-1.713-5.422-2.855-9.132-2.855-10.274zm5.994-45.663c.856 0 1.427.57 1.427 1.427 0 .855.286 1.997.286 3.71v1.142c0 .284 0 .855-.285 1.71v2c-.855-2.57-1.426-4.282-1.426-5.71v-4.28zM114.323 1596.763c0 3.71-.57 7.706-1.427 11.416v-8.85c0-3.994.57-6.85 1.427-8.56v5.993zm25.97 56.794c-.57 1.997-1.14 2.854-1.71 2.854-1.143 0-1.713-2.853-1.428-8.56l-2.283-1.428c-1.427 0-2.568 2.283-3.424 7.135l-2.283-1.428v-11.416l-2.283-1.428c-1.142.856-1.998 3.14-2.854 7.136l-2.854-2.854.285-10.845c0-2.568-.572-4.852-1.713-6.28-1.427 2.284-2.568 5.71-2.854 9.99h-1.142c-.57-.856-.855-1.998-1.426-2.854 0-7.137.856-15.983 2.57-26.543.855-4.28 1.426-8.848 2.282-13.13.856-4.28 1.427-8.846 2.283-13.127l2.853-2.854v9.703l1.427.284c1.142 0 2.283-2.568 3.425-7.705.285-1.714.856-3.14 1.142-4.854.285-1.427.57-3.14 1.142-4.852l2.853-1.427v8.276l1.427.285c1.427 0 2.854-3.424 4.28-9.988l2.855-1.427v6.563l2.854.57c1.14-.855 1.997-3.14 2.853-7.134l1.427-.286c1.142 0 1.998.856 2.57 2.854s1.14 2.854 1.71 2.854 1.143-.855 1.713-2.854 1.427-2.854 2.568-2.854l1.428.286 1.427 4.28 1.427.286 1.427-.286 1.426-4.28 1.427-.286c1.142 0 1.712.856 2.283 2.283.856 1.997 1.427 3.14 1.998 3.424l2.283-.57v-4.566h4.28v7.135h4.282v-5.708h2.567c0 2.568.286 4.566.57 5.708.287 1.998 1.428 3.425 3.14 4.28 1.143-.855 2-3.14 2.855-7.134h.57l2.284 1.426v9.988l2.854 2.854c.57-2.568.57-3.996.57-3.71.287-1.428 1.143-2.57 2.284-3.14l2.283 1.427v15.697l2.283 1.427c1.427-2.284 2.283-5.994 2.854-11.417 1.142 1.427 1.712 3.71 1.712 6.278 0 11.988-1.998 29.11-5.993 52.23l-2.854 2.853V1637l-1.428-.286c-.856 0-2.283 2.854-3.995 8.276-1.712 5.708-3.425 9.133-4.566 10.274l.286-3.425-.285-3.426-2.282-1.427c-1.427 0-2.57 1.998-3.425 5.708-1.142 3.995-2.568 5.708-4.28 5.708v-6.564l-1.428-.57c-1.427 1.14-2.283 2.282-2.854 3.424-.284.57-.284 1.427-.57 1.712-.285.57-.57 1.142-.57 1.998l-2.284.856-.57-3.996-2.855-1.427h-1.426l-1.427 4.28-2.283.856-.57-3.995-2.855-1.427h-1.428c-.285.57-.285.856-.57 1.428-.286.57-.572.856-.572 1.427-.57 1.142-1.427 1.713-2.283 1.713-.57 0-.856-.856-1.712-2.854-.57-1.997-1.427-2.854-2.568-2.854-.856 3.995-2.283 5.993-4.28 5.993 0-1.142-.287-2.283-.287-2.854v-1.43c-.285-1.71-1.427-2.853-3.425-2.853-2-.565-2.856.292-3.14 2.29zm-1.14-32.82c.284.57.57.854.57 1.426H141.434c2-7.135 3.14-15.982 3.14-25.972-1.427 0-2.283.572-3.14 1.43-.57 1.14-1.426 3.424-1.997 7.42-.57 3.71-.856 6.277-.856 8.275v5.708c.285.857.285 1.142.57 1.713zm8.56 11.7h.572c1.712-7.705 3.71-21.404 5.708-41.382-.856-1.142-1.427-1.427-2.283-1.427-1.713 0-3.425 5.422-4.852 16.268-1.142 8.847-1.712 15.41-1.712 20.263V1631.01c1.427.856 1.998 1.428 2.568 1.428zm9.42 2.57c1.71-9.705 3.138-18.552 4.28-26.543.856-7.99 1.427-14.84 1.712-21.12-2.283 0-3.71.57-4.566 2-.572 1.426-1.713 8.846-3.14 21.974-1.712 12.843-2.57 20.55-2.57 23.688h4.282zm7.705-31.68c-.57 3.995-1.142 7.135-1.427 9.703-1.426 9.133-1.997 17.124-2.282 23.973 2.283 0 3.71-.57 4.566-1.712.285-.57.856-2.853 1.427-6.277s1.428-8.562 2-14.84c.855-6.28 1.426-11.417 1.71-15.127.287-3.996.572-6.564.572-7.99-.856-1.143-1.712-1.428-2.854-1.428h-1.427c-.855 5.137-1.71 9.703-2.282 13.7zm7.135 31.964c1.998 0 3.425-5.136 4.852-15.695 1.142-8.277 1.712-15.126 1.712-19.98v-.57s0-2.567-.286-5.137c-.855-1.14-1.426-1.427-2.282-1.427h-.57c-1.143 4.567-2.284 10.56-3.14 17.125-.856 6.85-1.712 14.84-2.57 24.26 1.143.856 1.714 1.426 2.285 1.426zm9.418-22.26c-.57 4.28-1.14 9.418-1.71 15.126 3.994 0 6.277-6.85 6.277-20.264 0-2.283-.57-3.995-1.712-5.707H182.533c-.287 2.854-.572 6.564-1.143 10.845zm29.967 8.562c0 .285 0 .856.285 1.428v2.282c0 3.996-.57 6.85-1.712 8.562v-2.854c0-2.854.57-6.278 1.427-9.988v.57zM297.833 1650.132l-3.425-.856c-1.142 1.427-2.854 2.854-5.423 4.852-.285-3.14-1.142-4.852-2.568-4.852h-.57l-4.282 4.28h-.57c-.572 0-1.143-.855-1.428-2.282-.285-1.428-1.142-2.283-2.283-2.283s-1.998.856-2.854 2.284c-.856 1.712-1.427 2.283-2.283 2.283-.57 0-1.142-.856-1.427-2.283-.285-1.428-.856-2.283-1.998-2.283s-1.998.57-2.57 1.428c-.57 1.142-1.14 1.998-1.71 2.854l-2.855.856v-4.28l-2.854-.856c-1.142 1.427-2.854 2.854-5.422 4.852-.284-3.14-1.14-4.852-2.567-4.852h-.57l-4.282 4.28h-.57c-.57 0-1.142-.855-1.427-2.282-.286-1.428-1.142-2.283-2.283-2.283s-1.998.855-3.14 2.854-2.282 2.855-3.424 2.855c-.286-4.566-1.142-6.85-2.854-6.85h-.57l-2.855 5.708h-.57l-2.284-1.427c1.998-6.85 4.28-13.7 6.28-20.548 2.282-7.99 3.424-14.84 3.424-20.834 0-1.998-.57-4.28-1.427-7.135-.856 1.14-1.998 5.42-3.996 12.842v-6.85c0-3.71.57-9.133 1.998-16.268 1.427-7.135 2.283-12.558 2.283-15.982 0-.57-.286-1.427-.57-2.568-.572-1.142-.572-1.998-.572-2.568 1.427-1.713 3.14-3.996 5.708-7.42l1.428.284 1.427 4.28 1.427.286 1.427-.285 1.426-4.28 1.427-.285 1.427.285 1.427 4.28 1.427.286 1.427-.285 1.428-4.28 3.14-1.142v1.998c0 3.14-.572 7.706-1.713 13.984-1.142 6.28-1.427 10.846-1.427 13.984 0 2.283.57 5.138 1.427 8.562 1.142-1.142 2.283-6.85 3.996-16.554.857-6.278 2-12.843 2.855-19.12h2.283c0 5.992-1.712 15.695-5.137 28.538-3.14 12.272-4.565 21.69-4.28 28.54v8.562l1.14.286c.857-1.998 2.284-4.853 4.282-8.562 1.142 1.998 1.427 4.566 1.142 7.99l3.425.572c.284 0 1.14-1.428 2.853-4.28l2.854-.857v4.282l2.854.856 5.138-4.853c.286 3.14 1.142 4.853 2.57 4.853h.57l5.137-4.853c0 3.14 1.142 4.853 3.424 4.853.57 0 1.997-1.428 3.424-3.71 1.998-2.855 3.14-4.567 3.425-4.853v7.706l2.853.857c.57-1.713 1.427-3.425 1.998-5.138.857-2.284 2-3.71 3.426-3.71 0 3.71.285 6.277.57 7.99.285 3.14.856 5.708 1.427 7.99 1.142-.855 2.57-5.137 4.28-12.842v6.278c0 3.425-.57 7.706-1.426 12.843-1.142 5.707-2.568 9.702-4.28 11.985h-1.142c-.856-4.852-2.283-7.135-3.71-7.135l-.57.286-2.855 7.135-1.427-1.427.57-6.56zm-70.493-72.777c0-3.425.57-7.42 1.712-12.558h2.854c0 .57-.856 6.85-2.854 18.837-1.427-1.14-1.712-3.14-1.712-6.28zm7.135 61.93c-1.142.572-1.712 1.43-1.712 2.855h1.712v-2.854zM398.292 1650.132l-3.425-.856c-1.142 1.427-2.854 2.854-5.138 4.852-.286-3.14-1.143-4.852-2.57-4.852h-.57l-4.28 4.28h-.57c-.57 0-1.142-.855-1.428-2.282-.285-1.428-.856-2.283-2.283-2.283-1.143 0-1.998.856-2.855 2.284-.856 1.712-1.427 2.283-2.283 2.283-.57 0-1.142-.856-1.427-2.283-.286-1.428-.856-2.283-1.998-2.283s-1.998.57-2.568 1.428c-.572 1.142-1.143 1.998-1.714 2.854l-2.854.856v-4.28l-2.854-.856c-1.142 1.427-2.854 2.854-5.137 4.852-.284-3.14-1.14-4.852-2.567-4.852h-.57l-4.282 4.28h-.57c-.57 0-1.14-.855-1.426-2.282-.285-1.428-.856-2.283-2.283-2.283-1.14 0-1.997.855-3.14 2.854s-2.282 2.855-3.424 2.855c-.285-4.566-1.142-6.85-2.854-6.85h-.57l-2.855 5.708h-.57l-2.284-1.427c1.998-6.85 4.28-13.7 6.28-20.548 2.282-7.99 3.424-14.84 3.424-20.834 0-1.998-.57-4.28-1.428-7.135-.856 1.14-1.998 5.42-3.996 12.842v-6.85c0-3.71.57-9.133 1.998-16.268s2.283-12.558 2.283-15.982c0-.57-.286-1.427-.57-2.568-.57-1.142-.57-1.998-.57-2.568 1.426-1.713 3.138-3.996 5.707-7.42l1.427.284 1.426 4.28 1.427.286 1.428-.285 1.428-4.28 1.427-.285 1.427.285 1.427 4.28 1.427.286 1.427-.285 1.427-4.28 3.14-1.142v1.998c0 3.14-.57 7.706-1.426 13.984-1.142 6.28-1.713 10.846-1.713 13.984 0 2.283.572 5.138 1.428 8.562 1.142-1.142 2.283-6.85 3.996-16.554.856-6.278 1.997-12.843 2.854-19.12h2.283c0 5.992-1.71 15.695-5.136 28.538-3.14 12.272-4.566 21.69-4.28 28.54v8.562l1.14.286c.857-1.998 2.284-4.853 4.282-8.562 1.142 1.998 1.427 4.566 1.142 7.99l3.425.572c.285 0 1.142-1.428 2.854-4.28l2.854-.857v4.282l2.855.856 5.138-4.853c.285 3.14 1.14 4.853 2.568 4.853h.57l5.14-4.853c0 3.14 1.14 4.853 3.424 4.853.57 0 1.997-1.428 3.424-3.71 1.998-2.855 3.14-4.567 3.425-4.853v7.706l2.854.857c.57-1.713 1.427-3.425 1.998-5.138.855-2.284 1.997-3.71 3.14-3.71 0 3.71.284 6.277.57 7.99.285 3.14.856 5.708 1.427 7.99 1.142-.855 2.568-5.137 4.28-12.842l.286 6.278c0 3.425-.57 7.706-1.713 12.843-1.142 5.707-2.568 9.702-4.28 11.985h-1.14c-.857-4.852-2.284-7.135-3.71-7.135l-.572.286-2.854 7.135-1.43-1.427.282-6.56zm-70.493-72.777c0-3.425.57-7.42 1.426-12.558h3.14c0 .57-.856 6.85-3.14 18.837-1.142-1.14-1.427-3.14-1.427-6.28zm7.134 61.93c-1.142.572-1.712 1.43-1.712 2.855h1.712v-2.854zM427.402 1645.85v-2.282c.57.285 1.142.856 1.427 1.427 1.14 1.998 1.71 6.28 1.71 12.843h-1.71c-1.143-1.712-1.428-5.137-1.428-9.988v-2zm7.42-13.7l2.854 9.99.57.285 2.284-1.712v-19.978h1.427c.285 1.14.285 2.283.57 3.14 0 .855.286 1.426.286 1.712.285 1.997 1.142 3.14 2.283 3.995l1.427-1.427-.285-10.845c-.285-6.85.285-10.846 1.712-11.987l2.854 11.416 2.854-2.855v-19.98l1.428-1.426c0 1.426.285 2.567.285 3.424s.286 1.713.286 1.998c.57 2.283 1.142 3.995 2.283 4.566l1.426-1.427v-29.966l1.427-1.427 2.854 18.55h.57l2.283-1.712v-18.266l2.854 1.14 1.427 4.282 1.428.285 1.427-.285 1.428-4.28 1.427-.286 1.427.285 1.427 4.282 1.428.285 1.427-.285 1.426-4.28 1.427-.286 1.427.285 1.428 4.282h1.427c2.283 0 3.425-1.427 3.425-4.566h2.283l1.712 10.274c.57 3.425 1.142 6.85 1.713 10.56 1.712 9.99 3.995 15.982 6.85 17.98v-2.855c0-1.142 0-2.283-.286-3.995-.285-1.428-.285-3.425-.57-5.423s-.285-3.995-.57-5.423c-.286-1.427-.286-2.854-.286-3.995 1.713 3.14 4.28 11.985 7.135 26.826 2.57 12.843 5.424 20.55 8.563 23.117v-2.854c0-.856 0-2.284-.286-3.71-.285-1.428-.285-3.14-.57-5.138-.285-1.998-.285-3.71-.57-5.138-.286-1.427-.286-2.568-.286-3.71 2 3.14 4.282 9.99 6.565 20.55 2.283 9.987 3.71 17.123 3.71 21.403l-1.998-.57c-.285-.57-.57-.856-.855-1.427-.286-.57-.57-1.143-.57-1.428-.57-.855-1.713-1.427-2.855-1.427s-1.713.856-1.998 2.283-.572 2.283-1.428 2.283-1.428-.57-2.283-2.282c-.572-1.427-1.43-2.283-2.57-2.283-2.282 0-3.424 1.427-3.424 4.566l-5.423-4.565h-.57c-1.428 0-2.283 1.427-2.57 4.566-1.996 0-3.71-3.71-5.42-11.13-1.714-7.705-3.14-12.27-4.282-13.413l-2.853.57v7.99c-.57-.57-1.712-2.282-3.14-5.136-1.426-2.282-2.853-3.424-3.995-3.424s-1.997.856-2.283 2.283c-.286 1.426-.57 2.282-1.428 2.282h-.57c-.286-.856-1.427-2.283-2.854-4.28l-3.425.57v5.137h-2.283l-2.854-5.71-2.283 1.143c-.285 2.568-.57 4.566-.57 5.993 0 1.998.57 4.28 1.427 7.706.855 3.14 1.427 5.708 1.427 7.42l-1.142 2.568c-.285-.57-.57-1.427-.856-2.854s-1.143-3.14-1.713-5.708c-1.142-3.995-1.998-6.564-3.14-7.135l-1.427 1.427v14.27l-2.854-1.427-1.427-2.854h-1.143c-2.283 0-3.425 1.426-3.425 4.565-.856-.286-1.713-.856-2.854-1.713-.856-.856-1.713-1.998-2.57-2.854l-2.853.855v3.425h-2.854c-1.426-1.712-2.567-5.137-3.138-10.273-.57-3.996-1.142-7.706-1.142-11.416-.004-1.134.28-2.56 1.422-3.99zm35.675-12.84h1.427v-2.855h-1.427v2.854zm5.993-1.428c.57 1.142 1.998 1.998 4.28 2.283v-1.998c0-8.562-1.14-13.984-3.14-15.98l-1.426 1.426c0 .57-.286 1.142-.286 1.712V1612.746c0 2.567.287 4.28.572 5.136zm9.703 1.427h1.713c0-1.428-.57-2.284-1.713-2.855v2.854zm5.423 37.385c-.285 0-.57-.855-.57-2.283 0-1.427.285-2.283.57-2.283.57 0 .57.57.57 2.282.287 1.428 0 2.283-.57 2.283zm2.854 1.142c0 .856-.285 1.428-1.142 1.428-.855 0-1.142-.57-1.142-1.428 0-.855.286-1.427 1.142-1.427.57 0 1.142.57 1.142 1.427zm7.134-87.045c0 .855-.285 1.427-1.142 1.427-.855 0-1.14-.572-1.14-1.428s.284-1.428 1.14-1.428c.572 0 1.142.572 1.142 1.428zm14.27 44.236c-.285 0-.57-.286-.57-.57v-.286c0-.285.285-.57.57-.57.57 0 .856.285.856.57 0 .57-.285.856-.855.856zm15.697 25.686c0 .855-.284 1.427-1.14 1.427s-1.143-.57-1.143-1.426.286-1.428 1.142-1.428c.57 0 1.14.57 1.14 1.428zm1.714 2.853v8.561c-.856-2.284-1.428-4.28-1.428-5.708v-4.28c.857 0 1.142.57 1.428 1.425zM553.547 1580.78l-.856-.285-.57.285-2.853 24.26c-.57-4.567-.855-8.563-1.142-11.702-.285-3.425-.285-5.993-.285-8.276s0-4.852.285-7.42c.286-2.57.57-5.423 1.142-8.277l1.428-.285 1.427.285 1.427 4.28 1.426.286 1.427-.284 1.428-4.28 1.428-.286 1.427.285 1.427 4.28 1.428.286 1.427-.284 1.427-4.28 1.427-.286 1.43.285 1.426 4.28 1.427.286 1.427-.284 1.427-4.28 1.428-.286 1.427.285 1.427 4.28 1.426.286 1.428-.284 1.427-4.28 1.428-.286 1.427.285 1.428 4.28 1.427.286 1.427-.284 1.427-4.28 1.427-.286 1.43.285 1.426 4.28 1.427.286 1.427-.284 1.428-4.28 1.427-.286 1.427.285 1.427 4.28 1.426.286 1.428-.284 1.427-4.28 3.426-1.428v7.135h4.28v-5.708h4.28v9.99l4.282 1.426v-8.56l3.425 2.853v9.99c-.285 4.28.856 8.275 2.854 11.7.286-2.854.57-5.708 1.142-8.276.57-2.568 1.14-5.138 1.712-7.42 1.142 1.427 1.712 3.71 1.712 6.278 0 9.133-.856 19.407-3.14 30.822l-2.854 2.854v-14.27c-1.712 2.284-3.14 5.423-4.28 9.704-.856 3.425-1.998 6.85-2.855 10.274l-2.854 1.427v-8.562l-2.853 1.427c-.285 1.427-1.427 3.71-2.854 7.135l-2.283 1.142c0-1.142-.286-2.568-.286-3.996-.285-1.426-.57-2.28-1.712-2.853-.856.856-2.283 2.854-4.28 5.708l-2.284.856-.57-3.71-2.283-1.712c-1.427.285-2.57 1.712-3.425 4.566l-2.283.856-.57-3.71-2.855-1.713-1.427.285-1.428 4.28-2.283 1.143-.57-3.996-2.854-1.713-1.428.285c-.855 3.425-1.712 9.133-2.568 17.124-.285 3.71-.856 7.135-1.427 9.99-.57 2.853-1.142 5.42-1.713 7.42h-2.283c0-2.855-1.14-4.282-3.424-4.282h-1.427l-1.428 4.28-2.283.857-.57-3.71-2.855-1.427h-1.427l-1.427 4.28h-2.854l-1.427-4.28-1.428-.285-1.427.285-1.428 4.28-2.854.857c.285-3.71.57-8.276 1.142-14.27.57-5.994 1.427-13.13 2.854-21.405 2.282-15.41 3.424-27.684 3.424-36.245-.01-2.85-.58-4.847-1.437-6.56zm-1.142 64.214c0 .856.285 1.428 1.142 1.428s1.142-.57 1.142-1.428c0-.855-.286-1.427-1.143-1.427s-1.142.572-1.142 1.427zm22.546-2.853c1.143-3.71 2-9.132 2-16.552v-2.283c-2.284.285-3.426 1.712-3.426 4.28-.285 5.423.286 10.274 1.427 14.556zm2.856-51.37c-.856.855-1.427 1.712-1.427 2.854v2.854s0 2.283-.287 3.71c0 1.427-.285 2.568-.285 3.71v2.854h3.425c1.142-5.138 1.713-10.56 1.713-16.554-1.714-.285-2.855 0-3.14.572zm5.708 57.935c0 .285 0 .855.285 1.427v2.283c0 1.997 0 3.425-.286 4.28 0 .856-.57 1.142-1.427 1.428l1.427-9.99v.572zm2.853-57.935c-1.427 1.142-1.997 6.278-1.997 15.696h3.425c1.14-1.427 1.997-7.135 1.997-16.838-1.712.285-2.854.57-3.425 1.142zm8.563 0c-1.428 1.142-1.998 6.278-1.998 15.696h3.425c1.142-1.427 1.998-7.135 1.998-16.838-1.713.285-2.855.57-3.425 1.142zm8.56 0c-1.426 1.997-1.997 7.42-1.997 15.696h3.425c1.142-1.712 1.713-5.137 1.713-10.845v-1.426c0-2.283-.855-3.425-2.282-3.425h-.857zm6.28 9.418c0 .57.286.57.57.57.57 0 .857-.285.857-.57 0-.57-.286-.57-.856-.57-.284-.287-.57-.002-.57.57zM666.563 1654.983h-1.427c-.285-.856-.856-1.998-1.142-2.854-.285-.856-.856-1.713-1.427-2.855-1.142-2.283-2.283-3.71-3.14-4.566l-2.854.57v6.563l-2.854-1.427c-3.14-5.993-4.853-11.7-5.138-17.124h2.283l2.854 7.135.57.286.57-.286c1.142-1.712 1.427-3.14 1.427-4.28 0-1.427-.855-5.708-2.854-12.843l1.427-2.854 4.28 8.562 1.428-1.428v-4.852c0-3.995-1.427-9.703-4.28-17.124-1.428-3.71-2.57-7.135-3.426-9.988-.855-2.854-1.142-5.137-.855-7.135l.285-6.28c.57 2.57 1.998 6.28 4.28 11.417 1.143-1.712 1.428-3.995 1.428-6.278 0-3.425-.57-6.85-1.427-10.845l1.427-1.43c.285.287 1.142 1.43 2.283 3.426 1.142 1.713 1.998 2.283 2.854 2.283h.57c.57-1.143.856-2.284 1.428-3.426 0-.855-.285-1.712-.57-3.14-.57-1.427-.57-2.568-.57-3.14l1.426-1.426c1.714 3.71 3.426 5.707 5.14 5.707l2.282-1.427.57-7.705c.57.285 1.427 1.427 2.854 3.425 1.14 1.997 2.283 2.854 3.14 2.854 1.712 0 2.567-1.998 2.567-6.278.856.285 1.713 1.142 2.57 2.283.57.855 1.14 1.427 1.71 1.712l.857.855 2.854-.856v-4.282l2.854.856c.57.856 1.142 1.998 1.712 2.854.57.855 1.427 1.427 2.568 1.427s1.713-.856 1.998-2.283c.285-1.713.856-2.283 1.427-2.283l3.425 5.992 4.28-1.427v-4.566h1.428c.57 2.282 1.998 5.136 4.28 8.56l2.855 1.43 1.43-.287v-7.42l1.426.57s.57 1.713 1.712 4.566c.57 1.997 1.428 3.14 2.568 3.995l2.854-.57v-5.423l2.854 1.427c3.14 5.42 4.566 10.273 4.28 14.27v4.28l-4.28-7.135-1.427 1.427-.285 4.28c0 3.425 1.142 7.99 3.71 14.27 2.568 5.994 3.71 10.275 3.71 12.844v4.566c-.57-.856-1.142-2.568-2.283-4.852-.856-2.57-2.284-5.708-3.426-9.704-2.568-7.135-4.28-11.13-5.708-12.27l-1.427 1.426-.286 4.852c-.285 4.566 1.998 11.13 6.278 19.407 4.566 8.563 6.85 14.84 6.85 19.407-.57 1.142-.856 2.283-1.427 3.425l-4.28-7.135-1.143.286c0 .57 0 1.712-.285 3.424-.285 1.428-.285 2.854-.285 3.425.57 1.428.855 2.854 1.427 4.28l-1.428 1.428-5.138-4.28-2.283 2.283c.287.855.287 1.997.572 3.425.285 1.427.57 2.854.856 4.566l-2.57-1.428c-1.426-3.14-2.853-4.566-3.71-4.566-1.14 0-1.996.57-2.282 1.998v3.425c0 1.712-.57 2.854-1.427 3.425-.57-1.427-2-3.14-4.282-5.708l-2.854.57v5.423c-1.142 0-1.998-.57-3.14-1.712-.856-1.14-1.998-1.997-2.568-2.853l-2.854.856v4.28c-1.427-.285-2.568-.855-3.424-1.712-.856-1.14-1.713-2.282-2.283-3.424l-4.28 1.142v3.14c-1.143 0-2.284-.856-3.14-1.998-.857-1.427-1.713-2.568-2.57-3.71l-3.424 1.142v5.423c-1.426-.286-3.14-2.283-4.85-5.708-1.714-3.425-3.426-5.138-4.282-5.138l-1.427.57v5.993h.003zm-.57-31.393c2.283 4.852 4.28 7.135 6.563 7.706-.285-3.425-1.142-7.136-2.283-10.846-1.997-4.566-4.28-7.135-7.135-7.42 0 3.14.857 6.565 2.855 10.56zm3.14 32.82c0 .856-.286 1.427-1.143 1.427-.855 0-1.14-.57-1.14-1.427s.284-1.427 1.14-1.427c.857 0 1.142.57 1.142 1.427zm7.135-28.254c1.997 4.852 3.71 7.135 5.422 7.135.57 0 1.427-.57 2.283-1.426-1.712-4.852-3.425-9.418-5.708-14.27-1.142-.57-2.568-.856-4.566-.856-.002 1.998.855 5.422 2.568 9.418zm.285-31.393c0 .57 1.142 1.427 2.854 2.854V1595.337c-.57-1.428-.856-2.283-1.427-2.854-1.142.57-1.712 1.427-1.712 2.854.285.284.285.854.285 1.426zm6.85-1.142c.854 2.855 1.996 4.567 3.424 5.138.57.286 1.712.57 3.14.57 0-2.282-1.143-6.278-3.14-11.985h-4.566c-.285 1.712.286 3.71 1.142 6.278zm.855 28.54c.286 1.428.856 3.14 1.428 5.138 1.427 4.566 2.854 7.135 3.995 7.42.286.286 1.428.286 3.426.57 0-2.282-.57-5.137-1.998-8.847-1.427-3.424-2.854-5.992-4.28-7.134-.286 0-1.142-.285-3.14-.57 0 .57.285 1.997.57 3.424zm6.28-35.39c0 .572 0 1.143.284 2 .57 1.426.856 2.853 1.142 3.71s.285 1.426.57 1.71c.856 2.57 1.998 4.282 2.855 4.567.57.286 1.426.286 3.14.57 0-2.282-.287-4.85-.857-7.42-1.142-3.424-2.283-5.422-3.425-5.993-.57-.285-1.427-.285-3.14-.57-.57.57-.57.857-.57 1.427zm4.566 41.098c1.142 3.14 2.283 4.853 3.14 5.138.285.285 1.427.285 3.424.57 0-2.568-.57-5.422-1.997-8.276-1.14-3.14-2.568-5.137-4.28-6.278-1.142.57-1.713 1.427-1.713 2.854 0 1.14.285 3.14 1.427 5.992zm6.563-33.677c1.142 3.426 2.283 5.424 3.425 5.995.57.285 1.428.285 3.14.57v-1.427c0-.57 0-1.142-.285-1.998-.57-2.568-1.142-4.566-1.713-5.423-.856-2.568-1.997-4.28-2.568-4.565-.57-.286-1.427-.286-3.14-.57 0 2.568.286 4.85 1.14 7.42zm.856 28.256c0 .285.285.57.285.855 1.713 4.854 3.425 7.137 5.423 7.137 0-4.566-.57-7.706-1.71-8.848-.287-.286-.572-.57-1.43-.857-.854-.285-1.14-.57-1.426-.57s-.57.285-.856.57c-.285.286-.57.57-.57.856s.285.57.285.856zm9.418-23.973c.857 2.283 2 3.996 3.14 4.852 0 0 1.143.57 2.855 1.427v-2.282c0-1.713-.855-4.28-2.283-7.136-1.712-3.425-3.425-5.137-5.137-5.137 0 .856-.285 1.712-.285 1.998 0 .285 0 .285 0 0 .57 1.996.855 3.994 1.71 6.278zm5.71-32.535c0 .856-.286 1.427-1.143 1.427s-1.142-.57-1.142-1.427.285-1.427 1.142-1.427 1.142.57 1.142 1.428zM751.897 1655.84c0-.856 1.427-3.425 4.565-7.706 2.854-4.28 4.28-7.99 4.28-11.13v-3.71c-1.426 1.14-2.853 2.853-4.565 5.707-1.712 2.855-3.14 4.567-4.28 5.71v-.57c0-1.43 1.427-5.14 4.565-10.847 3.14-5.708 4.28-10.273 4.28-13.413v-3.425c-1.14.57-2.567 2.568-4.565 5.708v-4.28c0-2 .57-4.853 2.283-8.563 1.713-3.71 2.283-6.28 2.283-8.562v-4.28c-1.142.57-2.568 2.568-4.566 5.708v-4.28c0-2 .57-4.567 2.283-8.277 1.713-3.71 2.283-6.565 2.283-8.563l-2.283-1.427c-.57 0-1.427.856-2.568 2.854-1.142 1.712-1.998 2.854-2.283 3.14l-1.428-1.428c2.854-9.703 4.852-14.27 6.563-14.27.57 0 .856.856 1.142 2.283.286 1.426 1.142 2.282 2.283 2.282.856 0 1.998-.856 3.14-2.568 1.142-1.713 2.283-2.854 3.995-2.854v4.852l2.854.57c.284 0 1.14-1.426 2.853-4.28l2.854-.856v4.28l2.854.857 2.855-2.854s1.997-1.428 3.14-1.428c0 1.998-.856 5.138-2.284 9.133-1.426 4.28-2.282 7.42-2.282 9.418 0-.57.286 2.283.57 8.562h.572l7.42-19.978v4.28c0 3.426-1.427 8.563-4.28 14.842-2.855 6.562-4.567 11.414-4.567 14.84 0-.856.286 1.427.57 7.135h.57l2.855-5.708.285 4.28c0 1.998-.57 4.852-2.283 8.562-1.712 3.71-2.283 6.277-2.283 8.56v4.282c.856-.57 2.283-2.568 4.28-5.708v2.854c0 1.713-.284 3.71-1.426 5.708-1.14 2.283-1.712 3.425-1.712 4.28l.57 2 2.57.854c1.71-1.142 3.14-2.568 4.28-4.28v2.854c0 1.998-1.998 5.708-5.994 11.416l-2.854.856v-4.28l-2.854-.857c-1.143 1.14-1.998 2.282-3.14 3.14-1.427 1.14-2.568 1.997-3.996 1.997v-4.28l-2.854-.857-4.28 4.28-1.998.286-1.998-.285 1.142-2.853-.286-.57-2.568-.572c-1.427.856-3.425 2.283-5.708 4.566l-.853-3.14zM808.405 1642.14l-1.427 7.136c0-.285 0-.856-.285-1.427v-1.428c0-1.142 0-2.283.285-2.854.286-.286.57-.857 1.427-1.427zm-1.426-58.505v-12.843c0-1.142 1.14-1.713 3.14-1.713 0 6.85-.572 12.27-1.714 15.696l-1.427-1.14zm9.987 34.818c0-2.57-.57-6.564-1.427-11.987-1.142 2.283-1.998 5.708-2.568 9.99-.856 5.136-1.427 8.56-1.712 9.987l-.286-14.27c0-7.42.286-15.696 1.142-24.544 1.142-12.273 3.14-18.552 5.423-18.552.57 0 .855.856 1.14 2.283s1.143 2.284 2.284 2.284 1.998-.856 2.854-2.283c.856-1.71 1.428-2.282 2.283-2.282.572 0 1.143.856 1.428 2.283.286 1.428 1.142 2.284 2.283 2.284s2-.856 2.855-2.283c.855-1.71 1.427-2.282 2.283-2.282.57 0 1.142.856 1.427 2.283s1.142 2.284 2.283 2.284 2.283-.856 2.854-2.568c.856-1.713 1.713-2.568 2.854-2.568v14.84l2.854 2.854c1.427-.856 2.283-3.71 2.854-8.562 1.427 2.283 2.282 7.42 2.854 15.697l1.427 1.427 2.283-.57v-7.135l3.425 1.996v8.276c0 2.283.57 4.28 1.713 5.994h.57l3.425-7.136 1.43-.57v13.414l2.853 2.854c1.998-3.14 3.14-10.274 3.71-20.834.57-11.13 1.712-18.266 3.425-21.976l.57-.285c.57 0 .856.856 1.143 2.283.286 1.427.856 2.283 2.284 2.283 1.427 0 1.997-.572 2.854-1.428.57-1.142.855-1.998 1.712-2.854h.57c.57 0 .856.856 1.143 2.283.285 1.428.856 2.284 2.283 2.284s1.997-.57 2.854-1.427c.57-1.142.856-1.998 1.713-2.854h.57c.57 0 .856.856 1.142 2.283.285 1.428.856 2.283 2.283 2.283s1.998-.57 2.854-1.428c.57-1.142.856-1.998 1.713-2.854l1.998-.57c-.285 7.134-1.142 17.98-3.425 33.105-1.998 14.27-2.854 25.4-2.854 33.105 0 2.283.57 5.138 1.428 8.562 1.14-1.998 2.283-5.423 3.14-9.704.285-3.425.855-6.85 1.427-10.274v12.272c0 8.276-.857 15.41-2.855 21.976h-2.854v-3.71l-2.853-.57c-.285 0-1.142 1.426-2.854 4.28l-2.568.855-.286-3.71-3.14-1.427h-1.142l-1.713 2.568c-.57.856-1.427 1.428-2.283 1.713 0-2.855-1.142-4.282-3.425-4.282h-1.142l-1.427 2.568-2.854 1.713v-14.27l-1.427-1.43c-.855.572-1.712 1.714-2.282 3.426-.57 1.713-1.428 2.854-2.283 3.425-1.143-1.426-1.713-3.14-1.713-5.707 0-.856 0-2.283.284-3.71.285-1.998.57-3.14.57-3.425l-3.424-1.142c-.285 1.427-1.142 3.425-2.854 5.708l-1.427-1.427v-11.416l-2.284-1.426-3.425 7.135c-1.14-1.428-1.71-3.71-1.71-6.85v-7.42l-2.284-1.43h-.57c-.57 6.85-2.57 11.703-5.71 14.272v-2.283c0-1.43.287-3.997.857-7.136.57-3.14.856-5.708.57-7.42v-3.426l-2.853-2.854c-1.142 2.854-2.283 7.135-3.14 13.128-.855 5.423-1.14 9.99-1.14 13.7 0 1.14 0 2.853.284 4.85.285 2.284.285 3.71.285 4.853l1.14.57c1.428-1.997 2.284-5.422 2.855-9.988 1.14 1.713 1.427 3.425 1.427 5.423 0 5.422-.856 10.845-2.854 15.696l-.57.286c-.57 0-1.142-.856-1.428-2.283-.285-1.43-.855-2.284-1.997-2.284s-1.998.57-2.57 1.427c-.57.856-1.14 1.997-1.71 2.854l-2.855.856v-4.566l-2.854-.285c-.285 0-1.142 1.427-2.854 4.28l-2.568.856-.286-3.71-3.14-1.427h-1.14c-.572.856-1.143 1.713-1.714 2.855-.57.856-1.427 1.427-2.568 1.427.285-3.71 1.427-10.273 3.425-19.69.85-8.274 1.707-14.837 1.707-19.69zm53.37-41.953c0 2.854-.286 4.28-.57 4.28-.286-.285-.286-.57-.286-1.427-.285-1.142-.285-1.998-.285-2.568v-2.283c0-2.568.286-3.996.57-3.996.57.57.57 1.998.57 4.28v1.714zm5.137 36.815c0 .57 0 1.998.285 4.566l1.426 1.428 1.428-1.427c.855-6.563 1.427-10.844 1.427-12.842v-5.708c0-2.854-.57-6.564-1.426-11.416-2.284 7.136-3.14 15.698-3.14 25.4zm23.972-31.108c-.285 0-.285.286-.285.57 0 .57 0 .57.286.57.57 0 1.142-.284 1.142-.57s-.285-.57-1.142-.57zm8.848 68.495v5.708c0 .572-.57 1.143-1.427 1.428l1.427-7.136zM948.535 1656.41c8.847-1.142 15.41-1.998 19.978-2.854l-2.854-2.283h-27.113l-2.854-4.28h9.99l-2.855-3.426c-5.138-.285-7.99-.57-8.562-.57-3.425-.57-5.993-1.998-7.135-4.28h7.992l.57-2.284c0-.856-1.712-1.712-5.137-2.568-2.283-.57-4.28-1.142-6.278-1.713l-1.427-2.854h6.563l.57-2.854c-.855-1.142-3.14-1.997-7.134-2.854l-.287-1.427.286-1.427 4.28-1.428.284-1.427-.285-1.426-4.28-1.427-.287-1.428.286-1.428 4.28-1.427.284-1.427-.285-1.428c-1.143-.57-2-1.14-3.14-1.997-1.142-.57-1.713-1.713-1.713-3.14h4.852c.855-1.142 1.426-2.283 1.426-2.854 0-.287-.855-.857-2.854-1.43-1.998-.57-3.14-1.71-3.14-2.853l7.42-.57 1.428-1.428-.57-3.426h-5.71l2-3.425h9.988l1.712-2.284-7.42-3.425 1.427-1.426c5.423-.285 9.418-.57 12.27-.856 5.424-.855 9.134-2.568 10.562-4.852h-17.125c1.142-1.427 6.563-3.14 15.696-4.852 8.563-1.712 14.272-2.568 17.41-2.283h3.996c-1.427.572-2.568 1.143-3.71 1.714-1.428.855-2.568 1.712-3.425 2.568h5.138c2.283 0 5.138-.57 8.848-2.283 3.71-1.714 6.278-2.284 7.99-2.284h3.71l-5.707 4.28v.57l5.707.572c3.425-1.998 6.278-3.14 9.132-3.425-.286 1.712-1.428 3.425-3.425 4.852 0 1.712.855 2.568 2.854 2.854 1.426-.857 2.853-1.998 4.565-2.855 1.713-1.142 3.14-1.427 4.852-1.427h2.283l-4.28 5.707 2.282 1.428c1.998-.57 3.71-.856 5.138-1.428v2.854c-1.998 1.997-4.28 3.994-6.28 5.707-2.282 2.568-3.994 4.852-5.136 7.135h1.427c1.714 0 5.138-1.998 9.99-5.708v.57c0 3.14-2.57 5.994-7.42 9.133-2.57 1.428-7.42 3.71-14.84 7.136-5.995 2.568-9.42 4.565-10.562 5.993h5.994c3.424 0 7.42-.856 11.7-2.854 3.71-1.998 7.136-3.71 10.846-5.708l.285 1.428c0 1.427-.856 2.854-3.14 3.995-2.568 1.427-3.995 2.568-4.28 3.14l4.566.285c1.996.285 5.707-1.427 11.13-4.566l1.712 2.283-8.848 9.132 1.427 1.427c2-1.143 3.426-2 3.71-2.284 1.43-.57 2.855-.856 4.282-.856-.285 1.998-1.712 3.996-3.995 5.708-3.425 2.568-5.138 3.996-5.708 4.566l.57 2.568h.57c.57 0 1.427-.285 2.854-.57 1.427-.57 2.568-.57 3.424-.57-.57 1.712-2.568 4.28-6.278 7.135l1.427 1.427 5.708.57v2.283c-8.276 4.852-18.265 9.133-30.537 12.843-13.128 3.996-23.688 5.993-32.25 5.993-4.278.29-7.99-.28-11.413-1.423zm0-37.1l1.427 1.427h6.563c2.854 0 5.994 0 8.848-.57 4.28-.857 6.278-2 6.278-3.71l-.284-1.428c-.856-.287-2.283-.857-4.28-1.43v-.57c0-1.14.57-1.997 1.427-2.282 5.137-1.713 10.274-3.425 15.126-5.138 5.706-1.997 10.56-4.28 14.84-6.278l.285-.57c0-1.428-.856-2.283-3.14-2.283-1.713 0-6.28 1.426-13.414 4.28-7.134 2.853-11.985 4.28-15.124 4.28-1.428 0-2.854-.57-4.28-1.427 17.978-4.852 27.968-8.562 29.966-11.416l-1.428-1.427h-2.854c-1.713 0-7.135 1.142-16.553 3.71-5.994 1.712-11.987 3.425-17.695 5.137-2.854.856-4.566 2.283-4.566 4.28h10.274c-1.427 1.714-3.14 2.855-5.137 3.71-1.998.857-3.995 1.43-6.278 2v2.853c1.427.286 2.568.57 3.71.856 1.427.57 2.568 1.142 3.425 2.283-1.428.57-2.568 1.14-3.71 1.712-1.713.285-2.855 1.14-3.425 1.997zm3.995 7.705c0 .285.285.57.57 1.142.286.57.57.856.856.856h4.566c1.713 0 3.71-.286 6.564-.856 3.425-.57 5.422-1.142 5.993-1.998.284-.57.57-1.428.855-3.14h-1.998c-11.414.285-17.407 1.426-17.407 3.995zm26.257-39.385c-5.138.285-9.133.57-11.7 1.142-5.14.856-8.278 2.568-9.99 5.137h4.28c1.998 0 4.853-.286 7.99-.856 3.71-.57 6.28-1.428 7.422-1.998 1.14-.858 1.997-2 1.997-3.426zm-17.41 45.95l1.428 1.426h14.27c1.998 0 5.422-1.142 10.56-2.854 5.423-1.997 8.276-3.71 8.276-5.137 0-.856-.57-1.427-1.71-2.283-.857.285-6.565 1.427-16.555 3.425-6.85 1.997-12.272 3.71-16.268 5.422zm31.965 25.113c-.57 0-.57-.285-.57-.856 0-.285.285-.57.57-.57.57 0 .57 0 .57.57.286.286 0 .856-.57.856zm27.97-12.27c-1.143 1.426-4.567 3.423-10.846 6.277-5.993 2.568-9.99 3.995-11.987 3.995h-1.428l24.26-10.273z"/></g><g fill="#ffffff"><path d="M153.137 1800.25h-1.427c-.285-.856-.856-1.998-1.14-2.854-.287-.855-.857-1.712-1.143-2.854-1.142-2.283-2.283-3.71-3.425-4.566l-2.854.57v6.564l-2.854-1.427c-3.14-5.993-4.852-11.7-5.137-17.124h2.283l2.854 7.134.57.286.572-.286c1.142-1.712 1.427-3.14 1.427-4.28 0-1.428-.856-5.708-2.854-12.844l1.426-2.854 4.28 8.562 1.428-1.427V1768c0-3.995-1.427-9.703-4.28-17.124-1.428-3.71-2.57-7.135-3.426-9.988-.856-2.854-1.142-5.138-.856-7.135v-6.28c.57 2.57 1.998 6.28 4.28 11.417 1.143-1.713 1.428-3.995 1.428-6.278 0-3.425-.57-6.85-1.427-10.846l1.427-1.427c.285.284 1.142 1.426 2.283 3.424 1.142 1.713 1.998 2.283 2.854 2.283h.57c.57-1.142.856-2.283 1.427-3.425 0-.856-.286-1.713-.57-3.14-.572-1.427-.572-2.568-.572-3.14l1.427-1.427c1.71 3.71 3.424 5.708 5.136 5.708l2.283-1.427.57-7.706c.57.286 1.427 1.427 2.854 3.425 1.142 1.998 2.283 2.854 2.854 2.854 1.712 0 2.568-2 2.854-6.28.856.286 1.712 1.142 2.854 2.283.57.856 1.142 1.427 1.427 1.713l.856.855 2.853-.854v-4.28l2.854.855c.57.856 1.142 2 1.712 2.855.57.856 1.426 1.427 2.568 1.427s1.712-.855 1.998-2.282c.286-1.713.856-2.283 1.427-2.283l3.425 5.993 4.28-1.427v-4.28h1.428c.57 2.282 1.998 5.136 4.28 8.56l2.855 1.428 1.428-.284v-7.42l1.427.57s.57 1.713 1.712 4.566c.57 1.998 1.427 3.14 2.568 3.996l2.854-.57v-5.424l2.853 1.428c3.14 5.422 4.566 10.274 4.28 14.27v4.28l-4.28-7.134-1.427 1.427v4.28c0 3.425 1.142 7.99 3.71 14.27 2.568 5.994 3.71 10.275 3.71 12.844v4.565c-.57-.856-1.142-2.57-2.283-4.853-.856-2.568-2.283-5.707-3.425-9.703-2.568-7.136-4.28-11.13-5.708-12.272l-1.427 1.427v4.852c-.285 4.566 1.998 11.13 6.28 19.407 4.565 8.562 6.563 14.84 6.563 19.406-.57 1.142-.856 2.283-1.427 3.425l-4.282-7.135-.856.285c0 .57 0 1.713-.286 3.425-.285 1.713-.285 2.854-.285 3.425.572 1.428.857 2.854 1.428 4.28l-1.427 1.428-5.136-4.28-2.283 2.283c.287.855.572 1.997.572 3.424.285 1.428.57 2.854.856 4.566l-2.854-1.427c-1.427-3.14-2.57-4.567-3.71-4.567s-1.998.57-2.283 1.998v3.426c0 1.713-.57 2.854-1.426 3.425-.57-1.426-1.998-3.14-4.28-5.707l-2.855.57v5.423c-1.143 0-2-.57-2.855-1.712-.856-1.142-1.998-1.998-2.854-2.854l-2.853.856v4.28c-1.427-.285-2.57-.855-3.425-1.712-.856-1.142-1.712-2.283-2.283-3.425l-4.282 1.14v3.14c-1.142 0-2.283-.855-3.14-1.997-.856-1.427-1.712-2.568-2.568-3.71l-3.425 1.142v5.423c-1.427-.286-3.14-2.283-4.852-5.708s-3.14-5.138-4.28-5.138l-1.428.57v5.708h.002zm-.857-31.394c2.283 4.852 4.28 7.135 6.564 7.705-.286-3.424-1.142-7.134-2.283-10.844-1.997-4.566-4.28-7.135-7.134-7.42.286 3.14 1.142 6.564 2.854 10.56zm3.425 32.82c0 .857-.285 1.428-1.142 1.428-.856 0-1.142-.57-1.142-1.427s.287-1.427 1.143-1.427c.57 0 1.142.57 1.142 1.427zm6.85-28.253c1.998 4.852 3.71 7.135 5.422 7.135.57 0 1.427-.57 2.283-1.427-1.712-4.852-3.425-9.417-5.708-14.27-1.142-.57-2.57-.855-4.566-.855.285 1.997 1.142 5.422 2.57 9.418zm.57-31.394c0 .57 1.142 1.426 2.854 2.853v-4.279c-.572-1.428-.857-2.283-1.428-2.854-1.142.57-1.427 1.426-1.427 2.853-.285.285-.285.855 0 1.426zm6.564-1.142c.855 2.854 1.997 4.566 3.424 5.137.57.285 1.712.57 3.14.57 0-2.282-1.142-6.278-3.14-11.986h-4.566c0 1.71.285 3.71 1.14 6.278zm.856 28.54c.285 1.427.856 3.14 1.427 5.137 1.427 4.566 2.57 7.135 3.71 7.42.285.285 1.427.285 3.425.57 0-2.282-.57-5.137-1.998-8.847-1.427-3.425-2.854-5.993-4.28-7.135-.287 0-1.143-.285-2.855-.57.285.57.285 1.997.57 3.424zm6.564-35.39c0 .57 0 1.142.286 1.998.57 1.427.856 2.854 1.142 3.71.285.855.285 1.427.57 1.712.857 2.57 2 4.28 2.855 4.566.57.286 1.427.286 3.14.57 0-2.282-.287-4.85-.857-7.42-1.142-3.425-2.283-5.422-3.424-5.993-.57-.284-1.427-.284-3.14-.57-.572.572-.572.857-.572 1.428zm4.28 41.097c1.143 3.14 2.284 4.852 2.855 5.138.286.285 1.427.285 3.425.57 0-2.568-.57-5.423-1.998-8.276-1.142-3.14-2.57-5.137-4.28-6.278-1.143.57-1.428 1.426-1.428 2.853 0 1.14.57 3.138 1.427 5.992zm6.565-33.677c1.142 3.425 2.283 5.423 3.425 5.993.57.287 1.427.287 3.14.572v-1.427c0-.57 0-1.142-.287-1.998-.57-2.568-1.14-4.566-1.427-5.423-.856-2.568-1.998-4.28-2.854-4.566-.57-.285-1.427-.285-3.14-.57.287 2.568.572 4.852 1.143 7.42zm1.142 28.255c0 .285.285.57.285.855 1.712 4.852 3.425 7.135 5.708 7.135 0-4.566-.57-7.705-1.998-8.847-.286-.286-.57-.57-1.427-.856-.856-.285-1.142-.57-1.427-.57-.286 0-.57.285-.856.57-.285.285-.57.57-.57.856s0 .57.285.857zm9.418-23.974c.856 2.282 1.998 3.994 3.14 4.85 0 0 1.14.572 2.853 1.428v-2.282c0-1.712-.856-4.28-2.283-7.135-1.712-3.425-3.425-5.137-5.137-5.137v1.998c0 .286 0 .286 0 0 0 1.998.57 3.996 1.427 6.28zm5.708-32.536c0 .856-.286 1.427-1.142 1.427-.855 0-1.14-.57-1.14-1.426s.284-1.427 1.14-1.427c.572 0 1.143.57 1.143 1.427zM258.733 1792.544v.57c0 .57.286 1.713.57 3.426.572 1.712.572 2.854.572 3.71l-2.854-1.427c-1.71-4.28-3.423-8.276-5.136-12.272-1.998-4.85-4.28-8.847-6.28-11.985v3.71c0 1.427.286 3.425.857 5.993s.857 4.566.857 5.993c-2.283-.57-4.852-5.992-7.135-15.695-2.283-8.562-3.425-14.84-3.14-18.55v-5.71c.57 2.284 1.142 4.282 1.712 6.565.856 2.568 1.712 4.565 2.57 6.278.855-2.854 1.426-5.137 1.426-7.135 0-2.568-.57-5.993-1.427-10.845-.856-4.566-1.427-8.277-1.427-10.846 0-1.142.57-2.568 1.427-4.28l2.854 8.562h.57l2.284-1.427v-12.843l1.428-1.428 2.854 7.136 2.854-2.854v-9.988h3.424v5.707h4.566v-9.988h2.283c.285 1.71 1.14 3.71 2.853 5.707h1.427l2.283-1.427v-5.708h2.283l2.854 5.708h.57c1.143 0 2-.856 2.57-2.854s1.142-2.854 1.712-2.854h.57c.572.855 1.143 1.997 1.713 2.854s1.427 1.427 2.568 1.427 1.712-.855 1.998-2.283c.287-1.427.857-2.282 1.428-2.282s1.427.855 2.283 2.282c.857 1.428 1.713 2.283 2.855 2.283s1.998-.855 2.283-2.283c.285-1.427.856-2.282 1.427-2.282.856 3.71 3.14 6.278 6.28 7.135l1.426-1.428.572-5.707c.855 0 1.997 1.427 3.14 4.28 1.427 3.14 2.568 5.138 3.424 5.708l1.427-.57v-6.564h2.854c1.142 4.28 1.712 6.564 1.712 7.135.855 2.568 2.282 4.566 3.995 5.708l1.427-.57v-7.99l2.854 1.426c3.14 11.417 4.852 19.693 4.566 25.115-.856 0-1.998-1.142-2.854-3.425-.57-1.427-1.142-3.14-1.712-4.566h-1.14c-1.143 1.428-1.43 3.14-1.43 4.853 0 1.142.287 2.854.857 4.852.57 2.282.856 3.71 1.142 4.85l-2.854-1.426c-1.14-1.998-1.997-3.425-3.14-4.28l-2.853.57v5.137h-2.854c-1.712-5.422-2.283-8.275-2.283-8.56-1.142-3.14-2.854-5.424-4.852-7.136l-1.427.57v7.99c-1.712-1.426-2.853-3.14-3.424-4.85-.856-2.57-1.427-4.282-2.283-5.14l-3.425 1.143v4.852c-.856-.57-1.998-1.998-3.425-3.425-1.427-1.713-2.283-2.854-3.14-3.425l-3.424.57.57 5.138-1.427 1.427c-.856-3.996-2.283-5.708-3.996-5.708l-2.854 1.427v3.995c0 1.427-.57 2.853-1.712 4.565-.57-2.568-1.71-4.852-2.853-7.135h-.856l-2.282 1.428v13.698c-.856 0-1.712-1.142-2.568-3.425l-1.712-4.28h-1.142l-1.427 4.28c0 2.855 1.14 8.277 3.71 16.554 2.567 8.848 4.85 13.414 6.277 13.414l1.427-.285v-8.562l1.998.572c.856.856 1.712 2.568 2.57 5.137.855 2.567 2.282 4.565 3.995 5.992l1.427-.285v-6.85c1.712.57 2.854 1.428 3.425 2.854.855 1.428 1.426 2.855 2.282 4.28l2.854-1.14v-7.136c3.425.856 5.708 3.14 6.564 7.136l2.283-1.428.57-7.42c1.143 0 2 1.142 3.14 3.14.856 1.997 1.998 3.14 2.855 3.14l1.998-2.855c0-1.142-.285-2.854-.57-5.138-.57-2.284-.57-3.996-.57-5.138l1.426-1.427 2.854 7.135h.57c1.427 0 2.854-2.283 3.71-7.135h1.14c2.284 3.995 4.282 8.562 6.28 13.7 2.568 6.277 3.71 11.13 3.71 14.27l-1.427 1.997c-2.57-3.996-4.282-5.994-5.14-5.708l-2.282 2.283c.57 1.427.856 3.425 1.427 6.278l-1.427 1.427-4.28-5.708-2.854.856v8.276c-1.142-.285-2.283-1.142-3.14-2.854-1.142-1.998-1.997-3.14-2.568-3.425l-2.854 1.427v.57c0 1.142.57 3.425 1.427 6.564l-1.428.285-1.427-.285c-.57-1.142-1.427-2.283-1.998-3.425-1.142-1.427-1.998-2.283-2.854-2.283-1.712 0-2.57 1.998-2.854 5.993l-5.138-4.566-2.854.856v4.28l-2.854-.855c-.57-1.142-1.427-2.283-2.854-4.28l-2.854.285v4.566c-1.712-.287-3.14-1.43-4.852-3.426-2.283-2.854-3.71-4.566-3.71-4.566l-1.427.57v6.85h-1.427c-1.142-1.998-2.283-4.28-3.425-6.278-1.142-2.283-2.283-3.996-3.71-5.423l-3.422.287zm-15.982-25.114c-.855 0-1.14.57-1.14 1.427s.284 1.427 1.14 1.427c.857 0 1.143-.57 1.143-1.427s-.286-1.427-1.142-1.427zm1.428 4.28c-.856 0-1.142.57-1.142 1.427 0 .856.286 1.428 1.142 1.428.856 0 1.142-.57 1.142-1.428 0-.856-.286-1.427-1.142-1.427zm4.28 18.55c.857 0 1.143.572 1.143 1.428s-.285 1.428-1.14 1.428c-.857 0-1.143-.57-1.143-1.428 0-.856.286-1.427 1.142-1.427zm78.484-27.112c.856 0 1.142.57 1.142 1.427s-.285 1.427-1.142 1.427c-.855 0-1.142-.57-1.142-1.427s.287-1.427 1.142-1.427zm1.427 4.282v-1.428c1.142 1.142 2.568 3.71 4.28 7.42 1.713 3.71 2.854 6.564 2.854 8.277v6.849c-.856-1.143-2.283-4.853-4.28-10.847-1.998-5.422-2.855-9.133-2.855-10.273zm5.707-45.664c.856 0 1.428.57 1.428 1.428v8.562c-.856-2.568-1.428-4.28-1.428-5.708v-4.282zM420.268 1794.542l-.286 1.427c.57.855.856 1.426 1.427 2.282.57.57.855 1.427 1.427 1.998h-.856c-3.14 0-6.563-1.998-10.844-5.708l-2.568.57-.286.57 1.427 2.855h-4.567l-5.707-4.28-2.57.57-.284.57 1.427 2.855-2.284.285c-1.142 0-2.283-.57-3.424-1.427l-2.854-2.854-2.854.856v4.28c-2.283 0-5.138-1.712-8.562-5.137l-2.568.57-.285.57 1.426 2.855-2.283.286c-1.142 0-2.283-.57-3.425-1.428l-2.854-2.854-2.854.856v4.28c-2.283-.285-4.852-2.283-7.99-6.278-3.14-3.996-4.853-7.135-4.853-9.418l1.427-2.283c1.142 1.713 2.57 3.14 4.28 4.282l.857-.57.57-3.71c-3.138-5.14-4.565-9.134-4.28-11.987v-2.283l4.28 4.28v-4.28c0-1.713-.57-4.28-2.282-7.99-1.712-3.426-2.283-5.994-2.283-7.707v-4.28c.57 1.427 1.998 3.14 4.28 5.707v-4.566c0-3.425-1.426-8.562-4.28-14.84-3.14-6.85-4.566-11.987-4.28-15.412v-5.137c.57 1.712 1.427 3.71 1.997 5.423.57 1.712 1.142 3.425 1.713 5.422 1.997 5.138 3.425 7.99 5.137 9.133v-5.137c0-1.998-.285-5.138-1.427-9.133-1.142-3.996-1.713-7.135-1.713-9.133 1.143.285 2.283.856 3.14 1.998.856.855 1.427 1.712 1.998 1.998.57.57.856.57.856.855l2.854-.855v-4.28l2.854.854c.285.856 1.427 2.283 2.854 4.28l2.854-.57v-4.852c1.712.286 3.14 1.142 4.28 2.854 1.142 1.712 2.283 2.568 2.854 2.568 1.142 0 1.997-.856 2.283-2.283.284-1.713.854-2.284 1.426-2.284.57.57 1.142 1.142 1.997 1.713.856.854 1.713 1.71 2.854 2.567l2.854-.856v-4.28l2.855.856c.57.856 1.142 1.998 1.712 2.854.57.855 1.428 1.427 2.57 1.427 1.14 0 1.71-.856 1.996-2.283.286-1.427.856-2.283 1.427-2.283.57.572 1.142 1.143 1.998 1.714.856.855 1.713 1.712 2.854 2.568l2.854-.856v-4.28l2.854.855c.285.857 1.427 2.284 2.854 4.282l2.854-.57v-5.994l2.854.856c.57 1.427 1.998 3.14 4.28 5.708 1.143-.57 1.713-3.425 1.998-8.848 1.142 0 3.14 2.854 5.708 8.276 2.568 5.138 3.996 8.848 3.996 10.56l-.286 2.854c-.57-.856-.855-1.427-1.427-2.283-.57-.57-.855-1.426-1.426-1.997l-1.427 5.708c.57 1.143 1.142 2.57 1.712 4.282.57 1.712 1.426 3.71 2.567 5.707l-1.427 1.427c-3.995-4.28-7.135-7.135-9.99-8.562v1.428c0 1.142.857 3.71 2.855 7.135l-2.854 1.427-7.134-9.99c-1.712-.284-2.568.857-2.854 2.855 1.427 2.283 2.568 4.28 3.425 6.278 1.712 2.854 2.283 5.138 2.283 6.564v2.854l-2.854-2.854-1.427.57v3.71c0 3.425 1.997 7.42 5.707 11.702 1.713 1.712 3.425 3.71 5.137 5.422 1.713 1.713 3.425 3.71 5.423 5.423 3.71 3.71 5.423 6.85 5.138 9.417v2.283l-2.854-1.427-.57.285-.57 2.568c.856 1.142 1.998 2.568 2.854 3.71 1.142 1.427 1.427 2.568 1.427 3.996v2.283l-4.28-1.428-1.427 2.283 2.854 5.138h-4.28l-9.99-8.562h-1.996v.576zm-69.067-.285v-.856c1.428.857 2.855 2.57 4.282 5.71h-1.427c-.286 0-.286 0 0 0h-1.428c-.57 0-.855-.572-1.142-1.428 0-.57-.285-.856-.285-1.142v-2.283zm30.253-19.693c.856 2.283 2.854 3.425 5.993 3.425 0-1.714-1.427-4.854-4.566-9.134-.285 0-.57-.286-.855-.286-.286 0-.856-.285-1.428-.285 0 2.855.286 5.138.856 6.28zm2.855-29.966c.57.285 1.712.57 3.425.57 0-1.427-.286-2.568-.57-3.424-1.713-4.28-3.14-7.136-4.282-8.562h-1.996c0 6.564 1.14 10.274 3.424 11.416zm-.287 17.694v.856c.287 1.142 1.714 3.71 4.282 7.706 2.854 3.995 4.852 6.278 5.708 6.563.57.285 1.712.57 3.14.57v-2.282c-.286-1.142-1.713-3.71-4.566-7.706-1.428-2-2.568-3.426-3.425-4.567s-1.714-1.712-2-1.998c-.57-.285-1.71-.57-3.14-.57v1.427zm10.276-17.694c.57.285 1.427.57 2.854.57 0-.57 0-1.14-.286-2.282 0-.856-.855-2.854-1.997-5.423-.57-1.427-.856-2.283-1.428-3.14-.57-.856-.856-1.142-.856-1.427l-1.142-.57c-.57-.286-1.142-.57-1.713-.856H388.3c-.285 0-.856.57-1.427 1.427 1.998 5.422 4.28 9.132 7.42 11.7zm4.28 25.4c3.14 3.995 5.424 6.563 7.136 7.705.57.286 1.712.57 2.854.856v-2.284c-4.28-7.42-8.277-12.27-11.416-14.27-.57-.285-1.713-.57-3.425-.856.286 1.713 1.713 4.567 4.852 8.848zm-1.426-35.39c.57 1.428 1.427 3.425 2.854 5.708.856 1.142 1.427 1.998 2.283 2.854.856.855 1.427 1.427 1.998 1.712.57.285 1.427.57 3.14.57-.286-2.282-1.713-5.707-4.566-10.845-.572-.855-1.43-1.712-2.855-2.854-.57-.285-1.712-.57-3.425-.57 0 .857.284 2 .57 3.425zm15.697 39.956c1.427 1.997 3.425 3.425 5.993 3.425 0-2-1.997-5.424-5.708-10.56-.57-.572-.855-1.43-1.427-2-.57-.57-.856-1.14-1.427-1.997-1.427-1.427-2.568-1.998-3.995-1.998h-.57c-.57.286-1.143.856-1.428 1.428l8.562 11.7zm-5.137-38.528c0 .285.856 1.427 2.568 3.71.57 1.142 1.142 1.712 1.142 1.998 0 .285.856.285 1.712.57.286.285.856.285 1.713.285 0-2.855-.856-5.71-2.854-8.563-.57-.57-.854-1.142-1.14-1.713-.286-.57-.57-.57-.856-.855-.286 0-.856-.287-1.142-.287h-1.998c0 2 .285 3.712.856 4.853zm14.27 36.53c2.567 3.425 5.136 5.137 7.134 5.708 0-.285-.285-.856-.285-1.427 0-.57-.286-1.142-.286-1.998-.286-.572-.57-1.143-1.428-2.284-.855-1.142-1.712-2.568-3.14-3.995-2.568-3.424-4.28-5.137-4.852-5.137-.855 0-1.427.57-2.283 1.427.858 1.713 2.57 4.567 5.14 7.706zm3.424 29.11c1.142 0 1.427.572 1.427 1.428s-.284 1.427-1.14 1.427-1.143-.57-1.143-1.426h-.285c-.856 0-1.142-.57-1.142-1.427s.285-1.427 1.142-1.427c.57 0 1.142.57 1.142 1.427zm10.845-32.82h.57c1.997 0 2.854.856 2.854 2.854v1.14l-4.28-4.28c.57.286.855.286.855.286zm1.997-62.787c0 .855-.285 1.426-1.142 1.426s-1.142-.57-1.142-1.427.285-1.428 1.142-1.428c.57 0 1.142.57 1.142 1.427zm0 2.853c-.285 0-.57-.285-.57-.57 0-.57 0-.57.57-.57s.856.284.856.57c0 .285-.286.57-.856.57zM458.225 1787.407l-1.427 7.135v-5.709c0-.284.57-.855 1.427-1.426zm-1.427-58.507v-12.843c0-1.142 1.142-1.712 3.425-1.712 0 6.85-.57 12.27-1.998 15.696l-1.427-1.14zm9.99 34.82c0-2.57-.572-6.564-1.43-11.987-1.14 2.283-1.996 5.708-2.282 9.99-.855 5.136-1.427 8.56-1.997 9.987v-14.27c0-7.42.284-15.696 1.14-24.544 1.142-12.272 3.14-18.55 5.708-18.55.57 0 .856.855 1.142 2.282.286 1.427 1.142 2.283 2.283 2.283s1.998-.855 2.854-2.282c.856-1.713 1.427-2.283 2.283-2.283.57 0 1.142.856 1.427 2.283s1.142 2.283 2.283 2.283 1.998-.855 2.854-2.282c.855-1.713 1.427-2.283 2.282-2.283.57 0 1.142.856 1.428 2.283.285 1.427 1.142 2.283 2.283 2.283s2.283-.855 2.854-2.567c.857-1.713 1.714-2.57 2.855-2.57v14.842l2.854 2.854c1.426-.857 2.282-3.71 2.853-8.563 1.428 2.283 2.283 7.42 2.854 15.697l1.427 1.427 2.283-.57v-7.135l3.425 1.998v8.276c0 2.282.285 4.28 1.427 5.992h.57l3.425-7.135 1.427-.57v13.413l2.854 2.854c1.998-3.14 3.14-10.274 3.71-20.834.57-11.13 1.713-18.266 3.426-21.976l.57-.285c.57 0 .856.854 1.427 2.282.284 1.427.855 2.283 2.282 2.283 1.142 0 1.998-.57 2.854-1.428.57-1.142.855-1.997 1.427-2.854h.57c.57 0 .856.856 1.428 2.283.286 1.427.856 2.283 2.283 2.283 1.143 0 1.998-.572 2.854-1.43.57-1.14.856-1.996 1.427-2.853h.57c.57 0 .856.856 1.143 2.283.285 1.427.855 2.283 2.283 2.283 1.142 0 1.997-.57 2.854-1.427.57-1.142.856-1.998 1.713-2.854l1.997-.57c-.285 7.135-1.142 17.98-3.425 33.105-1.998 14.27-2.855 25.4-2.855 33.106 0 2.282.57 5.137 1.427 8.562 1.142-1.998 2.283-5.423 3.14-9.703.285-3.425.856-6.85 1.427-10.274v12.27c0 8.277-.857 15.412-2.855 21.977h-2.854v-3.71l-2.853-.57c-.286 0-1.142 1.427-2.854 4.28l-2.283.856-.57-3.71-2.854-1.426h-1.427c-.57.855-.857 1.712-1.428 2.568-.57.855-1.427 1.427-2.283 1.712 0-2.854-1.143-4.28-3.426-4.28h-1.427l-1.428 2.568-2.855 1.712v-14.27l-1.427-1.427c-.856.57-1.427 1.712-2.283 3.425-.57 1.712-1.427 2.854-2.283 3.425-1.142-1.428-1.427-3.14-1.427-5.708 0-.857 0-2.284.285-3.71.285-2 .57-3.14.57-3.426l-3.424-1.142c-.286 1.427-1.143 3.425-2.854 5.708l-1.427-1.428v-11.415l-2.283-1.428-3.425 7.134c-1.142-1.427-1.713-3.71-1.713-6.85v-7.42l-2.283-1.427h-.57c-.57 6.85-2.567 11.7-5.707 14.27v-2.283c0-1.427.285-3.995.856-7.135.57-3.14.855-5.71.57-7.42v-3.426l-2.855-2.854c-1.142 2.854-2.283 7.135-3.14 13.13-.856 5.42-1.142 9.987-1.142 13.697 0 1.142 0 2.854.285 4.853.286 1.997.286 3.71.286 4.852l.855.57c1.427-1.997 2.282-5.422 2.853-9.988 1.142 1.712 1.427 3.425 1.427 5.422 0 5.423-.856 10.846-2.854 15.697l-.57.285c-.57 0-1.143-.856-1.428-2.283s-.856-2.283-1.998-2.283-1.998.57-2.568 1.428c-.57.855-1.142 1.997-1.713 2.854l-2.855.856v-4.566l-2.854-.286c-.285 0-1.14 1.428-2.853 4.28l-2.283.857-.57-3.71-2.854-1.428h-1.427c-.57.856-1.142 1.713-1.712 2.854-.57.857-1.427 1.428-2.568 1.428.286-3.71 1.428-10.274 3.14-19.692.86-8.27 1.715-14.836 1.715-19.687zm53.367-41.954c0 2.854-.285 4.28-.57 4.28-.285-.284-.285-.57-.285-1.426-.286-1.142-.286-1.998-.286-2.568v-2.283c0-2.57.286-3.997.57-3.997.57.57.57 1.998.57 4.28v1.713zm4.853 36.816v4.566l1.427 1.427 1.427-1.427c.856-6.564 1.427-10.845 1.427-12.843v-5.708c0-2.854-.57-6.564-1.428-11.416-1.714 7.136-2.854 15.7-2.854 25.402zm24.258-31.108c-.285 0-.57.286-.57.57 0 .57 0 .57.57.57s.856-.284.856-.57-.285-.57-.856-.57zm8.847 68.495v5.708s-.57 1.142-1.427 1.427l1.427-7.136zM642.305 1794.542l-.285 1.427c.57.855.856 1.426 1.427 2.282.57.57.856 1.427 1.427 1.998h-.57c-3.14 0-6.564-1.998-10.845-5.708l-2.57.57-.285.57 1.428 2.855h-4.566l-5.708-4.28-2.57.57-.285.57 1.427 2.855-2.283.285c-1.143 0-2.284-.57-3.426-1.427-1.14-1.142-1.997-1.997-2.854-2.854l-2.854.856v4.28c-2.283 0-5.138-1.712-8.562-5.137l-2.568.57-.285.57 1.428 2.855-2.283.286c-1.142 0-2.283-.57-3.425-1.428l-2.854-2.854-2.854.856v4.28c-2.283-.285-4.852-2.283-7.99-6.278-3.14-3.996-4.853-7.135-4.853-9.418l1.426-2.283c1.142 1.713 2.57 3.14 4.28 4.282l.857-.57.57-3.71c-3.14-5.14-4.566-9.134-4.566-11.987l.286-2.283 4.28 4.28v-4.28c0-1.713-.57-4.28-2.283-7.99-1.712-3.426-2.283-5.994-2.283-7.707l.286-4.28c.57 1.427 1.997 3.14 4.28 5.707v-4.566c0-3.425-1.427-8.562-4.28-14.84-3.14-6.85-4.566-11.987-4.566-15.412l.285-5.137c.57 1.712 1.142 3.71 1.998 5.423.57 1.712 1.142 3.425 1.712 5.422 1.998 5.138 3.425 7.99 5.138 9.133v-5.137c0-1.998-.286-5.138-1.428-9.133-1.142-3.996-1.712-7.135-1.712-9.133 1.142.285 2.283.856 3.14 1.998.855.855 1.427 1.712 1.997 1.998.57.57.856.57.856.855l2.854-.855v-4.28l2.854.854c.286.856 1.428 2.283 2.855 4.28l2.854-.57v-4.852c1.71.286 3.14 1.142 3.994 2.854 1.142 1.712 2.283 2.568 3.14 2.568 1.142 0 1.998-.856 2.283-2.283.285-1.713.856-2.284 1.427-2.284.57.57 1.142 1.142 1.998 1.713.856.854 1.998 1.71 3.14 2.567l2.854-.856v-4.28l2.854.856c.57.856 1.14 1.998 1.712 2.854.57.855 1.427 1.427 2.568 1.427s1.713-.856 1.998-2.283.856-2.283 1.427-2.283c.57.572 1.142 1.143 1.998 1.714.856.855 1.998 1.712 3.14 2.568l2.853-.856v-4.28l2.854.855c.286.857 1.428 2.284 2.854 4.282l2.854-.57v-5.994l2.854.856c.57 1.427 1.997 3.14 4.28 5.708 1.142-.57 1.713-3.425 1.998-8.848 1.142 0 3.14 2.854 5.708 8.276 2.568 5.138 3.995 8.848 3.995 10.56l-.285 2.854c-.57-.856-.855-1.427-1.427-2.283-.57-.57-.855-1.426-1.426-1.997l-1.427 5.708c.57 1.143 1.142 2.57 1.712 4.282.57 1.712 1.426 3.71 2.567 5.707l-1.427 1.427c-3.995-4.28-7.135-7.135-9.99-8.562l-.284 1.428c0 1.142.856 3.71 3.14 7.135l-2.854 1.427-7.135-9.99c-1.712-.284-2.568.857-2.854 2.855 1.427 2.283 2.568 4.28 3.425 6.278 1.712 2.854 2.283 5.138 2.283 6.564v2.854l-2.853-2.854-1.427.57v3.71c0 3.425 1.998 7.42 5.708 11.702 1.712 1.712 3.425 3.71 5.137 5.422 1.713 1.713 3.425 3.71 5.138 5.423 3.71 3.71 5.422 6.85 5.137 9.417v2.283l-2.854-1.427-.57.285-.57 2.568c.855 1.142 1.997 2.568 2.853 3.71 1.14 1.427 1.427 2.568 1.427 3.996v2.283l-4.28-1.428-1.714 2.283 3.14 5.138h-4.28l-9.99-8.562h-2.853v.576zm-69.066-.285c0-.286.284-.57.284-.856 1.427.857 2.854 2.57 4.28 5.71h-1.426c-.286 0-.286 0 0 0h-1.713c-.57 0-.856-.572-1.142-1.428 0-.57-.285-.856-.285-1.142v-2.283zm30.25-19.693c.857 2.283 2.855 3.425 5.994 3.425 0-1.714-1.427-4.854-4.566-9.134-.285 0-.57-.286-.855-.286-.286 0-.856-.285-1.428-.285 0 2.855.285 5.138.856 6.28zm2.855-29.966c.57.285 1.713.57 3.425.57 0-1.427-.285-2.568-.57-3.424-1.713-4.28-3.14-7.136-4.28-8.562h-2c.286 6.564 1.142 10.274 3.425 11.416zm-.285 17.694c0 .285 0 .57.285.856.286 1.142 1.713 3.71 4.28 7.706 2.855 3.995 4.853 6.278 5.71 6.563.57.285 1.712.57 3.14.57 0-.57-.287-.855-.287-1.427v-.855c-.285-1.142-1.712-3.71-4.565-7.706-1.428-2-2.57-3.426-3.425-4.567-.856-1.142-1.713-1.712-1.998-1.998-.57-.285-1.713-.57-3.14-.57v1.427zm10.274-17.694c.57.285 1.427.57 2.854.57 0-.57 0-1.14-.285-2.282-.285-.856-.855-2.854-1.998-5.423-.57-1.427-.855-2.283-1.427-3.14-.57-.856-.855-1.142-.855-1.427l-1.142-.57-1.712-.856h-1.427c-.284 0-.855.57-1.426 1.427 1.997 5.422 4.28 9.132 7.42 11.7zm4.28 25.4c3.14 3.995 5.423 6.563 7.136 7.705.57.286 1.712.57 2.854.856v-2.284c-4.28-7.42-8.276-12.27-11.416-14.27-.57-.285-1.712-.57-3.424-.856.285 1.713 1.712 4.567 4.85 8.848zm-1.426-35.39c.57 1.428 1.428 3.425 3.14 5.708.856 1.142 1.427 1.998 2.283 2.854.572.855 1.143 1.427 2 1.712.57.285 1.426.57 3.14.57-.287-2.282-1.714-5.707-4.567-10.845-.57-.855-1.428-1.712-2.854-2.854-.57-.285-1.713-.57-3.426-.57-.287.857-.002 2 .284 3.425zm15.697 39.956c1.427 1.997 3.425 3.425 5.993 3.425 0-2-1.998-5.424-5.708-10.56-.57-.572-.855-1.43-1.427-2-.57-.57-.856-1.14-1.427-1.997-1.427-1.427-2.568-1.998-3.996-1.998h-.57c-.57.286-1.142.856-1.427 1.428l8.562 11.7zm-5.137-38.528c0 .285.855 1.427 2.568 3.71.57 1.142 1.142 1.712 1.142 1.998 0 .285.855.285 1.712.57.285.285.856.285 1.713.285 0-2.855-.856-5.71-2.854-8.563-.57-.57-.857-1.142-1.143-1.713-.285-.57-.57-.57-.855-.855-.286 0-.856-.287-1.142-.287h-1.998c0 2 .285 3.712.856 4.853zm14.555 36.53c2.568 3.425 5.137 5.137 6.85 5.708 0-.285-.285-.856-.285-1.427 0-.57-.286-1.142-.286-1.998-.285-.572-.57-1.143-1.427-2.284s-1.712-2.568-3.14-3.995c-2.568-3.424-4.28-5.137-4.852-5.137-.856 0-1.712.57-2.283 1.427 1.14 1.713 2.854 4.567 5.423 7.706zm3.14 29.11c1.14 0 1.426.572 1.426 1.428s-.286 1.427-1.143 1.427-1.142-.57-1.142-1.426h-.285c-.856 0-1.142-.57-1.142-1.427s.285-1.427 1.142-1.427c.856 0 1.142.57 1.142 1.427zm11.13-32.82h.57c1.997 0 2.854.856 2.854 2.854v1.14l-4.28-4.28c.285.286.57.286.855.286zm1.712-62.787c0 .855-.285 1.426-1.142 1.426s-1.142-.57-1.142-1.427.286-1.428 1.143-1.428 1.142.57 1.142 1.427zm0 2.853c-.285 0-.57-.285-.57-.57 0-.57 0-.57.57-.57s.855.284.855.57c.287.285-.285.57-.855.57zM677.98 1797.396v-1.427c.855 1.426 1.426 2.853 1.426 4.28v2.854c-.856-.57-1.427-.855-1.427-1.427V1797.396zm3.14-12.272c.57-1.142.854-2.283 1.426-3.71.57 1.427 1.142 3.14 1.712 4.852.57 1.712 1.428 2.854 2.57 3.71l.284-6.85c0-1.427 0-3.425-.57-5.423-.57-2.282-1.143-4.565-1.713-7.42-.857-2.854-1.428-5.423-1.714-7.706-.57-2.282-.57-3.995-.57-5.707v-5.994l4.28 9.99.286-7.992c0-2.568-.285-5.423-.57-8.562-.57-3.425-1.428-7.135-2.284-11.13-2.568-9.42-3.995-16.27-4.28-19.693 1.427.285 2.568 1.14 3.425 2.568 1.427 2.282 2.283 3.424 2.283 3.71 2.283-1.713 3.425-3.996 3.425-6.28.57.572 1.428 1.143 2.57 2.284.57.57 1.14 1.142 1.426 1.713.57.285.856.855.856.855l2.854-.855v-4.28l2.854.855c.57.855 1.142 1.997 1.712 2.854.57 1.142 1.427 1.427 2.568 1.427s1.713-.854 1.998-2.282c.285-1.427.856-2.282 1.427-2.282l.57.285c.57.856 1.143 2 1.713 2.855.57 1.142 1.427 1.427 2.568 1.427s1.713-.855 1.998-2.282c.285-1.428.856-2.283 1.427-2.283l.572.285c.57.856 1.142 1.998 1.712 2.854.57 1.142 1.428 1.428 2.57 1.428 1.14 0 1.71-.856 1.996-2.283.286-1.427.856-2.282 1.427-2.282.856 0 1.428.855 2.283 2.283.57 1.428 1.713 2.284 2.854 2.284 2.283 0 3.425-1.713 3.425-4.853.854.287 1.71.857 2.853 2 1.428 1.712 2.283 2.567 2.283 2.853l2.854-.856v-3.71c1.142 0 2.283.855 3.14 2.283.855 1.427 1.712 2.568 2.568 3.995l2.854-1.142v-5.708l2.854 1.142c.286.285.57.856.856 1.713.285.855.856 1.997 1.427 3.425 1.14 2.282 2.282 3.71 3.424 4.852l1.428-.57v-8.277c1.997.57 4.852 7.135 7.99 19.692 3.14 11.416 4.853 19.12 4.853 22.546l-.286 1.428-1.428-.57c-.285-.857-.57-1.713-1.142-2.855-.57-1.14-1.142-2.567-1.712-4.28l-.57-.285-.57.285c-.857 1.427-1.43 2.854-1.43 4.28 0 .57 0 1.428.287 2.284 0 .855.285 1.712.57 2.854.285.856.285 1.998.57 2.854 0 .856.286 1.713.286 2.283l-1.426 1.428-2.854-5.708h-.57c-1.713 0-2.283 1.142-2.283 3.71 0 3.14 1.712 9.133 5.137 18.266 1.998 4.853 3.425 8.848 4.28 12.272 1.143 3.425 1.713 5.708 2 7.42h-2.856c-.57-.855-1.142-1.997-1.712-2.854-.57-.856-1.427-1.427-2.57-1.427-1.996 0-3.138 1.428-3.423 4.567l-5.138-4.566-2.854.857v3.995c-1.14-.285-2.282-1.142-3.71-2.568l-1.712-1.713c-.57-.57-1.142-1.14-1.712-1.996l-1.428.57v5.708l-2.854-.57c-.856-1.428-1.713-3.426-2.568-6.28-1.142-2.853-2.283-6.563-3.425-11.13-2.282-7.42-4.85-13.128-7.99-16.553l-1.142.285-.285 3.995c0 .57 0 1.142.285 1.998 0 .855.285 1.427.57 2.283.286.856.286 1.713.57 2.283 0 .856.286 1.428.286 1.998-.57-.57-1.998-2.853-4.566-7.134-1.998-3.71-3.71-5.708-4.852-5.708s-1.712 1.142-2.283 3.71c-.57 3.14-1.142 4.853-1.427 5.138l-4.28-8.562-1.143.286-.285 5.993c-.285 3.425.856 7.99 3.425 14.27 2.854 6.85 4.28 11.416 4.28 14.27-2.282 0-4.565-1.997-6.278-6.278-.856 0-1.427.856-1.998 2.854-.57 1.997-1.142 2.853-1.712 2.853l-5.138-4.28-2.854.855v4.28l-2.854-.57c-.287-.856-1.43-2.283-2.855-4.28l-2.854.57v4.566l-2.853-.57c-.57-1.143-1.142-2.284-1.712-3.71-.57-1.428-1.142-3.14-1.998-5.138-1.138-5.71-1.708-8.565-1.708-10.562zm5.707-56.224v-2.854h-1.713c0 1.428.572 2.284 1.713 2.854zm24.258 22.832c.57.285 1.713.285 3.425.57 0-5.137-1.142-10.273-3.425-14.84-.57-.856-1.712-1.427-3.425-1.713 0 9.704 1.143 14.84 3.425 15.982zm5.138-7.42c1.142 4.566 2.283 7.135 3.425 7.42.285.285 1.427.285 3.425.57 0-2.282-.57-5.137-1.428-8.847-.855-4.28-2.282-6.85-3.424-7.42-.57-.286-1.427-.286-3.424-.57 0 2.283.57 5.137 1.427 8.847zm7.99-5.137c.286 1.427.57 2.854 1.143 4.853.855 3.424 1.997 5.993 2.854 7.705h2.855c.57-.285 1.142-.856 1.427-1.427-.856-3.425-1.427-5.993-2.283-7.706-1.428-3.995-2.57-6.278-3.426-6.563-.57-.286-1.427-.286-3.14-.57 0 1.14.284 2.28.57 3.708zm3.71 45.378c-.284 0-.57-.285-.57-.57v-.285c0-.286.286-.57.57-.57.57 0 .857.284.857.57 0 .57-.286.855-.856.855zm10.846-32.535c.57 0 1.426-.57 2.282-1.427v-.57c0-1.14-.57-3.424-1.712-6.563-1.142-3.425-1.998-5.708-2.568-6.85h-1.143c-1.428 0-2.57.57-3.14 1.427 1.998 9.132 3.995 13.984 6.28 13.984zm3.71 42.524c.855-.57 1.427-1.142 1.427-1.427v-1.428c0-.57-.57-1.427-1.428-3.14-.57-.855-1.713-1.427-2.855-1.427 0 3.997 1.142 6.566 2.854 7.422zm2.853-47.09h2.282c0-3.426-.286-5.994-.856-7.42-.57-1.143-1.427-2-2.854-2.855-.286 0-.856-.286-1.713-.57 0 6.564 1.142 9.99 3.14 10.844zm8.562 28.54c1.998 3.424 3.996 5.707 5.708 7.134 0-.57.285-.856.285-.856v-.57c0-.856-.57-3.425-1.997-7.135-1.427-3.996-2.282-6.564-2.568-7.135-.57-.856-.855-1.428-1.427-1.428-1.998.57-2.854 1.142-2.854 1.998-.284 1.998.857 4.852 2.855 7.99zm16.838-48.518c-.286 0-.57-.285-.57-.57 0-.57.284-.57.57-.57.57 0 .855.284.855.57 0 .284-.284.57-.855.57zm5.994 69.35v2c0 .57-.285 1.14-.285 1.71-3.71-6.277-5.708-11.415-5.708-15.695 4.28 2.852 5.993 6.848 5.993 11.985zm-4.567-63.357c-.285 0-.57-.57-.57-1.997v-.57c0-1.428.285-2 .57-2 .57 0 .856.857.856 2.284 0 1.427-.286 2.283-.856 2.283zM819.25 1796.825c2.854-.285 5.423-1.427 7.135-3.71-.855-1.142-3.14-1.998-7.135-2.854v-.57l1.428-2.282 6.563.57.572-3.425c-.285-.57-1.713-1.427-4.28-2.854v-.572c0-.57.855-.855 2.282-1.427 1.427-.284 2.283-.855 2.283-2.282 0-1.712-1.427-3.14-4.566-4.566l-1.712-2.854h5.423l.572-2.854c-.57-.855-2.568-1.997-5.994-3.14-3.424-1.14-5.707-2.568-6.85-3.995h7.992l.57-1.428c-1.427-1.712-3.995-3.14-7.99-4.28-3.996-1.143-6.564-2.57-7.992-4.28h7.99l.572-1.43c-1.428-1.71-4.28-3.424-8.562-5.136-4.28-1.712-7.135-3.14-8.562-5.137h.57c.57 0 2.855.57 6.28 1.426l2.853-1.427c-1.998-2.284-5.138-4.282-9.42-5.994-5.992-2.283-9.702-3.425-10.56-3.996l-.284-1.427.285-1.427 9.99 2.854 1.427-1.427c-1.427-1.427-3.14-2.854-5.137-3.71-2.283-1.142-4.28-2.283-6.28-3.425v-2.854c1.143 0 3.14.286 6.28.856 2.568.57 4.566.57 6.278.57h7.42l-9.988-4.28h5.708c2.854 0 7.42.57 13.128 1.712 6.278 1.428 10.56 2.854 12.558 4.28l.285.572-.286.57c-4.852.856-7.135 1.998-7.135 3.71v.57c1.14.286 3.71 1.143 7.99 2.284 4.28 1.142 6.563 1.997 7.135 1.997 3.425 0 8.276-.57 15.126-1.427l.286-.57c0-1.428-2.283-2.854-7.42-3.425v-2.854c2.283-1.143 7.705-1.428 16.553-1.428 7.99 0 16.267.856 24.828 2.854l.285.57-.285.57c-.856.572-3.14 1.144-6.85 2-3.14.57-5.137 1.14-5.993 2.282l.57 2.283h9.42c-1.428 2-3.426 3.426-6.565 3.71-2.568.287-5.137.857-7.706 1.143l-2.854 3.425h8.562l-1.427 4.28H863.2l-1.428 3.426.285.856h8.276l-2.854 3.425c-2 .285-3.997.57-6.28.57-2.854.285-4.566 1.142-5.137 2.283l.57 2.283h7.136c0 2.57-1.714 3.996-5.71 4.282-4.28.285-6.85.855-7.705 2.283l.57 2.282h6.564l-1.428 3.425h-6.564l-.57 2.854c0 .285 1.427 1.142 4.28 2.854l.856 2.854h-4.852l-.57 2.854c.855 1.142 2.283 1.998 4.566 2.854l1.427 2.854h-5.423l-.57 2.854c.855 1.427 3.71 2.283 8.562 2.854v2.854c-2.568.57-3.71.57-3.71.57-1.427.572-2.568 1.143-3.425 2.284l.57 2.283h7.135c0 2.283-.856 3.425-3.14 3.425-7.135 0-19.122-1.427-35.96-4.28v-1.428h.575zm6.85-65.355c0 3.995 5.138 5.993 15.126 5.993h4.85c1.143-.57 1.714-1.427 1.714-2.283l-.285-.57c-9.42-2-16.84-3.14-21.405-3.14zm7.134 9.703c0 .57.286 1.427.856 2.854 1.713 1.427 3.425 2.282 5.138 2.282h1.427c1.142-.286 1.712-.856 1.712-2.283 0-.286-.285-.856-.57-1.428-.285-.57-.57-.856-.856-.856-.855 0-1.997 0-3.71-.286-1.712-.285-3.14-.285-3.996-.285zm13.13-25.115l1.426-1.427h38.528l1.427 1.428c-2.283 1.142-5.708 1.713-9.988 1.713-15.983 0-26.257-.57-31.394-1.712z"/></g><g stroke="#ffffff" stroke-width="10" stroke-miterlimit="10" fill="none"><path d="M618.047 1390.992M609.484 964.896M772.445 1210.052l-242.872 249.72M771.875 963.184l-242.302 250.293"/><path d="M771.875 1072.776V963.184H661.427c-3.425-.285-7.135 0-10.56 0-67.068 0-121.293 53.654-121.293 120.152 0 66.782 54.51 120.722 121.293 120.722 67.067 0 121.008-53.94 121.008-120.722 0-3.71.285-7.135 0-10.56zM530.145 1351.037v109.592h110.448c3.425.284 7.135 0 10.56 0 67.068 0 121.293-53.655 121.293-120.152 0-66.783-54.225-120.723-121.293-120.723s-121.008 53.94-121.008 120.723c0 3.424-.286 6.85 0 10.56zM530.145 1338.48v-242.873M771.875 1088.188l.57 248.008M499.036 962.898L253.31 1213.762M499.036 1459.772l-245.44-246.295"/><path d="M421.408 962.898h-88.185c-41.097 0-75.345 32.82-81.338 75.63-.57 4.566-.856 8.848-.856 13.7v318.5c0 4.567.286 9.133.856 13.7 5.993 42.81 40.24 75.63 81.338 75.63H498.75V962.897H421.41z"/></g></svg>